COMMENT @(#)33	1.3  src/bos/usr/lpp/kls/fonts/HGPRT16.bdf, cmdkr, bos411, 9428A410j 2/24/94 11:08:51
COMMENT
COMMENT   COMPONENT_NAME: cmdkr
COMMENT
COMMENT   FUNCTIONS: none
COMMENT
COMMENT   ORIGINS: 27
COMMENT
COMMENT   IBM CONFIDENTIAL -- (IBM Confidential Restricted when
COMMENT   combined with the aggregated modules for this product)
COMMENT                    SOURCE MATERIALS
COMMENT
COMMENT   (C) COPYRIGHT International Business Machines Corp. 1992
COMMENT   All Rights Reserved
COMMENT   US Government Users Restricted Rights - Use, duplication or
COMMENT   disclosure restricted by GSA ADP Schedule Contract with IBM Corp.
COMMENT
STARTFONT 2.1  
COMMENT IBM Korea Hangul & Hanja fonts
FONT -ibm_aix-HGPRT16-medium-r-normal--19-14-100-100-m-180-KSC5601.1987-0
SIZE 19 100 100  
FONTBOUNDINGBOX 18 19 0 -1  
STARTPROPERTIES 4 
FONT_ASCENT 18 
FONT_DESCENT 1 
DEFAULT_CHAR 41377 
Copyright "Copyright (c) 1992 IBM Korea, Inc."
ENDPROPERTIES 
CHARS 8226
STARTCHAR a1a1
ENCODING 41377 
SWIDTH 495 0
DWIDTH 18 0
BBX 18 19 0 0
BITMAP 
0000
0000
0000
0000
0000
0000
0000
0000
0000
0000
0000
0000
0000
0000
0000
0000
0000
0000
0000
ENDCHAR
STARTCHAR a1a2
ENCODING 41378 
SWIDTH 495 0
DWIDTH 18 0
BBX 18 19 0 0
BITMAP 
0000
000c
0006
0003
0003
0000
0000
0000
0000
0000
0000
0000
0000
0000
0000
0000
0000
0000
0000
ENDCHAR
STARTCHAR a1a3
ENCODING 41379 
SWIDTH 495 0
DWIDTH 18 0
BBX 18 19 0 0
BITMAP 
0000
0006
0009
0009
0006
0000
0000
0000
0000
0000
0000
0000
0000
0000
0000
0000
0000
0000
0000
ENDCHAR
STARTCHAR a1a4
ENCODING 41380 
SWIDTH 495 0
DWIDTH 18 0
BBX 18 19 0 0
BITMAP 
0000
0000
0000
0000
0000
0000
0000
0000
0180
03c0
0180
0000
0000
0000
0000
0000
0000
0000
0000
ENDCHAR
STARTCHAR a1a5
ENCODING 41381 
SWIDTH 495 0
DWIDTH 18 0
BBX 18 19 0 0
BITMAP 
0000
0000
0000
0000
0000
0000
0000
0000
1818
1818
0000
0000
0000
0000
0000
0000
0000
0000
0000
ENDCHAR
STARTCHAR a1a6
ENCODING 41382 
SWIDTH 495 0
DWIDTH 18 0
BBX 18 19 0 0
BITMAP 
0000
0000
0000
0000
0000
0000
0000
0000
6186
6186
0000
0000
0000
0000
0000
0000
0000
0000
0000
ENDCHAR
STARTCHAR a1a7
ENCODING 41383 
SWIDTH 495 0
DWIDTH 18 0
BBX 18 19 0 0
BITMAP 
0000
0660
0660
0000
0000
0000
0000
0000
0000
0000
0000
0000
0000
0000
0000
0000
0000
0000
0000
ENDCHAR
STARTCHAR a1a8
ENCODING 41384 
SWIDTH 495 0
DWIDTH 18 0
BBX 18 19 0 0
BITMAP 
0000
0000
0000
0000
0000
0080
0100
0208
0410
0820
1040
0080
0100
0000
0000
0000
0000
0000
0000
ENDCHAR
STARTCHAR a1a9
ENCODING 41385 
SWIDTH 495 0
DWIDTH 18 0
BBX 18 19 0 0
BITMAP 
0000
0000
0000
0000
0000
0000
0000
0000
0ff0
0000
0000
0000
0000
0000
0000
0000
0000
0000
0000
ENDCHAR
STARTCHAR a1aa
ENCODING 41386 
SWIDTH 495 0
DWIDTH 18 0
BBX 18 19 0 0
BITMAP 
0000
0000
0000
0000
0000
0000
0000
0000
7ffe
0000
0000
0000
0000
0000
0000
0000
0000
0000
0000
ENDCHAR
STARTCHAR a1ab
ENCODING 41387 
SWIDTH 495 0
DWIDTH 18 0
BBX 18 19 0 0
BITMAP 
0000
0000
0240
0240
0240
0240
0240
0240
0240
0240
0240
0240
0240
0240
0240
0240
0000
0000
0000
ENDCHAR
STARTCHAR a1ac
ENCODING 41388 
SWIDTH 495 0
DWIDTH 18 0
BBX 18 19 0 0
BITMAP 
0000
0000
4000
2000
1000
0800
0400
0200
0100
0080
0040
0020
0010
0008
0004
0002
0000
0000
0000
ENDCHAR
STARTCHAR a3fe
ENCODING 41982 
SWIDTH 495 0
DWIDTH 18 0
BBX 18 19 0 0
BITMAP 
0000
7ffe
0000
0000
0000
0000
0000
0000
0000
0000
0000
0000
0000
0000
0000
0000
0000
0000
0000
ENDCHAR
STARTCHAR a1ae
ENCODING 41390 
SWIDTH 495 0
DWIDTH 18 0
BBX 18 19 0 0
BITMAP 
0000
0004
0008
000c
000c
0000
0000
0000
0000
0000
0000
0000
0000
0000
0000
0000
0000
0000
0000
ENDCHAR
STARTCHAR a1af
ENCODING 41391 
SWIDTH 495 0
DWIDTH 18 0
BBX 18 19 0 0
BITMAP 
0000
6000
6000
2000
4000
0000
0000
0000
0000
0000
0000
0000
0000
0000
0000
0000
0000
0000
0000
ENDCHAR
STARTCHAR a1b0
ENCODING 41392 
SWIDTH 495 0
DWIDTH 18 0
BBX 18 19 0 0
BITMAP 
0000
0024
0048
006c
006c
0000
0000
0000
0000
0000
0000
0000
0000
0000
0000
0000
0000
0000
0000
ENDCHAR
STARTCHAR a1b1
ENCODING 41393 
SWIDTH 495 0
DWIDTH 18 0
BBX 18 19 0 0
BITMAP 
0000
6c00
6c00
2400
4800
0000
0000
0000
0000
0000
0000
0000
0000
0000
0000
0000
0000
0000
0000
ENDCHAR
STARTCHAR a1b2
ENCODING 41394 
SWIDTH 495 0
DWIDTH 18 0
BBX 18 19 0 0
BITMAP 
0000
0020
0040
0080
0100
0100
0100
0100
0100
0100
0100
0100
0100
0100
0080
0040
0020
0000
0000
ENDCHAR
STARTCHAR a1b3
ENCODING 41395 
SWIDTH 495 0
DWIDTH 18 0
BBX 18 19 0 0
BITMAP 
0000
0400
0200
0100
0080
0080
0080
0080
0080
0080
0080
0080
0080
0080
0100
0200
0400
0000
0000
ENDCHAR
STARTCHAR a1b4
ENCODING 41396 
SWIDTH 495 0
DWIDTH 18 0
BBX 18 19 0 0
BITMAP 
0000
0000
0008
0010
0020
0040
0080
0100
0200
0200
0100
0080
0040
0020
0010
0008
0000
0000
0000
ENDCHAR
STARTCHAR a1b5
ENCODING 41397 
SWIDTH 495 0
DWIDTH 18 0
BBX 18 19 0 0
BITMAP 
0000
0000
1000
0800
0400
0200
0100
0080
0040
0040
0080
0100
0200
0400
0800
1000
0000
0000
0000
ENDCHAR
STARTCHAR a1b6
ENCODING 41398 
SWIDTH 495 0
DWIDTH 18 0
BBX 18 19 0 0
BITMAP 
0000
0009
0012
0024
0048
0090
0120
0240
0480
0480
0240
0120
0090
0048
0024
0012
0009
0000
0000
ENDCHAR
STARTCHAR a1b7
ENCODING 41399 
SWIDTH 495 0
DWIDTH 18 0
BBX 18 19 0 0
BITMAP 
0000
9000
4800
2400
1200
0900
0480
0240
0120
0120
0240
0480
0900
1200
2400
4800
9000
0000
0000
ENDCHAR
STARTCHAR a1b8
ENCODING 41400 
SWIDTH 495 0
DWIDTH 18 0
BBX 18 19 0 0
BITMAP 
0000
01fc
0100
0100
0100
0100
0100
0100
0100
0100
0100
0100
0000
0000
0000
0000
0000
0000
0000
ENDCHAR
STARTCHAR a1b9
ENCODING 41401 
SWIDTH 495 0
DWIDTH 18 0
BBX 18 19 0 0
BITMAP 
0000
0000
0000
0000
0000
0000
0100
0100
0100
0100
0100
0100
0100
0100
0100
0100
7f00
0000
0000
ENDCHAR
STARTCHAR a1ba
ENCODING 41402 
SWIDTH 495 0
DWIDTH 18 0
BBX 18 19 0 0
BITMAP 
0000
00ff
0081
00bf
00a0
00a0
00a0
00a0
00a0
00a0
00a0
00e0
0000
0000
0000
0000
0000
0000
0000
ENDCHAR
STARTCHAR a1bb
ENCODING 41403 
SWIDTH 495 0
DWIDTH 18 0
BBX 18 19 0 0
BITMAP 
0000
0000
0000
0000
0000
0000
0700
0500
0500
0500
0500
0500
0500
0500
fd00
8100
ff00
0000
0000
ENDCHAR
STARTCHAR a1bc
ENCODING 41404 
SWIDTH 495 0
DWIDTH 18 0
BBX 18 19 0 0
BITMAP 
0000
00f8
00f0
00f0
00e0
00e0
00c0
00c0
00c0
00c0
00c0
00c0
00e0
00e0
00f0
00f0
00f8
0000
0000
ENDCHAR
STARTCHAR a1bd
ENCODING 41405 
SWIDTH 495 0
DWIDTH 18 0
BBX 18 19 0 0
BITMAP 
0000
1f00
0f00
0f00
0700
0700
0300
0300
0300
0300
0300
0300
0700
0700
0f00
0f00
1f00
0000
0000
ENDCHAR
STARTCHAR a1be
ENCODING 41406 
SWIDTH 495 0
DWIDTH 18 0
BBX 18 19 0 0
BITMAP 
0000
0000
0100
0100
0100
0100
3ff8
0100
0100
0100
0100
0100
0000
0000
3ff8
0000
0000
0000
0000
ENDCHAR
STARTCHAR a1bf
ENCODING 41407 
SWIDTH 495 0
DWIDTH 18 0
BBX 18 19 0 0
BITMAP 
0000
0000
0000
4004
2008
1010
0820
0440
0280
0100
0280
0440
0820
1010
2008
4004
0000
0000
0000
ENDCHAR
STARTCHAR a1c0
ENCODING 41408 
SWIDTH 495 0
DWIDTH 18 0
BBX 18 19 0 0
BITMAP 
0000
0000
0000
0180
0180
0000
0000
0000
3ffc
0000
0000
0000
0180
0180
0000
0000
0000
0000
0000
ENDCHAR
STARTCHAR a1c4
ENCODING 41412 
SWIDTH 495 0
DWIDTH 18 0
BBX 18 19 0 0
BITMAP 
0000
0000
0000
0000
0000
3838
4444
8282
8102
8282
4444
3838
0000
0000
0000
0000
0000
0000
0000
ENDCHAR
STARTCHAR a1c5
ENCODING 41413 
SWIDTH 495 0
DWIDTH 18 0
BBX 18 19 0 0
BITMAP 
0000
0000
0000
0000
0180
0180
0000
0000
0000
0000
0000
0000
300c
300c
0000
0000
0000
0000
0000
ENDCHAR
STARTCHAR a1c6
ENCODING 41414 
SWIDTH 495 0
DWIDTH 18 0
BBX 18 19 0 0
BITMAP 
0000
3000
4800
4800
3000
0000
0000
0000
0000
0000
0000
0000
0000
0000
0000
0000
0000
0000
0000
ENDCHAR
STARTCHAR a1c7
ENCODING 41415 
SWIDTH 495 0
DWIDTH 18 0
BBX 18 19 0 0
BITMAP 
0000
0800
1000
2000
4000
0000
0000
0000
0000
0000
0000
0000
0000
0000
0000
0000
0000
0000
0000
ENDCHAR
STARTCHAR a1c8
ENCODING 41416 
SWIDTH 495 0
DWIDTH 18 0
BBX 18 19 0 0
BITMAP 
0000
0900
1200
2400
4800
0000
0000
0000
0000
0000
0000
0000
0000
0000
0000
0000
0000
0000
0000
ENDCHAR
STARTCHAR a1c9
ENCODING 41417 
SWIDTH 495 0
DWIDTH 18 0
BBX 18 19 0 0
BITMAP 
0000
6000
91e4
9214
640c
0804
0804
0800
0800
0800
0800
0804
0804
0408
0210
01e0
0000
0000
0000
ENDCHAR
STARTCHAR a3de
ENCODING 41950 
SWIDTH 495 0
DWIDTH 18 0
BBX 18 19 0 0
BITMAP 
0000
0180
0240
0000
0000
0000
0000
0000
0000
0000
0000
0000
0000
0000
0000
0000
0000
0000
0000
ENDCHAR
STARTCHAR a1cc
ENCODING 41420 
SWIDTH 495 0
DWIDTH 18 0
BBX 18 19 0 0
BITMAP 
0000
0000
00e0
0110
0110
0100
0100
0ff8
0100
0100
0100
1d00
2300
2104
2288
1c70
0000
0000
0000
ENDCHAR
STARTCHAR a1cd
ENCODING 41421 
SWIDTH 495 0
DWIDTH 18 0
BBX 18 19 0 0
BITMAP 
0000
0000
2008
1010
0820
0440
0280
0100
3ff8
0100
0100
3ff8
0100
0100
0100
0100
0000
0000
0000
ENDCHAR
STARTCHAR a7a2
ENCODING 42914 
SWIDTH 495 0
DWIDTH 18 0
BBX 18 19 0 0
BITMAP 
0000
0000
0018
0024
0024
0042
0042
3642
4944
4944
4928
4928
4910
4910
4929
4946
0000
0000
0000
ENDCHAR
STARTCHAR a7a3
ENCODING 42915 
SWIDTH 495 0
DWIDTH 18 0
BBX 18 19 0 0
BITMAP 
0000
0000
0218
0224
0224
0242
0242
1e42
2244
4244
4228
4228
4210
4210
2229
1e46
0000
0000
0000
ENDCHAR
STARTCHAR a7a4
ENCODING 42916 
SWIDTH 495 0
DWIDTH 18 0
BBX 18 19 0 0
BITMAP 
0000
0000
0180
0240
0240
0420
0420
0420
0440
0440
0280
0280
0100
0100
0290
0460
0000
0000
0000
ENDCHAR
STARTCHAR a7a6
ENCODING 42918 
SWIDTH 495 0
DWIDTH 18 0
BBX 18 19 0 0
BITMAP 
0000
0000
0000
0000
0000
0000
1c1c
2222
4040
4040
4040
4040
4040
2222
1c1c
0000
0000
0000
0000
ENDCHAR
STARTCHAR a7ae
ENCODING 42926 
SWIDTH 495 0
DWIDTH 18 0
BBX 18 19 0 0
BITMAP 
0000
0000
0000
0000
0000
0000
3636
4949
4949
4949
4949
4949
4949
4949
4949
0000
0000
0000
0000
ENDCHAR
STARTCHAR a7af
ENCODING 42927 
SWIDTH 495 0
DWIDTH 18 0
BBX 18 19 0 0
BITMAP 
0000
0000
0000
0000
0000
0000
1c6c
2292
4092
4092
4092
4092
4092
2292
1c92
0000
0000
0000
0000
ENDCHAR
STARTCHAR a7b0
ENCODING 42928 
SWIDTH 495 0
DWIDTH 18 0
BBX 18 19 0 0
BITMAP 
0000
0000
4000
4000
4000
4000
4000
426c
4492
4892
5092
6092
5092
4892
4492
c292
0000
0000
0000
ENDCHAR
STARTCHAR a7b7
ENCODING 42935 
SWIDTH 495 0
DWIDTH 18 0
BBX 18 19 0 0
BITMAP 
0000
0000
0000
0000
0000
0000
363d
4942
4942
493c
4920
4920
493e
4941
4941
003e
0000
0000
0000
ENDCHAR
STARTCHAR a7b8
ENCODING 42936 
SWIDTH 495 0
DWIDTH 18 0
BBX 18 19 0 0
BITMAP 
0000
0000
4000
4000
4000
4000
4000
427a
4484
4884
5078
6040
5040
487c
4482
c282
007c
0000
0000
ENDCHAR
STARTCHAR a1d7
ENCODING 41431 
SWIDTH 495 0
DWIDTH 18 0
BBX 18 19 0 0
BITMAP 
0000
0380
0440
0400
0400
0200
0100
0280
0440
0440
0280
0100
0080
0040
0040
0440
0380
0000
0000
ENDCHAR
STARTCHAR a1d8
ENCODING 41432 
SWIDTH 495 0
DWIDTH 18 0
BBX 18 19 0 0
BITMAP 
0000
0000
4182
2184
1008
0810
0420
0240
6186
6186
0240
0420
0810
1008
2184
4182
0000
0000
0000
ENDCHAR
STARTCHAR a1d9
ENCODING 41433 
SWIDTH 495 0
DWIDTH 18 0
BBX 18 19 0 0
BITMAP 
0000
0000
0100
0280
0280
0440
0440
f83e
4004
3018
0820
1110
26c8
2828
5014
600c
0000
0000
0000
ENDCHAR
STARTCHAR a1da
ENCODING 41434 
SWIDTH 495 0
DWIDTH 18 0
BBX 18 19 0 0
BITMAP 
0000
0000
0100
0380
0380
07c0
07c0
fffe
7ffc
1ff0
0fe0
1ff0
3ef0
3838
701c
600c
0000
0000
0000
ENDCHAR
STARTCHAR a1db
ENCODING 41435 
SWIDTH 495 0
DWIDTH 18 0
BBX 18 19 0 0
BITMAP 
0000
0000
03c0
0c30
1008
2004
2004
4002
4002
4002
4002
2004
2004
1008
0c30
03c0
0000
0000
0000
ENDCHAR
STARTCHAR a1dc
ENCODING 41436 
SWIDTH 495 0
DWIDTH 18 0
BBX 18 19 0 0
BITMAP 
0000
0000
0000
03c0
0ff0
1ff8
1ff8
3ffc
3ffc
3ffc
3ffc
1ff8
1ff8
0ff0
03c0
0000
0000
0000
0000
ENDCHAR
STARTCHAR a1dd
ENCODING 41437 
SWIDTH 495 0
DWIDTH 18 0
BBX 18 19 0 0
BITMAP 
0000
0000
0000
03c0
0c30
1008
13c8
2424
2424
2424
2424
13c8
1008
0c30
03c0
0000
0000
0000
0000
ENDCHAR
STARTCHAR a1de
ENCODING 41438 
SWIDTH 495 0
DWIDTH 18 0
BBX 18 19 0 0
BITMAP 
0000
0000
0180
0240
0420
0810
1008
2004
4002
4002
2004
1008
0810
0420
0240
0180
0000
0000
0000
ENDCHAR
STARTCHAR a1df
ENCODING 41439 
SWIDTH 495 0
DWIDTH 18 0
BBX 18 19 0 0
BITMAP 
0000
0000
0000
0180
03c0
07e0
0ff0
1ff8
3ffc
3ffc
1ff8
0ff0
07e0
03c0
0180
0000
0000
0000
0000
ENDCHAR
STARTCHAR a1e0
ENCODING 41440 
SWIDTH 495 0
DWIDTH 18 0
BBX 18 19 0 0
BITMAP 
0000
0000
7ffe
4002
4002
4002
4002
4002
4002
4002
4002
4002
4002
4002
4002
7ffe
0000
0000
0000
ENDCHAR
STARTCHAR a1e1
ENCODING 41441 
SWIDTH 495 0
DWIDTH 18 0
BBX 18 19 0 0
BITMAP 
0000
0000
0000
3ffc
3ffc
3ffc
3ffc
3ffc
3ffc
3ffc
3ffc
3ffc
3ffc
3ffc
3ffc
0000
0000
0000
0000
ENDCHAR
STARTCHAR a1e2
ENCODING 41442 
SWIDTH 495 0
DWIDTH 18 0
BBX 18 19 0 0
BITMAP 
0000
0000
0100
0280
0280
0440
0440
0820
0820
1010
1010
2008
2008
4004
4004
fffe
0000
0000
0000
ENDCHAR
STARTCHAR a1e3
ENCODING 41443 
SWIDTH 495 0
DWIDTH 18 0
BBX 18 19 0 0
BITMAP 
0000
0000
0000
0100
0380
0380
07c0
07c0
0fe0
0fe0
1ff0
1ff0
3ff8
3ff8
7ffc
0000
0000
0000
0000
ENDCHAR
STARTCHAR a1e4
ENCODING 41444 
SWIDTH 495 0
DWIDTH 18 0
BBX 18 19 0 0
BITMAP 
0000
0000
fffe
4004
4004
2008
2008
1010
1010
0820
0820
0440
0440
0280
0280
0100
0000
0000
0000
ENDCHAR
STARTCHAR a1e5
ENCODING 41445 
SWIDTH 495 0
DWIDTH 18 0
BBX 18 19 0 0
BITMAP 
0000
0000
0000
7ffc
3ff8
3ff8
1ff0
1ff0
0fe0
0fe0
07c0
07c0
0380
0380
0100
0000
0000
0000
0000
ENDCHAR
STARTCHAR a1e6
ENCODING 41446 
SWIDTH 495 0
DWIDTH 18 0
BBX 18 19 0 0
BITMAP 
0000
0000
0000
0000
0010
0008
0004
0002
ffff
0002
0004
0008
0010
0000
0000
0000
0000
0000
0000
ENDCHAR
STARTCHAR a1e7
ENCODING 41447 
SWIDTH 495 0
DWIDTH 18 0
BBX 18 19 0 0
BITMAP 
0000
0000
0000
0000
0800
1000
2000
4000
ffff
4000
2000
1000
0800
0000
0000
0000
0000
0000
0000
ENDCHAR
STARTCHAR a1e8
ENCODING 41448 
SWIDTH 495 0
DWIDTH 18 0
BBX 18 19 0 0
BITMAP 
0000
0100
0380
0540
0920
1110
0100
0100
0100
0100
0100
0100
0100
0100
0100
0100
0100
0000
0000
ENDCHAR
STARTCHAR a1e9
ENCODING 41449 
SWIDTH 495 0
DWIDTH 18 0
BBX 18 19 0 0
BITMAP 
0000
0100
0100
0100
0100
0100
0100
0100
0100
0100
0100
0100
1110
0920
0540
0380
0100
0000
0000
ENDCHAR
STARTCHAR a1ea
ENCODING 41450 
SWIDTH 495 0
DWIDTH 18 0
BBX 18 19 0 0
BITMAP 
0000
0000
0000
0000
0000
1008
2004
4002
ffff
4002
2004
1008
0000
0000
0000
0000
0000
0000
0000
ENDCHAR
STARTCHAR a1eb
ENCODING 41451 
SWIDTH 495 0
DWIDTH 18 0
BBX 18 19 0 0
BITMAP 
0000
0000
0000
3ffc
3ffc
3ffc
3ffc
0000
0000
0000
0000
3ffc
3ffc
3ffc
3ffc
0000
0000
0000
0000
ENDCHAR
STARTCHAR a3db
ENCODING 41947 
SWIDTH 495 0
DWIDTH 18 0
BBX 18 19 0 0
BITMAP 
0000
0000
003e
0020
0020
0020
0020
0020
0020
0020
0020
0020
0020
0020
0020
003c
0000
0000
0000
ENDCHAR
STARTCHAR a3dd
ENCODING 41949 
SWIDTH 495 0
DWIDTH 18 0
BBX 18 19 0 0
BITMAP 
0000
0000
7c00
0400
0400
0400
0400
0400
0400
0400
0400
0400
0400
0400
0400
7c00
0000
0000
0000
ENDCHAR
STARTCHAR a1c1
ENCODING 41409 
SWIDTH 495 0
DWIDTH 18 0
BBX 18 19 0 0
BITMAP 
0000
2000
2000
1000
1000
0800
ffff
0400
0200
0100
0080
ffff
0040
0020
0010
0008
0004
0000
0000
ENDCHAR
STARTCHAR a1c2
ENCODING 41410 
SWIDTH 495 0
DWIDTH 18 0
BBX 18 19 0 0
BITMAP 
0000
0000
000e
0070
0380
1c00
6000
1c00
0380
0070
000e
0000
0000
0000
7ffe
0000
0000
0000
0000
ENDCHAR
STARTCHAR a1c3
ENCODING 41411 
SWIDTH 495 0
DWIDTH 18 0
BBX 18 19 0 0
BITMAP 
0000
0000
7000
0e00
01c0
0038
0006
0038
01c0
0e00
7000
0000
0000
0000
7ffe
0000
0000
0000
0000
ENDCHAR
STARTCHAR a1ca
ENCODING 41418 
SWIDTH 495 0
DWIDTH 18 0
BBX 18 19 0 0
BITMAP 
0000
0180
0240
0240
0180
0000
0100
0280
0280
0440
0420
0ff0
0810
1008
7c3e
0000
0000
0000
0000
ENDCHAR
STARTCHAR a1ce
ENCODING 41422 
SWIDTH 495 0
DWIDTH 18 0
BBX 18 19 0 0
BITMAP 
0000
0100
0380
0540
0920
1110
2108
0100
0100
07c0
0820
1010
1010
1010
1010
0820
07c0
0000
0000
ENDCHAR
STARTCHAR a1cf
ENCODING 41423 
SWIDTH 495 0
DWIDTH 18 0
BBX 18 19 0 0
BITMAP 
0000
07c0
0820
1010
1010
1010
1010
0820
07c0
0100
0100
7ffc
0100
0100
0100
0100
0100
0000
0000
ENDCHAR
STARTCHAR a1d0
ENCODING 41424 
SWIDTH 495 0
DWIDTH 18 0
BBX 18 19 0 0
BITMAP 
0000
0000
0000
0008
0010
0020
0040
0080
0100
0200
0400
0800
1000
3ffc
0000
0000
0000
0000
0000
ENDCHAR
STARTCHAR a1d1
ENCODING 41425 
SWIDTH 495 0
DWIDTH 18 0
BBX 18 19 0 0
BITMAP 
0000
0000
0000
0100
0100
0100
0100
0100
0100
0100
0100
0100
0100
3ffc
0000
0000
0000
0000
0000
ENDCHAR
STARTCHAR a1d2
ENCODING 41426 
SWIDTH 495 0
DWIDTH 18 0
BBX 18 19 0 0
BITMAP 
0000
07e0
381c
c003
0000
0000
0000
0000
0000
0000
0000
0000
0000
0000
0000
0000
0000
0000
0000
ENDCHAR
STARTCHAR a1d3
ENCODING 41427 
SWIDTH 495 0
DWIDTH 18 0
BBX 18 19 0 0
BITMAP 
0000
0000
01e0
0210
0410
0010
0010
0390
0460
0820
1020
1040
1040
1080
0f00
0000
0000
0000
0000
ENDCHAR
STARTCHAR a1d4
ENCODING 41428 
SWIDTH 495 0
DWIDTH 18 0
BBX 18 19 0 0
BITMAP 
0000
0000
7ffc
2008
2008
1010
1010
0820
0820
0440
0440
0280
0280
0100
0100
0000
0000
0000
0000
ENDCHAR
STARTCHAR a1d5
ENCODING 41429 
SWIDTH 495 0
DWIDTH 18 0
BBX 18 19 0 0
BITMAP 
0000
0000
0000
0000
3ffc
0000
0000
0000
3ffc
0000
0000
0000
3ffc
0000
0000
0000
0000
0000
0000
ENDCHAR
STARTCHAR a1d6
ENCODING 41430 
SWIDTH 495 0
DWIDTH 18 0
BBX 18 19 0 0
BITMAP 
0000
0000
0000
1800
1800
0000
3ffc
0000
0000
0000
3ffc
0000
0018
0018
0000
0000
0000
0000
0000
ENDCHAR
STARTCHAR a1ec
ENCODING 41452 
SWIDTH 495 0
DWIDTH 18 0
BBX 18 19 0 0
BITMAP 
0000
0000
0042
0084
0318
0420
18c0
2100
4200
2100
1080
0840
0630
0108
0084
0042
0000
0000
0000
ENDCHAR
STARTCHAR a1ed
ENCODING 41453 
SWIDTH 495 0
DWIDTH 18 0
BBX 18 19 0 0
BITMAP 
0000
0000
4200
2100
18c0
0420
0318
0084
0042
0084
0108
0210
0c60
1080
2100
4200
0000
0000
0000
ENDCHAR
STARTCHAR a1ee
ENCODING 41454 
SWIDTH 495 0
DWIDTH 18 0
BBX 18 19 0 0
BITMAP 
0000
00ff
0080
0080
0100
0100
0100
0100
0200
0200
0200
2200
6400
9400
1400
0800
0800
0000
0000
ENDCHAR
STARTCHAR a1ef
ENCODING 41455 
SWIDTH 495 0
DWIDTH 18 0
BBX 18 19 0 0
BITMAP 
0000
0000
0000
0000
0000
1c38
2044
4082
4082
4102
4102
2204
1c38
0000
0000
0000
0000
0000
0000
ENDCHAR
STARTCHAR a1cb
ENCODING 41419 
SWIDTH 495 0
DWIDTH 18 0
BBX 18 19 0 0
BITMAP 
0000
0000
0100
0100
07e0
0910
1108
1100
1100
1100
1100
1108
0910
07e0
0100
0100
0000
0000
0000
ENDCHAR
STARTCHAR a3ae
ENCODING 41902 
SWIDTH 495 0
DWIDTH 18 0
BBX 18 19 0 0
BITMAP 
0000
0000
0000
0000
0000
0000
0000
0000
0000
0000
0000
0000
3000
3000
0000
0000
0000
0000
0000
ENDCHAR
STARTCHAR a3bc
ENCODING 41916 
SWIDTH 495 0
DWIDTH 18 0
BBX 18 19 0 0
BITMAP 
0000
0000
0000
0000
000c
0030
00c0
0300
0c00
3000
0c00
0300
00c0
0030
000c
0000
0000
0000
0000
ENDCHAR
STARTCHAR a3a8
ENCODING 41896 
SWIDTH 495 0
DWIDTH 18 0
BBX 18 19 0 0
BITMAP 
0000
0004
0008
0010
0010
0020
0020
0040
0040
0040
0040
0020
0020
0010
0010
0008
0004
0000
0000
ENDCHAR
STARTCHAR a3ab
ENCODING 41899 
SWIDTH 495 0
DWIDTH 18 0
BBX 18 19 0 0
BITMAP 
0000
0000
0000
0100
0100
0100
0100
0100
3ffc
0100
0100
0100
0100
0100
0100
0000
0000
0000
0000
ENDCHAR
STARTCHAR a3fc
ENCODING 41980 
SWIDTH 495 0
DWIDTH 18 0
BBX 18 19 0 0
BITMAP 
0000
0000
0100
0100
0100
0100
0100
0100
0100
0100
0100
0100
0100
0100
0100
0100
0000
0000
0000
ENDCHAR
STARTCHAR a3a6
ENCODING 41894 
SWIDTH 495 0
DWIDTH 18 0
BBX 18 19 0 0
BITMAP 
0000
0000
0700
0880
1040
1040
0880
0500
0200
0500
0884
1044
1028
1010
0828
07c4
0000
0000
0000
ENDCHAR
STARTCHAR a3a1
ENCODING 41889 
SWIDTH 495 0
DWIDTH 18 0
BBX 18 19 0 0
BITMAP 
0000
0000
0100
0100
0100
0100
0100
0100
0100
0100
0100
0000
0000
0100
0380
0100
0000
0000
0000
ENDCHAR
STARTCHAR a3a4
ENCODING 41892 
SWIDTH 495 0
DWIDTH 18 0
BBX 18 19 0 0
BITMAP 
0000
0080
0080
07f0
0888
1084
1080
1080
0ff0
0088
0084
0084
1084
0888
07f0
0080
0080
0000
0000
ENDCHAR
STARTCHAR a3aa
ENCODING 41898 
SWIDTH 495 0
DWIDTH 18 0
BBX 18 19 0 0
BITMAP 
0000
0000
0000
0100
0100
2108
1110
0920
0440
0000
0440
0920
1110
2108
0100
0100
0000
0000
0000
ENDCHAR
STARTCHAR a3a9
ENCODING 41897 
SWIDTH 495 0
DWIDTH 18 0
BBX 18 19 0 0
BITMAP 
0000
4000
2000
1000
1000
0800
0800
0400
0400
0400
0400
0800
0800
1000
1000
2000
4000
0000
0000
ENDCHAR
STARTCHAR a3bb
ENCODING 41915 
SWIDTH 495 0
DWIDTH 18 0
BBX 18 19 0 0
BITMAP 
0000
0000
0000
0000
0000
0180
0180
0000
0000
0000
0000
0000
0180
0180
0080
0100
0000
0000
0000
ENDCHAR
STARTCHAR a1fe
ENCODING 41470 
SWIDTH 495 0
DWIDTH 18 0
BBX 18 19 0 0
BITMAP 
0000
0000
0000
0000
0000
0000
7ffe
0002
0002
0002
0002
0002
0000
0000
0000
0000
0000
0000
0000
ENDCHAR
STARTCHAR a3ad
ENCODING 41901 
SWIDTH 495 0
DWIDTH 18 0
BBX 18 19 0 0
BITMAP 
0000
0000
0000
0000
0000
0000
0000
0000
3ffc
0000
0000
0000
0000
0000
0000
0000
0000
0000
0000
ENDCHAR
STARTCHAR a3af
ENCODING 41903 
SWIDTH 495 0
DWIDTH 18 0
BBX 18 19 0 0
BITMAP 
0000
0000
0002
0004
0008
0010
0020
0040
0080
0100
0200
0400
0800
1000
2000
4000
0000
0000
0000
ENDCHAR
STARTCHAR acfd
ENCODING 44285 
SWIDTH 495 0
DWIDTH 18 0
BBX 18 19 0 0
BITMAP 
0000
0000
0100
0100
0100
0100
0100
0100
0000
0000
0100
0100
0100
0100
0100
0100
0000
0000
0000
ENDCHAR
STARTCHAR a3ac
ENCODING 41900 
SWIDTH 495 0
DWIDTH 18 0
BBX 18 19 0 0
BITMAP 
0000
0000
0000
0000
0000
0000
0000
0000
0000
0000
0000
0000
3000
3000
1000
2000
0000
0000
0000
ENDCHAR
STARTCHAR a3a5
ENCODING 41893 
SWIDTH 495 0
DWIDTH 18 0
BBX 18 19 0 0
BITMAP 
0000
0000
1c02
2204
4108
4110
4120
2240
1c80
0138
0244
0482
0882
1082
2044
4038
0000
0000
0000
ENDCHAR
STARTCHAR a3df
ENCODING 41951 
SWIDTH 495 0
DWIDTH 18 0
BBX 18 19 0 0
BITMAP 
0000
0000
0000
0000
0000
0000
0000
0000
0000
0000
0000
0000
0000
0000
0000
0000
7ffe
0000
0000
ENDCHAR
STARTCHAR a3be
ENCODING 41918 
SWIDTH 495 0
DWIDTH 18 0
BBX 18 19 0 0
BITMAP 
0000
0000
0000
0000
3000
0c00
0300
00c0
0030
000c
0030
00c0
0300
0c00
3000
0000
0000
0000
0000
ENDCHAR
STARTCHAR a3bf
ENCODING 41919 
SWIDTH 495 0
DWIDTH 18 0
BBX 18 19 0 0
BITMAP 
0000
0000
07c0
0820
1010
1010
1020
0040
0080
0100
0100
0100
0000
0100
0380
0100
0000
0000
0000
ENDCHAR
STARTCHAR a3e0
ENCODING 41952 
SWIDTH 495 0
DWIDTH 18 0
BBX 18 19 0 0
BITMAP 
0000
0200
0100
0080
0000
0000
0000
0000
0000
0000
0000
0000
0000
0000
0000
0000
0000
0000
0000
ENDCHAR
STARTCHAR a3ba
ENCODING 41914 
SWIDTH 495 0
DWIDTH 18 0
BBX 18 19 0 0
BITMAP 
0000
0000
0000
0180
0180
0000
0000
0000
0000
0000
0000
0180
0180
0000
0000
0000
0000
0000
0000
ENDCHAR
STARTCHAR a3a3
ENCODING 41891 
SWIDTH 495 0
DWIDTH 18 0
BBX 18 19 0 0
BITMAP 
0000
0000
0810
0810
0810
7ffe
0810
0810
0810
0810
0810
0810
7ffe
0810
0810
0810
0000
0000
0000
ENDCHAR
STARTCHAR a3c0
ENCODING 41920 
SWIDTH 495 0
DWIDTH 18 0
BBX 18 19 0 0
BITMAP 
0000
0000
0ff0
1008
2004
4002
41c2
4222
4422
4822
4822
4862
47a2
201c
1000
0ff0
0000
0000
0000
ENDCHAR
STARTCHAR a3a7
ENCODING 41895 
SWIDTH 495 0
DWIDTH 18 0
BBX 18 19 0 0
BITMAP 
0000
0180
0180
0180
0000
0000
0000
0000
0000
0000
0000
0000
0000
0000
0000
0000
0000
0000
0000
ENDCHAR
STARTCHAR a3bd
ENCODING 41917 
SWIDTH 495 0
DWIDTH 18 0
BBX 18 19 0 0
BITMAP 
0000
0000
0000
0000
0000
0000
0000
3ffc
0000
3ffc
0000
0000
0000
0000
0000
0000
0000
0000
0000
ENDCHAR
STARTCHAR acfc
ENCODING 44284 
SWIDTH 495 0
DWIDTH 18 0
BBX 18 19 0 0
BITMAP 
0000
0660
0660
0660
0000
0000
0000
0000
0000
0000
0000
0000
0000
0000
0000
0000
0000
0000
0000
ENDCHAR
STARTCHAR a3e1
ENCODING 41953 
SWIDTH 495 0
DWIDTH 18 0
BBX 18 19 0 0
BITMAP 
0000
0000
0000
0000
07e0
0810
1008
0008
0fe8
1018
2008
2008
2008
2008
1014
0fe2
0000
0000
0000
ENDCHAR
STARTCHAR a3e2
ENCODING 41954 
SWIDTH 495 0
DWIDTH 18 0
BBX 18 19 0 0
BITMAP 
0000
1000
1000
1000
13e0
1410
1808
1004
1004
1004
1004
1004
1004
1808
1410
13e0
0000
0000
0000
ENDCHAR
STARTCHAR a3e3
ENCODING 41955 
SWIDTH 495 0
DWIDTH 18 0
BBX 18 19 0 0
BITMAP 
0000
0000
0000
0000
07e0
0810
1008
2004
2000
2000
2000
2000
2004
1008
0810
07e0
0000
0000
0000
ENDCHAR
STARTCHAR a3e4
ENCODING 41956 
SWIDTH 495 0
DWIDTH 18 0
BBX 18 19 0 0
BITMAP 
0000
0004
0004
0004
07e4
0814
100c
2004
2004
2004
2004
2004
2004
100c
0814
07e4
0000
0000
0000
ENDCHAR
STARTCHAR a3e5
ENCODING 41957 
SWIDTH 495 0
DWIDTH 18 0
BBX 18 19 0 0
BITMAP 
0000
0000
0000
0000
07e0
0810
1008
2004
2004
3ffc
2000
2000
2004
1008
0810
07e0
0000
0000
0000
ENDCHAR
STARTCHAR a3e6
ENCODING 41958 
SWIDTH 495 0
DWIDTH 18 0
BBX 18 19 0 0
BITMAP 
0000
00f0
0100
0200
1ff8
0200
0200
0200
0200
0200
0200
0200
0200
0200
0200
0200
0000
0000
0000
ENDCHAR
STARTCHAR a3e7
ENCODING 41959 
SWIDTH 495 0
DWIDTH 18 0
BBX 18 19 0 0
BITMAP 
0000
0000
0000
0000
07e4
0814
100c
2004
2004
2004
2004
100c
0814
07e4
0004
0008
07f0
0000
0000
ENDCHAR
STARTCHAR a3e8
ENCODING 41960 
SWIDTH 495 0
DWIDTH 18 0
BBX 18 19 0 0
BITMAP 
0000
2000
2000
2000
27e0
2810
3008
2004
2004
2004
2004
2004
2004
2004
2004
2004
0000
0000
0000
ENDCHAR
STARTCHAR a3e9
ENCODING 41961 
SWIDTH 495 0
DWIDTH 18 0
BBX 18 19 0 0
BITMAP 
0000
0080
0080
0080
0000
0080
0080
0080
0080
0080
0080
0080
0080
0080
0080
0080
0000
0000
0000
ENDCHAR
STARTCHAR a3ea
ENCODING 41962 
SWIDTH 495 0
DWIDTH 18 0
BBX 18 19 0 0
BITMAP 
0000
0040
0040
0040
0000
0040
0040
0040
0040
0040
0040
0040
0040
0080
0100
0e00
0000
0000
0000
ENDCHAR
STARTCHAR a3eb
ENCODING 41963 
SWIDTH 495 0
DWIDTH 18 0
BBX 18 19 0 0
BITMAP 
0000
0800
0800
0800
0800
0800
0820
0840
0880
0900
0a00
0d00
0880
0840
0820
0810
0000
0000
0000
ENDCHAR
STARTCHAR a3ec
ENCODING 41964 
SWIDTH 495 0
DWIDTH 18 0
BBX 18 19 0 0
BITMAP 
0000
0100
0100
0100
0100
0100
0100
0100
0100
0100
0100
0100
0100
0100
0100
01c0
0000
0000
0000
ENDCHAR
STARTCHAR a3ed
ENCODING 41965 
SWIDTH 495 0
DWIDTH 18 0
BBX 18 19 0 0
BITMAP 
0000
0000
0000
0000
9e3c
a142
c081
8081
8081
8081
8081
8081
8081
8081
8081
8081
0000
0000
0000
ENDCHAR
STARTCHAR a3ee
ENCODING 41966 
SWIDTH 495 0
DWIDTH 18 0
BBX 18 19 0 0
BITMAP 
0000
0000
0000
0000
27e0
2810
3008
2004
2004
2004
2004
2004
2004
2004
2004
2004
0000
0000
0000
ENDCHAR
STARTCHAR a3ef
ENCODING 41967 
SWIDTH 495 0
DWIDTH 18 0
BBX 18 19 0 0
BITMAP 
0000
0000
0000
0000
07e0
0810
1008
2004
2004
2004
2004
2004
2004
1008
0810
07e0
0000
0000
0000
ENDCHAR
STARTCHAR a3f0
ENCODING 41968 
SWIDTH 495 0
DWIDTH 18 0
BBX 18 19 0 0
BITMAP 
0000
0000
0000
0000
27e0
2810
3008
2004
2004
2004
2004
2004
3008
2810
27e0
2000
2000
0000
0000
ENDCHAR
STARTCHAR a3f1
ENCODING 41969 
SWIDTH 495 0
DWIDTH 18 0
BBX 18 19 0 0
BITMAP 
0000
0000
0000
0000
07e4
0814
100c
2004
2004
2004
2004
2004
100c
0814
07e4
0004
0004
0000
0000
ENDCHAR
STARTCHAR a3f2
ENCODING 41970 
SWIDTH 495 0
DWIDTH 18 0
BBX 18 19 0 0
BITMAP 
0000
0000
0000
0000
09f0
0a00
0c00
0800
0800
0800
0800
0800
0800
0800
0800
0800
0000
0000
0000
ENDCHAR
STARTCHAR a1ad
ENCODING 41389 
SWIDTH 495 0
DWIDTH 18 0
BBX 18 19 0 0
BITMAP 
0000
0000
0000
0000
0000
0000
0000
0000
1e02
2184
4078
0000
0000
0000
0000
0000
0000
0000
0000
ENDCHAR
STARTCHAR a3f3
ENCODING 41971 
SWIDTH 495 0
DWIDTH 18 0
BBX 18 19 0 0
BITMAP 
0000
0000
0000
0000
07e0
0810
1008
1000
0800
07f0
0008
0004
2004
2004
1008
0ff0
0000
0000
0000
ENDCHAR
STARTCHAR a3f4
ENCODING 41972 
SWIDTH 495 0
DWIDTH 18 0
BBX 18 19 0 0
BITMAP 
0000
0200
0200
0200
1ff8
0200
0200
0200
0200
0200
0200
0200
0200
0208
0110
00e0
0000
0000
0000
ENDCHAR
STARTCHAR a3f5
ENCODING 41973 
SWIDTH 495 0
DWIDTH 18 0
BBX 18 19 0 0
BITMAP 
0000
0000
0000
0000
2004
2004
2004
2004
2004
2004
2004
2004
2004
100c
0814
07e4
0000
0000
0000
ENDCHAR
STARTCHAR a3f6
ENCODING 41974 
SWIDTH 495 0
DWIDTH 18 0
BBX 18 19 0 0
BITMAP 
0000
0000
0000
0000
2008
2008
2008
1010
1010
0820
0820
0820
0440
0440
0280
0100
0000
0000
0000
ENDCHAR
STARTCHAR a3f7
ENCODING 41975 
SWIDTH 495 0
DWIDTH 18 0
BBX 18 19 0 0
BITMAP 
0000
0000
0000
0000
8002
8002
8002
4104
4104
4104
2288
2288
2288
1450
1450
0820
0000
0000
0000
ENDCHAR
STARTCHAR a3f8
ENCODING 41976 
SWIDTH 495 0
DWIDTH 18 0
BBX 18 19 0 0
BITMAP 
0000
0000
0000
0000
1008
1008
0810
0420
0240
0180
0180
0240
0420
0810
1008
1008
0000
0000
0000
ENDCHAR
STARTCHAR a3f9
ENCODING 41977 
SWIDTH 495 0
DWIDTH 18 0
BBX 18 19 0 0
BITMAP 
0000
0000
0000
0000
2004
1008
1008
0810
0810
0420
0420
0240
0240
0180
0100
0200
1c00
0000
0000
ENDCHAR
STARTCHAR a3fa
ENCODING 41978 
SWIDTH 495 0
DWIDTH 18 0
BBX 18 19 0 0
BITMAP 
0000
0000
0000
0000
0ff8
0008
0010
0020
0040
0080
0100
0200
0400
0800
1000
1ffc
0000
0000
0000
ENDCHAR
STARTCHAR a3fb
ENCODING 41979 
SWIDTH 495 0
DWIDTH 18 0
BBX 18 19 0 0
BITMAP 
0000
0006
0008
0008
0008
0008
0008
0010
0020
0020
0010
0008
0008
0008
0008
0008
0006
0000
0000
ENDCHAR
STARTCHAR a3c1
ENCODING 41921 
SWIDTH 495 0
DWIDTH 18 0
BBX 18 19 0 0
BITMAP 
0000
0000
0180
0240
0240
0420
0420
0810
0810
1008
1008
3ffc
2004
4002
4002
4002
0000
0000
0000
ENDCHAR
STARTCHAR a3c2
ENCODING 41922 
SWIDTH 495 0
DWIDTH 18 0
BBX 18 19 0 0
BITMAP 
0000
0000
3ff0
2008
2004
2004
2004
2008
3ff0
2008
2004
2004
2004
2004
2008
3ff0
0000
0000
0000
ENDCHAR
STARTCHAR a3c3
ENCODING 41923 
SWIDTH 495 0
DWIDTH 18 0
BBX 18 19 0 0
BITMAP 
0000
0000
0ff0
1008
2004
4002
4000
4000
4000
4000
4000
4000
4002
2004
1008
0ff0
0000
0000
0000
ENDCHAR
STARTCHAR a3c4
ENCODING 41924 
SWIDTH 495 0
DWIDTH 18 0
BBX 18 19 0 0
BITMAP 
0000
0000
3ff0
2008
2004
2002
2002
2002
2002
2002
2002
2002
2002
2004
2008
3ff0
0000
0000
0000
ENDCHAR
STARTCHAR a3c5
ENCODING 41925 
SWIDTH 495 0
DWIDTH 18 0
BBX 18 19 0 0
BITMAP 
0000
0000
3ffc
2000
2000
2000
2000
2000
3ff0
2000
2000
2000
2000
2000
2000
3ffc
0000
0000
0000
ENDCHAR
STARTCHAR a3c6
ENCODING 41926 
SWIDTH 495 0
DWIDTH 18 0
BBX 18 19 0 0
BITMAP 
0000
0000
3ffc
2000
2000
2000
2000
2000
3ff0
2000
2000
2000
2000
2000
2000
2000
0000
0000
0000
ENDCHAR
STARTCHAR a3c7
ENCODING 41927 
SWIDTH 495 0
DWIDTH 18 0
BBX 18 19 0 0
BITMAP 
0000
0000
0ff0
1008
2004
4002
4000
4000
4000
40fe
4002
4002
4002
2006
100a
0ff2
0000
0000
0000
ENDCHAR
STARTCHAR a3c8
ENCODING 41928 
SWIDTH 495 0
DWIDTH 18 0
BBX 18 19 0 0
BITMAP 
0000
0000
2004
2004
2004
2004
2004
2004
3ffc
2004
2004
2004
2004
2004
2004
2004
0000
0000
0000
ENDCHAR
STARTCHAR a3c9
ENCODING 41929 
SWIDTH 495 0
DWIDTH 18 0
BBX 18 19 0 0
BITMAP 
0000
0000
0380
0100
0100
0100
0100
0100
0100
0100
0100
0100
0100
0100
0100
0380
0000
0000
0000
ENDCHAR
STARTCHAR a3fd
ENCODING 41981 
SWIDTH 495 0
DWIDTH 18 0
BBX 18 19 0 0
BITMAP 
0000
6000
1000
1000
1000
1000
1000
0800
0400
0400
0800
1000
1000
1000
1000
1000
6000
0000
0000
ENDCHAR
STARTCHAR a3ca
ENCODING 41930 
SWIDTH 495 0
DWIDTH 18 0
BBX 18 19 0 0
BITMAP 
0000
0000
0008
0008
0008
0008
0008
0008
0008
2008
2008
2008
2008
1010
0820
07c0
0000
0000
0000
ENDCHAR
STARTCHAR a3cb
ENCODING 41931 
SWIDTH 495 0
DWIDTH 18 0
BBX 18 19 0 0
BITMAP 
0000
0000
1008
1010
1020
1040
1080
1100
1200
1500
1880
1040
1020
1010
1008
1004
0000
0000
0000
ENDCHAR
STARTCHAR a3cc
ENCODING 41932 
SWIDTH 495 0
DWIDTH 18 0
BBX 18 19 0 0
BITMAP 
0000
0000
1000
1000
1000
1000
1000
1000
1000
1000
1000
1000
1000
1000
1000
1ffc
0000
0000
0000
ENDCHAR
STARTCHAR a3cd
ENCODING 41933 
SWIDTH 495 0
DWIDTH 18 0
BBX 18 19 0 0
BITMAP 
0000
0000
c006
a00a
a00a
9012
9012
8822
8822
8442
8442
8282
8282
8102
8102
8002
0000
0000
0000
ENDCHAR
STARTCHAR a3ce
ENCODING 41934 
SWIDTH 495 0
DWIDTH 18 0
BBX 18 19 0 0
BITMAP 
0000
0000
3004
2804
2404
2404
2204
2204
2104
2084
2084
2044
2024
2024
2014
200c
0000
0000
0000
ENDCHAR
STARTCHAR a3cf
ENCODING 41935 
SWIDTH 495 0
DWIDTH 18 0
BBX 18 19 0 0
BITMAP 
0000
0000
0ff0
1008
2004
4002
4002
4002
4002
4002
4002
4002
4002
2004
1008
0ff0
0000
0000
0000
ENDCHAR
STARTCHAR a3d0
ENCODING 41936 
SWIDTH 495 0
DWIDTH 18 0
BBX 18 19 0 0
BITMAP 
0000
0000
3ff0
2008
2004
2004
2004
2004
2008
3ff0
2000
2000
2000
2000
2000
2000
0000
0000
0000
ENDCHAR
STARTCHAR a3d1
ENCODING 41937 
SWIDTH 495 0
DWIDTH 18 0
BBX 18 19 0 0
BITMAP 
0000
0000
0ff0
1008
2004
4002
4002
4002
4002
4002
4022
4012
400a
2004
100a
0ff1
0000
0000
0000
ENDCHAR
STARTCHAR a3d2
ENCODING 41938 
SWIDTH 495 0
DWIDTH 18 0
BBX 18 19 0 0
BITMAP 
0000
0000
3ff0
2008
2004
2004
2004
2004
2008
3ff0
2100
2080
2040
2020
2010
2008
0000
0000
0000
ENDCHAR
STARTCHAR a3dc
ENCODING 41948 
SWIDTH 495 0
DWIDTH 18 0
BBX 18 19 0 0
BITMAP 
0000
0000
4004
4004
4004
4104
2108
2108
fffe
2288
2288
1450
1450
1450
0820
0820
0000
0000
0000
ENDCHAR
STARTCHAR a3d3
ENCODING 41939 
SWIDTH 495 0
DWIDTH 18 0
BBX 18 19 0 0
BITMAP 
0000
0000
0ff0
1008
2004
2000
2000
1000
0ff0
0008
0004
0004
0004
2004
1008
0ff0
0000
0000
0000
ENDCHAR
STARTCHAR a3d4
ENCODING 41940 
SWIDTH 495 0
DWIDTH 18 0
BBX 18 19 0 0
BITMAP 
0000
0000
7ffc
0100
0100
0100
0100
0100
0100
0100
0100
0100
0100
0100
0100
0100
0000
0000
0000
ENDCHAR
STARTCHAR a3d5
ENCODING 41941 
SWIDTH 495 0
DWIDTH 18 0
BBX 18 19 0 0
BITMAP 
0000
0000
2004
2004
2004
2004
2004
2004
2004
2004
2004
2004
2004
1008
0810
07e0
0000
0000
0000
ENDCHAR
STARTCHAR a3d6
ENCODING 41942 
SWIDTH 495 0
DWIDTH 18 0
BBX 18 19 0 0
BITMAP 
0000
0000
4004
4004
4004
2008
2008
1010
1010
0820
0820
0440
0440
0280
0280
0100
0000
0000
0000
ENDCHAR
STARTCHAR a3d7
ENCODING 41943 
SWIDTH 495 0
DWIDTH 18 0
BBX 18 19 0 0
BITMAP 
0000
0000
8002
8002
8002
8102
4104
4104
4104
4104
2288
2288
2288
1450
1450
0820
0000
0000
0000
ENDCHAR
STARTCHAR a3d8
ENCODING 41944 
SWIDTH 495 0
DWIDTH 18 0
BBX 18 19 0 0
BITMAP 
0000
0000
700e
2004
1008
0810
0420
0240
0180
0180
0240
0420
0810
1008
2004
700e
0000
0000
0000
ENDCHAR
STARTCHAR a3d9
ENCODING 41945 
SWIDTH 495 0
DWIDTH 18 0
BBX 18 19 0 0
BITMAP 
0000
0000
8002
4004
2008
1010
0820
0440
0280
0100
0100
0100
0100
0100
0100
0100
0000
0000
0000
ENDCHAR
STARTCHAR a3da
ENCODING 41946 
SWIDTH 495 0
DWIDTH 18 0
BBX 18 19 0 0
BITMAP 
0000
0000
3ffe
0004
0008
0010
0020
0040
0080
0100
0200
0400
0800
1000
2000
7ffe
0000
0000
0000
ENDCHAR
STARTCHAR a3b0
ENCODING 41904 
SWIDTH 495 0
DWIDTH 18 0
BBX 18 19 0 0
BITMAP 
0000
0000
07e0
0810
1008
2004
2004
2004
2004
2004
2004
2004
2004
1008
0810
07e0
0000
0000
0000
ENDCHAR
STARTCHAR a3b1
ENCODING 41905 
SWIDTH 495 0
DWIDTH 18 0
BBX 18 19 0 0
BITMAP 
0000
0000
0180
0280
0480
0880
1080
0080
0080
0080
0080
0080
0080
0080
0080
0ff8
0000
0000
0000
ENDCHAR
STARTCHAR a3b2
ENCODING 41906 
SWIDTH 495 0
DWIDTH 18 0
BBX 18 19 0 0
BITMAP 
0000
0000
0fe0
1010
2008
0008
0008
0008
0010
03e0
0400
0800
1000
2000
2000
3ffc
0000
0000
0000
ENDCHAR
STARTCHAR a3b3
ENCODING 41907 
SWIDTH 495 0
DWIDTH 18 0
BBX 18 19 0 0
BITMAP 
0000
0000
0ff0
1008
2004
0004
0004
0008
03f0
0008
0004
0004
0004
2004
1008
0ff0
0000
0000
0000
ENDCHAR
STARTCHAR a3b4
ENCODING 41908 
SWIDTH 495 0
DWIDTH 18 0
BBX 18 19 0 0
BITMAP 
0000
0000
0070
0090
0110
0210
0410
0810
1010
2010
4010
4010
7ffc
0010
0010
0010
0000
0000
0000
ENDCHAR
STARTCHAR a3b5
ENCODING 41909 
SWIDTH 495 0
DWIDTH 18 0
BBX 18 19 0 0
BITMAP 
0000
0000
3ff8
2000
2000
2000
2000
27e0
2810
3008
0004
0004
0004
2008
1010
0fe0
0000
0000
0000
ENDCHAR
STARTCHAR a3b6
ENCODING 41910 
SWIDTH 495 0
DWIDTH 18 0
BBX 18 19 0 0
BITMAP 
0000
0000
07f0
0808
1004
2000
2000
27e0
2810
3008
2004
2004
2004
1008
0810
07e0
0000
0000
0000
ENDCHAR
STARTCHAR a3b7
ENCODING 41911 
SWIDTH 495 0
DWIDTH 18 0
BBX 18 19 0 0
BITMAP 
0000
0000
3ffc
2004
2004
2008
0010
0020
0040
0080
0080
0080
0080
0080
0080
0080
0000
0000
0000
ENDCHAR
STARTCHAR a3b8
ENCODING 41912 
SWIDTH 495 0
DWIDTH 18 0
BBX 18 19 0 0
BITMAP 
0000
0000
0ff0
1008
2004
2004
2004
1008
0ff0
1008
2004
2004
2004
2004
1008
0ff0
0000
0000
0000
ENDCHAR
STARTCHAR a3b9
ENCODING 41913 
SWIDTH 495 0
DWIDTH 18 0
BBX 18 19 0 0
BITMAP 
0000
0000
07e0
0810
1008
2004
2004
2004
100c
0814
07e4
0004
0004
2008
1010
0fe0
0000
0000
0000
ENDCHAR
STARTCHAR a4d5
ENCODING 42197 
SWIDTH 495 0
DWIDTH 18 0
BBX 18 19 0 0
BITMAP 
0000
0000
0000
0000
0000
0000
0000
0000
8080
8080
8080
8080
8080
8080
8080
8180
feff
0000
0000
ENDCHAR
STARTCHAR a4d6
ENCODING 42198 
SWIDTH 495 0
DWIDTH 18 0
BBX 18 19 0 0
BITMAP 
0000
0000
0000
0000
0000
0000
0000
0000
80ff
8080
8080
8080
8080
8080
8080
8180
feff
0000
0000
ENDCHAR
STARTCHAR a4d7
ENCODING 42199 
SWIDTH 495 0
DWIDTH 18 0
BBX 18 19 0 0
BITMAP 
0000
0000
0000
0000
0000
0000
0000
0010
8010
8010
8010
8010
8010
8028
8044
8082
fd01
0000
0000
ENDCHAR
STARTCHAR a4d8
ENCODING 42200 
SWIDTH 495 0
DWIDTH 18 0
BBX 18 19 0 0
BITMAP 
0000
0000
0000
0000
0000
0000
0000
0000
8010
8028
8028
8044
8044
8082
8082
8301
fdff
0000
0000
ENDCHAR
STARTCHAR a4d9
ENCODING 42201 
SWIDTH 495 0
DWIDTH 18 0
BBX 18 19 0 0
BITMAP 
0000
0000
0000
0000
0000
0000
0000
0004
ffc4
0844
0844
0844
f844
804a
8052
8051
fc61
0000
0000
ENDCHAR
STARTCHAR a4da
ENCODING 42202 
SWIDTH 495 0
DWIDTH 18 0
BBX 18 19 0 0
BITMAP 
0000
0000
0000
0000
0000
0000
0000
0000
ff7f
0140
0140
0140
ff40
8040
8040
8040
ffff
0000
0000
ENDCHAR
STARTCHAR a4db
ENCODING 42203 
SWIDTH 495 0
DWIDTH 18 0
BBX 18 19 0 0
BITMAP 
0000
0000
0000
0000
0000
0000
0000
0000
fa24
0a24
0a24
0be4
fa24
822a
822a
8231
fff1
0000
0000
ENDCHAR
STARTCHAR a4dc
ENCODING 42204 
SWIDTH 495 0
DWIDTH 18 0
BBX 18 19 0 0
BITMAP 
0000
0000
0000
0000
0000
0000
0000
0000
fe10
0228
0228
0244
fe44
8082
8082
8101
ffff
0000
0000
ENDCHAR
STARTCHAR a4dd
ENCODING 42205 
SWIDTH 495 0
DWIDTH 18 0
BBX 18 19 0 0
BITMAP 
0000
0000
0000
0000
0000
0000
0000
0000
feff
0200
023c
0242
fe81
8081
8081
8042
ff3c
0000
0000
ENDCHAR
STARTCHAR a4de
ENCODING 42206 
SWIDTH 495 0
DWIDTH 18 0
BBX 18 19 0 0
BITMAP 
0000
0000
0000
0000
0000
0000
0000
0000
fe81
8281
8281
82ff
8281
8281
8281
8281
feff
0000
0000
ENDCHAR
STARTCHAR a4df
ENCODING 42207 
SWIDTH 495 0
DWIDTH 18 0
BBX 18 19 0 0
BITMAP 
0000
0000
0000
0000
0000
0000
0000
0000
ff08
8108
8108
8108
8108
8114
8122
8141
ffc1
0000
0000
ENDCHAR
STARTCHAR a4e0
ENCODING 42208 
SWIDTH 495 0
DWIDTH 18 0
BBX 18 19 0 0
BITMAP 
0000
0000
0000
0000
0000
0000
0000
0000
fe10
8228
8228
8244
8244
8282
8282
8301
ffff
0000
0000
ENDCHAR
STARTCHAR a4e1
ENCODING 42209 
SWIDTH 495 0
DWIDTH 18 0
BBX 18 19 0 0
BITMAP 
0000
0000
0000
0000
0000
0000
0000
7ffe
4002
4002
7ffe
0000
0ff0
300c
6006
300c
0ff0
0000
0000
ENDCHAR
STARTCHAR a4e2
ENCODING 42210 
SWIDTH 495 0
DWIDTH 18 0
BBX 18 19 0 0
BITMAP 
0000
0000
0000
0000
0000
0000
0000
0000
817f
8101
8101
ff01
8101
8101
8101
8101
ff01
0000
0000
ENDCHAR
STARTCHAR a4e3
ENCODING 42211 
SWIDTH 495 0
DWIDTH 18 0
BBX 18 19 0 0
BITMAP 
0000
0000
0000
0000
0000
0000
0000
0000
817f
8140
8140
ff40
8140
8140
8140
8140
ff7f
0000
0000
ENDCHAR
STARTCHAR a4e4
ENCODING 42212 
SWIDTH 495 0
DWIDTH 18 0
BBX 18 19 0 0
BITMAP 
0000
0000
0000
0000
0000
0000
0000
0000
845f
8441
8441
fc41
8441
84a1
8511
8511
fe09
0000
0000
ENDCHAR
STARTCHAR a4e5
ENCODING 42213 
SWIDTH 495 0
DWIDTH 18 0
BBX 18 19 0 0
BITMAP 
0000
0000
0000
0000
0000
0000
0000
0000
849f
8490
8490
fc90
8490
8550
8550
8630
fe3f
0000
0000
ENDCHAR
STARTCHAR a4e6
ENCODING 42214 
SWIDTH 495 0
DWIDTH 18 0
BBX 18 19 0 0
BITMAP 
0000
0000
0000
0000
0000
0000
0000
0000
817f
8108
8108
ff08
8108
8114
8122
8141
ff81
0000
0000
ENDCHAR
STARTCHAR a4e7
ENCODING 42215 
SWIDTH 495 0
DWIDTH 18 0
BBX 18 19 0 0
BITMAP 
0000
0000
0000
0000
0000
0000
0000
0000
817f
8140
8140
ff7f
8140
8140
8140
8140
ff7f
0000
0000
ENDCHAR
STARTCHAR a4e8
ENCODING 42216 
SWIDTH 495 0
DWIDTH 18 0
BBX 18 19 0 0
BITMAP 
0000
0000
0000
0000
0000
0000
4002
4002
7ffe
4002
7ffe
0000
0ff0
300c
6006
300c
0ff0
0000
0000
ENDCHAR
STARTCHAR a4e9
ENCODING 42217 
SWIDTH 495 0
DWIDTH 18 0
BBX 18 19 0 0
BITMAP 
0000
0000
0000
0000
0000
0000
4282
4282
7efe
4282
7efe
0000
0ff0
300c
6006
300c
0ff0
0000
0000
ENDCHAR
STARTCHAR a4ea
ENCODING 42218 
SWIDTH 495 0
DWIDTH 18 0
BBX 18 19 0 0
BITMAP 
0000
0000
0000
0000
0000
0000
0000
0000
08ff
0801
0801
0801
0c01
1201
2101
4081
8041
0000
0000
ENDCHAR
STARTCHAR a4eb
ENCODING 42219 
SWIDTH 495 0
DWIDTH 18 0
BBX 18 19 0 0
BITMAP 
0000
0000
0000
0000
0000
0000
0000
0000
0840
0840
0840
0840
0840
1440
2240
4140
80ff
0000
0000
ENDCHAR
STARTCHAR a4ec
ENCODING 42220 
SWIDTH 495 0
DWIDTH 18 0
BBX 18 19 0 0
BITMAP 
0000
0000
0000
0000
0000
0000
0000
0000
087f
0840
0840
0840
0840
1440
2240
4140
80ff
0000
0000
ENDCHAR
STARTCHAR a4ed
ENCODING 42221 
SWIDTH 495 0
DWIDTH 18 0
BBX 18 19 0 0
BITMAP 
0000
0000
0000
0000
0000
0000
0000
0000
0841
0841
0841
087f
0841
1441
2241
4141
80ff
0000
0000
ENDCHAR
STARTCHAR a4ee
ENCODING 42222 
SWIDTH 495 0
DWIDTH 18 0
BBX 18 19 0 0
BITMAP 
0000
0000
0000
0000
0000
0000
0000
0000
08ff
0808
0808
0808
0808
1414
2222
4141
8081
0000
0000
ENDCHAR
STARTCHAR a4ef
ENCODING 42223 
SWIDTH 495 0
DWIDTH 18 0
BBX 18 19 0 0
BITMAP 
0000
0000
0000
0000
0000
0000
0000
0000
0180
0240
0420
0810
1008
2004
4002
8001
ffff
0000
0000
ENDCHAR
STARTCHAR a4f0
ENCODING 42224 
SWIDTH 495 0
DWIDTH 18 0
BBX 18 19 0 0
BITMAP 
0000
0000
0000
0000
0000
0000
0000
381c
4422
8241
8241
8241
8241
8241
8241
4422
381c
0000
0000
ENDCHAR
STARTCHAR a4f1
ENCODING 42225 
SWIDTH 495 0
DWIDTH 18 0
BBX 18 19 0 0
BITMAP 
0000
0000
0000
0000
0080
0080
0080
07e0
0810
1008
2004
2004
2004
2004
1008
0810
07e0
0000
0000
ENDCHAR
STARTCHAR a4f2
ENCODING 42226 
SWIDTH 495 0
DWIDTH 18 0
BBX 18 19 0 0
BITMAP 
0000
0000
0000
0000
0000
0000
1000
1010
3810
4410
8210
8210
8228
8244
8282
4482
3901
0000
0000
ENDCHAR
STARTCHAR a4f3
ENCODING 42227 
SWIDTH 495 0
DWIDTH 18 0
BBX 18 19 0 0
BITMAP 
0000
0000
0000
0000
0000
0000
1000
1010
3810
4428
8228
8244
8244
8282
8282
4501
39ff
0000
0000
ENDCHAR
STARTCHAR a4f4
ENCODING 42228 
SWIDTH 495 0
DWIDTH 18 0
BBX 18 19 0 0
BITMAP 
0000
0000
0000
0000
0000
0000
7ffe
1008
1008
1008
7ffe
0000
0ff0
300c
6006
300c
0ff0
0000
0000
ENDCHAR
STARTCHAR a4f5
ENCODING 42229 
SWIDTH 495 0
DWIDTH 18 0
BBX 18 19 0 0
BITMAP 
0000
0000
0000
0000
0000
0000
381c
0000
fe7f
0000
381c
4422
8241
8241
8241
4422
381e
0000
0000
ENDCHAR
STARTCHAR a4f6
ENCODING 42230 
SWIDTH 495 0
DWIDTH 18 0
BBX 18 19 0 0
BITMAP 
0000
0000
0000
0000
0000
0000
7ffe
0000
07e0
0810
1008
2004
2004
2004
1008
0810
07e0
0000
0000
ENDCHAR
STARTCHAR a4f7
ENCODING 42231 
SWIDTH 495 0
DWIDTH 18 0
BBX 18 19 0 0
BITMAP 
0000
0004
0004
0004
0004
0004
0007
0004
1084
1084
1087
1084
11fc
fe04
0004
0004
0004
0000
0000
ENDCHAR
STARTCHAR a4f8
ENCODING 42232 
SWIDTH 495 0
DWIDTH 18 0
BBX 18 19 0 0
BITMAP 
0000
0001
0009
0009
0009
000f
0009
0009
0009
108f
1089
1089
11f9
fe09
0009
0001
0001
0000
0000
ENDCHAR
STARTCHAR a4f9
ENCODING 42233 
SWIDTH 495 0
DWIDTH 18 0
BBX 18 19 0 0
BITMAP 
0000
0001
0001
0001
0001
0001
0001
0001
1081
1081
1081
1081
ffff
0001
0001
0001
0001
0000
0000
ENDCHAR
STARTCHAR a4fa
ENCODING 42234 
SWIDTH 495 0
DWIDTH 18 0
BBX 18 19 0 0
BITMAP 
0000
0001
0001
0001
0001
0001
0001
0001
fff1
1081
1081
109f
1081
1081
1081
1081
0081
0000
0000
ENDCHAR
STARTCHAR a4fb
ENCODING 42235 
SWIDTH 495 0
DWIDTH 18 0
BBX 18 19 0 0
BITMAP 
0000
0001
0009
0009
0009
0009
0009
0009
ffc9
2209
2279
2209
2209
2279
2209
2209
0201
0000
0000
ENDCHAR
STARTCHAR a4fc
ENCODING 42236 
SWIDTH 495 0
DWIDTH 18 0
BBX 18 19 0 0
BITMAP 
0000
0001
0001
0001
0001
0001
0001
0001
ffff
0841
0841
0841
0841
0841
0841
0841
0041
0000
0000
ENDCHAR
STARTCHAR a4fd
ENCODING 42237 
SWIDTH 495 0
DWIDTH 18 0
BBX 18 19 0 0
BITMAP 
0000
0000
0000
0000
0000
0000
0000
0000
0180
03c0
0180
0000
0000
0000
0000
0000
0000
0000
0000
ENDCHAR
STARTCHAR a4fe
ENCODING 42238 
SWIDTH 495 0
DWIDTH 18 0
BBX 18 19 0 0
BITMAP 
0000
0080
0080
0080
0080
0080
0080
0080
0080
0080
1880
3c80
1880
0080
0080
0080
0080
0000
0000
ENDCHAR
STARTCHAR aaa1
ENCODING 43681 
SWIDTH 495 0
DWIDTH 18 0
BBX 18 19 0 0
BITMAP 
0000
0000
0100
0100
0ff0
0100
0100
03f0
0528
0924
0944
0944
0488
0330
0000
0000
0000
0000
0000
ENDCHAR
STARTCHAR aaa2
ENCODING 43682 
SWIDTH 495 0
DWIDTH 18 0
BBX 18 19 0 0
BITMAP 
0000
0000
0400
0400
7ff0
0400
0400
0ff0
1448
2444
4442
4442
4282
4102
2204
1c08
0070
0000
0000
ENDCHAR
STARTCHAR aaa3
ENCODING 43683 
SWIDTH 495 0
DWIDTH 18 0
BBX 18 19 0 0
BITMAP 
0000
0000
0000
0800
0810
0808
0804
0804
0804
0804
0844
0480
0300
0000
0000
0000
0000
0000
0000
ENDCHAR
STARTCHAR aaa4
ENCODING 43684 
SWIDTH 495 0
DWIDTH 18 0
BBX 18 19 0 0
BITMAP 
0000
0000
0000
2000
2010
2008
2004
2004
2004
2004
2004
2004
2000
2100
1200
0c00
0000
0000
0000
ENDCHAR
STARTCHAR aaa5
ENCODING 43685 
SWIDTH 495 0
DWIDTH 18 0
BBX 18 19 0 0
BITMAP 
0000
0000
01f0
0000
0000
07f8
0004
0004
0004
0004
0008
0010
0020
03c0
0000
0000
0000
0000
0000
ENDCHAR
STARTCHAR aaa6
ENCODING 43686 
SWIDTH 495 0
DWIDTH 18 0
BBX 18 19 0 0
BITMAP 
0000
0000
0000
0fe0
0000
0000
3ff0
0008
0004
0004
0004
0004
0008
0010
0020
0040
0780
0000
0000
ENDCHAR
STARTCHAR aaa7
ENCODING 43687 
SWIDTH 495 0
DWIDTH 18 0
BBX 18 19 0 0
BITMAP 
0000
0000
03e0
0000
0000
0ff0
0020
0040
0080
01c0
0220
0422
0822
101c
0000
0000
0000
0000
0000
ENDCHAR
STARTCHAR aaa8
ENCODING 43688 
SWIDTH 495 0
DWIDTH 18 0
BBX 18 19 0 0
BITMAP 
0000
0000
0000
0fe0
0000
0000
3ff0
0020
0040
0080
0100
0380
0440
0840
1041
2041
403e
0000
0000
ENDCHAR
STARTCHAR aaa9
ENCODING 43689 
SWIDTH 495 0
DWIDTH 18 0
BBX 18 19 0 0
BITMAP 
0000
0000
0088
0084
0ff2
0080
0080
03f0
0488
0884
0884
0884
0488
0330
0000
0000
0000
0000
0000
ENDCHAR
STARTCHAR aaaa
ENCODING 43690 
SWIDTH 495 0
DWIDTH 18 0
BBX 18 19 0 0
BITMAP 
0000
0000
0210
0208
0204
3fe2
0200
0200
0200
1ff0
2208
4204
4204
4204
4204
2208
1c70
0000
0000
ENDCHAR
STARTCHAR aaab
ENCODING 43691 
SWIDTH 495 0
DWIDTH 18 0
BBX 18 19 0 0
BITMAP 
0000
0000
0400
0408
0404
0402
7fe2
0412
0412
0412
0410
0410
0810
1010
2010
4120
00c0
0000
0000
ENDCHAR
STARTCHAR aaac
ENCODING 43692 
SWIDTH 495 0
DWIDTH 18 0
BBX 18 19 0 0
BITMAP 
0000
0005
0405
0400
0408
0404
7fe2
0412
0412
0412
0412
0410
0810
1010
2010
4120
00c0
0000
0000
ENDCHAR
STARTCHAR aaad
ENCODING 43693 
SWIDTH 495 0
DWIDTH 18 0
BBX 18 19 0 0
BITMAP 
0000
0000
0020
0020
7ffe
0020
0020
7ffe
0020
0020
1fa0
2060
4020
4000
4000
2000
1ff0
0000
0000
ENDCHAR
STARTCHAR aaae
ENCODING 43694 
SWIDTH 495 0
DWIDTH 18 0
BBX 18 19 0 0
BITMAP 
0000
0005
0025
0020
7ffe
0020
0020
7ffe
0020
0020
1fa0
2060
4020
4000
4000
2000
1ff0
0000
0000
ENDCHAR
STARTCHAR aaaf
ENCODING 43695 
SWIDTH 495 0
DWIDTH 18 0
BBX 18 19 0 0
BITMAP 
0000
0020
0020
0040
0080
0100
0200
0400
0800
0800
0400
0200
0100
0080
0040
0020
0010
0000
0000
ENDCHAR
STARTCHAR aab0
ENCODING 43696 
SWIDTH 495 0
DWIDTH 18 0
BBX 18 19 0 0
BITMAP 
0000
0025
0045
0080
0100
0200
0400
0800
1000
1000
0800
0400
0200
0100
0080
0040
0020
0000
0000
ENDCHAR
STARTCHAR aab1
ENCODING 43697 
SWIDTH 495 0
DWIDTH 18 0
BBX 18 19 0 0
BITMAP 
0000
0000
0010
4010
4010
4010
4ffe
4010
4010
4010
4010
4010
4010
4810
5020
2040
0380
0000
0000
ENDCHAR
STARTCHAR aab2
ENCODING 43698 
SWIDTH 495 0
DWIDTH 18 0
BBX 18 19 0 0
BITMAP 
0000
0005
0015
4010
4010
4010
4ffe
4010
4010
4010
4010
4010
4010
4810
5020
2040
0780
0000
0000
ENDCHAR
STARTCHAR aab3
ENCODING 43699 
SWIDTH 495 0
DWIDTH 18 0
BBX 18 19 0 0
BITMAP 
0000
0000
0000
1ffc
0008
0010
0020
0000
0800
1000
2000
4000
4000
4002
2004
1ff8
0000
0000
0000
ENDCHAR
STARTCHAR aab4
ENCODING 43700 
SWIDTH 495 0
DWIDTH 18 0
BBX 18 19 0 0
BITMAP 
0000
0005
0005
0000
1ffc
0008
0010
0020
0000
0800
1000
2000
4000
4000
4002
2004
1ff8
0000
0000
ENDCHAR
STARTCHAR aab5
ENCODING 43701 
SWIDTH 495 0
DWIDTH 18 0
BBX 18 19 0 0
BITMAP 
0000
0000
0020
0020
0020
7ffe
0020
0020
0020
1fa0
2060
4020
4000
4000
4000
2000
1ff0
0000
0000
ENDCHAR
STARTCHAR aab6
ENCODING 43702 
SWIDTH 495 0
DWIDTH 18 0
BBX 18 19 0 0
BITMAP 
0000
0005
0025
0020
0020
7ffe
0020
0020
0020
1fa0
2060
4020
4000
4000
4000
2000
1ff0
0000
0000
ENDCHAR
STARTCHAR aab7
ENCODING 43703 
SWIDTH 495 0
DWIDTH 18 0
BBX 18 19 0 0
BITMAP 
0000
0000
1000
1000
1000
1000
1000
1000
1000
1002
1002
1002
1002
1004
0808
0410
03e0
0000
0000
ENDCHAR
STARTCHAR aab8
ENCODING 43704 
SWIDTH 495 0
DWIDTH 18 0
BBX 18 19 0 0
BITMAP 
0000
0000
1000
1050
1050
1000
1000
1000
1000
1002
1002
1002
1002
1004
0808
0410
03e0
0000
0000
ENDCHAR
STARTCHAR aab9
ENCODING 43705 
SWIDTH 495 0
DWIDTH 18 0
BBX 18 19 0 0
BITMAP 
0000
0000
0020
0020
0020
7ffe
0020
0020
07a0
0860
0820
0860
07a0
0020
0020
0040
0780
0000
0000
ENDCHAR
STARTCHAR aaba
ENCODING 43706 
SWIDTH 495 0
DWIDTH 18 0
BBX 18 19 0 0
BITMAP 
0000
0005
0025
0020
0020
7ffe
0020
0020
07a0
0860
0820
0860
07a0
0020
0020
0040
0780
0000
0000
ENDCHAR
STARTCHAR aabb
ENCODING 43707 
SWIDTH 495 0
DWIDTH 18 0
BBX 18 19 0 0
BITMAP 
0000
0000
0808
0808
0808
0808
ffff
0808
0808
0888
0848
0830
0800
0800
0800
0400
03f8
0000
0000
ENDCHAR
STARTCHAR aabc
ENCODING 43708 
SWIDTH 495 0
DWIDTH 18 0
BBX 18 19 0 0
BITMAP 
0000
0005
0815
0810
0810
0810
ffff
0810
0810
0910
0890
0860
0800
0800
0800
0400
03f8
0000
0000
ENDCHAR
STARTCHAR aabd
ENCODING 43709 
SWIDTH 495 0
DWIDTH 18 0
BBX 18 19 0 0
BITMAP 
0000
0000
0000
1ff0
0020
0040
0080
0100
7ffe
0040
0080
0100
0200
0200
0200
0100
00f8
0000
0000
ENDCHAR
STARTCHAR aabe
ENCODING 43710 
SWIDTH 495 0
DWIDTH 18 0
BBX 18 19 0 0
BITMAP 
0000
0005
0005
1ff0
0020
0040
0080
0100
7ffe
0040
0080
0100
0200
0200
0200
0100
00f8
0000
0000
ENDCHAR
STARTCHAR aabf
ENCODING 43711 
SWIDTH 495 0
DWIDTH 18 0
BBX 18 19 0 0
BITMAP 
0000
0000
0800
0800
0800
7ff0
0800
0800
08fc
0808
0810
1100
2200
4200
0200
0100
00fe
0000
0000
ENDCHAR
STARTCHAR aac0
ENCODING 43712 
SWIDTH 495 0
DWIDTH 18 0
BBX 18 19 0 0
BITMAP 
0000
000a
080a
0800
0800
7ff0
0800
0800
08fc
0808
0810
1100
2200
4200
0200
0100
00fe
0000
0000
ENDCHAR
STARTCHAR aac1
ENCODING 43713 
SWIDTH 495 0
DWIDTH 18 0
BBX 18 19 0 0
BITMAP 
0000
0000
0800
0800
0800
7ffe
0800
0800
0800
0bf0
0c08
0804
0004
0004
0004
0808
07f0
0000
0000
ENDCHAR
STARTCHAR aac2
ENCODING 43714 
SWIDTH 495 0
DWIDTH 18 0
BBX 18 19 0 0
BITMAP 
0000
000a
080a
0800
0800
7ffe
0800
0800
0800
0bf0
0c08
0804
0004
0004
0004
0808
07f0
0000
0000
ENDCHAR
STARTCHAR aac3
ENCODING 43715 
SWIDTH 495 0
DWIDTH 18 0
BBX 18 19 0 0
BITMAP 
0000
0000
0000
1fe0
0010
0008
0004
0004
0004
0008
0010
01e0
0000
0000
0000
0000
0000
0000
0000
ENDCHAR
STARTCHAR aac4
ENCODING 43716 
SWIDTH 495 0
DWIDTH 18 0
BBX 18 19 0 0
BITMAP 
0000
0000
0000
0000
0000
7ff0
0008
0004
0002
0002
0002
0002
0002
0004
0008
03f0
0000
0000
0000
ENDCHAR
STARTCHAR aac5
ENCODING 43717 
SWIDTH 495 0
DWIDTH 18 0
BBX 18 19 0 0
BITMAP 
0000
0005
0005
0000
0000
7ff0
0008
0004
0002
0002
0002
0002
0002
0004
0008
03f0
0000
0000
0000
ENDCHAR
STARTCHAR aac6
ENCODING 43718 
SWIDTH 495 0
DWIDTH 18 0
BBX 18 19 0 0
BITMAP 
0000
0000
0000
7ffe
0010
0020
0040
0080
0100
0200
0200
0200
0200
0100
0080
0040
0038
0000
0000
ENDCHAR
STARTCHAR aac7
ENCODING 43719 
SWIDTH 495 0
DWIDTH 18 0
BBX 18 19 0 0
BITMAP 
0000
000a
000a
0000
7ffe
0040
0080
0100
0200
0400
0400
0400
0400
0200
0100
0080
0070
0000
0000
ENDCHAR
STARTCHAR aac8
ENCODING 43720 
SWIDTH 495 0
DWIDTH 18 0
BBX 18 19 0 0
BITMAP 
0000
0000
0100
0100
0100
0100
0102
0104
0ff8
1000
2000
4000
4000
4000
2000
1000
0ff8
0000
0000
ENDCHAR
STARTCHAR aac9
ENCODING 43721 
SWIDTH 495 0
DWIDTH 18 0
BBX 18 19 0 0
BITMAP 
0000
000a
010a
0100
0100
0100
0102
0104
0ff8
1000
2000
4000
4000
4000
2000
1000
0ff8
0000
0000
ENDCHAR
STARTCHAR aaca
ENCODING 43722 
SWIDTH 495 0
DWIDTH 18 0
BBX 18 19 0 0
BITMAP 
0000
0000
0400
0400
0400
7ff0
0400
041f
0410
0810
1010
21f0
4218
0414
0412
0220
01c0
0000
0000
ENDCHAR
STARTCHAR aacb
ENCODING 43723 
SWIDTH 495 0
DWIDTH 18 0
BBX 18 19 0 0
BITMAP 
0000
0000
4000
4ffc
4004
4008
4010
4000
4080
4100
4200
4400
4400
4400
4200
51fe
2000
0000
0000
ENDCHAR
STARTCHAR aacc
ENCODING 43724 
SWIDTH 495 0
DWIDTH 18 0
BBX 18 19 0 0
BITMAP 
0000
0000
0880
0880
0880
1ff0
2888
4884
4882
4882
4882
4882
4532
424a
2444
184a
0031
0000
0000
ENDCHAR
STARTCHAR aacd
ENCODING 43725 
SWIDTH 495 0
DWIDTH 18 0
BBX 18 19 0 0
BITMAP 
0000
0000
0800
0800
0800
0870
7888
0904
0a02
0c02
0802
1802
283a
4846
0842
0845
0838
0000
0000
ENDCHAR
STARTCHAR aace
ENCODING 43726 
SWIDTH 495 0
DWIDTH 18 0
BBX 18 19 0 0
BITMAP 
0000
0000
07e0
0810
1108
2104
4102
4102
4102
4102
4102
4102
4102
4204
2408
1810
00e0
0000
0000
ENDCHAR
STARTCHAR aacf
ENCODING 43727 
SWIDTH 495 0
DWIDTH 18 0
BBX 18 19 0 0
BITMAP 
0000
0000
4010
4010
4010
4ffe
4010
4010
4010
4010
4010
41f0
4218
4414
5412
2220
01c0
0000
0000
ENDCHAR
STARTCHAR aad0
ENCODING 43728 
SWIDTH 495 0
DWIDTH 18 0
BBX 18 19 0 0
BITMAP 
0000
0005
4015
4010
4010
4ffe
4010
4010
4010
4010
4010
41f0
4218
4414
5412
2220
01c0
0000
0000
ENDCHAR
STARTCHAR aad1
ENCODING 43729 
SWIDTH 495 0
DWIDTH 18 0
BBX 18 19 0 0
BITMAP 
0000
0006
4029
4029
4026
4020
4ffe
4020
4020
4020
4020
43e0
4430
4428
5424
2240
0180
0000
0000
ENDCHAR
STARTCHAR aad2
ENCODING 43730 
SWIDTH 495 0
DWIDTH 18 0
BBX 18 19 0 0
BITMAP 
0000
0000
0000
7f00
020e
040a
080a
100a
200a
200a
2009
2008
2008
2008
1010
0820
07c0
0000
0000
ENDCHAR
STARTCHAR aad3
ENCODING 43731 
SWIDTH 495 0
DWIDTH 18 0
BBX 18 19 0 0
BITMAP 
0000
0005
0005
7f00
020e
040a
080a
100a
200a
200a
2009
2008
2008
2008
1010
0820
07c0
0000
0000
ENDCHAR
STARTCHAR aad4
ENCODING 43732 
SWIDTH 495 0
DWIDTH 18 0
BBX 18 19 0 0
BITMAP 
0000
0006
0009
fe09
0406
0800
101c
2014
4014
4014
4014
4014
4012
4010
2020
1040
0f80
0000
0000
ENDCHAR
STARTCHAR aad5
ENCODING 43733 
SWIDTH 495 0
DWIDTH 18 0
BBX 18 19 0 0
BITMAP 
0000
0000
0000
1fe0
0040
0080
0100
0210
1108
1084
1042
2022
4022
8022
1020
0840
0780
0000
0000
ENDCHAR
STARTCHAR aad6
ENCODING 43734 
SWIDTH 495 0
DWIDTH 18 0
BBX 18 19 0 0
BITMAP 
0000
0005
0005
1fe0
0040
0080
0100
0210
1108
1084
1042
2022
4022
8022
1020
0840
0780
0000
0000
ENDCHAR
STARTCHAR aad7
ENCODING 43735 
SWIDTH 495 0
DWIDTH 18 0
BBX 18 19 0 0
BITMAP 
0000
0006
0009
1fe9
0046
0080
0100
0210
1108
1084
1042
2022
4022
8022
1020
0840
0780
0000
0000
ENDCHAR
STARTCHAR aad8
ENCODING 43736 
SWIDTH 495 0
DWIDTH 18 0
BBX 18 19 0 0
BITMAP 
0000
0000
0000
0000
0400
0a00
1100
2080
4040
8020
0010
0008
0004
0002
0000
0000
0000
0000
0000
ENDCHAR
STARTCHAR aad9
ENCODING 43737 
SWIDTH 495 0
DWIDTH 18 0
BBX 18 19 0 0
BITMAP 
0000
0000
0014
0014
0400
0a00
1100
2080
4040
8020
0010
0008
0004
0002
0000
0000
0000
0000
0000
ENDCHAR
STARTCHAR aada
ENCODING 43738 
SWIDTH 495 0
DWIDTH 18 0
BBX 18 19 0 0
BITMAP 
0000
000c
0012
0012
040c
0a00
1100
2080
4040
8020
0010
0008
0004
0002
0000
0000
0000
0000
0000
ENDCHAR
STARTCHAR aadb
ENCODING 43739 
SWIDTH 495 0
DWIDTH 18 0
BBX 18 19 0 0
BITMAP 
0000
0000
4000
4ffe
4010
4010
4010
4ffe
4010
4010
4010
41f0
4218
4414
5412
2220
01c0
0000
0000
ENDCHAR
STARTCHAR aadc
ENCODING 43740 
SWIDTH 495 0
DWIDTH 18 0
BBX 18 19 0 0
BITMAP 
0000
0005
4005
4000
4ffe
4010
4010
4010
4ffe
4010
4010
41f0
4218
4414
5412
2220
01c0
0000
0000
ENDCHAR
STARTCHAR aadd
ENCODING 43741 
SWIDTH 495 0
DWIDTH 18 0
BBX 18 19 0 0
BITMAP 
0000
0006
4009
4009
4ffe
4010
4010
4010
4ffe
4010
4010
41f0
4218
4414
5412
2220
01c0
0000
0000
ENDCHAR
STARTCHAR aade
ENCODING 43742 
SWIDTH 495 0
DWIDTH 18 0
BBX 18 19 0 0
BITMAP 
0000
0000
0040
0040
3ffe
0040
0040
0040
3ffe
0040
0040
0fc0
1060
2050
2048
1084
0f00
0000
0000
ENDCHAR
STARTCHAR aadf
ENCODING 43743 
SWIDTH 495 0
DWIDTH 18 0
BBX 18 19 0 0
BITMAP 
0000
0000
0000
3f00
0108
0108
0108
0108
1fff
2108
4108
4108
4108
4208
2410
1820
00c0
0000
0000
ENDCHAR
STARTCHAR aae0
ENCODING 43744 
SWIDTH 495 0
DWIDTH 18 0
BBX 18 19 0 0
BITMAP 
0000
0000
0408
0404
0402
7fe1
0400
0400
3400
4c00
8400
8404
4c02
3402
0402
0404
03f8
0000
0000
ENDCHAR
STARTCHAR aae1
ENCODING 43745 
SWIDTH 495 0
DWIDTH 18 0
BBX 18 19 0 0
BITMAP 
0000
0000
0440
0440
0440
0ff8
1444
2442
4441
4441
4441
4441
4281
2101
1202
0c04
0038
0000
0000
ENDCHAR
STARTCHAR aae2
ENCODING 43746 
SWIDTH 495 0
DWIDTH 18 0
BBX 18 19 0 0
BITMAP 
0000
0000
0800
0800
0800
7fe0
0800
0800
0808
7fe4
0802
0802
0802
0802
0404
0208
01f0
0000
0000
ENDCHAR
STARTCHAR aae3
ENCODING 43747 
SWIDTH 495 0
DWIDTH 18 0
BBX 18 19 0 0
BITMAP 
0000
0000
0220
0220
0220
1ff8
0224
0222
0222
0204
0238
0200
0200
0200
0000
0000
0000
0000
0000
ENDCHAR
STARTCHAR aae4
ENCODING 43748 
SWIDTH 495 0
DWIDTH 18 0
BBX 18 19 0 0
BITMAP 
0000
0000
0840
0840
0840
7ff8
0844
0842
0842
0802
0802
0904
08f8
0800
0800
0800
0800
0000
0000
ENDCHAR
STARTCHAR aae5
ENCODING 43749 
SWIDTH 495 0
DWIDTH 18 0
BBX 18 19 0 0
BITMAP 
0000
0000
0080
1080
13f0
1488
1884
1084
1084
1488
13f0
0080
0100
0e00
0000
0000
0000
0000
0000
ENDCHAR
STARTCHAR aae6
ENCODING 43750 
SWIDTH 495 0
DWIDTH 18 0
BBX 18 19 0 0
BITMAP 
0000
0000
0040
4040
47f8
4844
5042
6042
4042
4042
4042
4844
4448
03f0
0040
0080
0f00
0000
0000
ENDCHAR
STARTCHAR aae7
ENCODING 43751 
SWIDTH 495 0
DWIDTH 18 0
BBX 18 19 0 0
BITMAP 
0000
0000
0080
0080
0080
00fc
0080
0080
0080
0fc0
10a0
1090
1088
0f00
0000
0000
0000
0000
0000
ENDCHAR
STARTCHAR aae8
ENCODING 43752 
SWIDTH 495 0
DWIDTH 18 0
BBX 18 19 0 0
BITMAP 
0000
0000
0080
0080
0080
0080
00fe
0080
0080
0080
0080
1fc0
20a0
4090
4088
2104
1e00
0000
0000
ENDCHAR
STARTCHAR aae9
ENCODING 43753 
SWIDTH 495 0
DWIDTH 18 0
BBX 18 19 0 0
BITMAP 
0000
0000
0000
1fc0
0000
0000
2000
2000
2fe0
3010
2008
0004
0004
0004
0008
1010
0fe0
0000
0000
ENDCHAR
STARTCHAR aaea
ENCODING 43754 
SWIDTH 495 0
DWIDTH 18 0
BBX 18 19 0 0
BITMAP 
0000
0000
2010
2008
2008
2008
2008
2008
2008
2208
2408
1808
0008
0010
0020
0040
0380
0000
0000
ENDCHAR
STARTCHAR aaeb
ENCODING 43755 
SWIDTH 495 0
DWIDTH 18 0
BBX 18 19 0 0
BITMAP 
0000
0000
0000
1fe0
0040
0080
0100
0200
07f0
0808
1004
2302
4482
0842
0844
0448
03f0
0000
0000
ENDCHAR
STARTCHAR aaec
ENCODING 43756 
SWIDTH 495 0
DWIDTH 18 0
BBX 18 19 0 0
BITMAP 
0000
0000
0800
0800
0860
0890
7910
0a10
0c10
0810
0810
1810
2810
4810
0811
0812
080c
0000
0000
ENDCHAR
STARTCHAR aaed
ENCODING 43757 
SWIDTH 495 0
DWIDTH 18 0
BBX 18 19 0 0
BITMAP 
0000
0000
0000
1fe0
0040
0080
0100
0200
07f0
0808
1004
2002
4002
0002
0004
0408
03f0
0000
0000
ENDCHAR
STARTCHAR aaee
ENCODING 43758 
SWIDTH 495 0
DWIDTH 18 0
BBX 18 19 0 0
BITMAP 
0000
0000
0400
0400
0470
1c88
0504
0604
0404
0c04
1404
0404
0408
0430
0000
0000
0000
0000
0000
ENDCHAR
STARTCHAR aaef
ENCODING 43759 
SWIDTH 495 0
DWIDTH 18 0
BBX 18 19 0 0
BITMAP 
0000
0000
0800
0800
0800
0878
7884
0902
0a02
0c02
0802
1802
2802
4802
0802
0804
0878
0000
0000
ENDCHAR
STARTCHAR aaf0
ENCODING 43760 
SWIDTH 495 0
DWIDTH 18 0
BBX 18 19 0 0
BITMAP 
0000
0000
0000
3f80
0080
0080
07f8
0884
1082
2082
4082
4102
423a
4446
4842
3044
0038
0000
0000
ENDCHAR
STARTCHAR aaf1
ENCODING 43761 
SWIDTH 495 0
DWIDTH 18 0
BBX 18 19 0 0
BITMAP 
0000
0000
3fc0
0080
0100
0200
07e0
0810
1008
2788
0848
0890
07e0
0830
1448
2284
4102
0000
0000
ENDCHAR
STARTCHAR aaf2
ENCODING 43762 
SWIDTH 495 0
DWIDTH 18 0
BBX 18 19 0 0
BITMAP 
0000
0000
0200
0200
7ff8
0200
0200
0400
0fc0
1022
2024
43f8
0420
0820
0820
0400
03fc
0000
0000
ENDCHAR
STARTCHAR aaf3
ENCODING 43763 
SWIDTH 495 0
DWIDTH 18 0
BBX 18 19 0 0
BITMAP 
0000
0000
2000
2000
2000
2000
2000
2600
2900
3080
2080
2080
2082
2082
2082
2044
2038
0000
0000
ENDCHAR
STARTCHAR aba1
ENCODING 43937 
SWIDTH 495 0
DWIDTH 18 0
BBX 18 19 0 0
BITMAP 
0000
0000
0000
0ffc
0004
0084
0084
0088
00f0
0080
0080
0100
0600
0000
0000
0000
0000
0000
0000
ENDCHAR
STARTCHAR aba2
ENCODING 43938 
SWIDTH 495 0
DWIDTH 18 0
BBX 18 19 0 0
BITMAP 
0000
0000
0000
7ffe
0002
0002
0002
0104
0108
0170
0100
0100
0100
0200
0400
3800
0000
0000
0000
ENDCHAR
STARTCHAR aba3
ENCODING 43939 
SWIDTH 495 0
DWIDTH 18 0
BBX 18 19 0 0
BITMAP 
0000
0000
0004
0008
0010
0020
0060
00a0
0120
0220
0420
0020
0020
0020
0000
0000
0000
0000
0000
ENDCHAR
STARTCHAR aba4
ENCODING 43940 
SWIDTH 495 0
DWIDTH 18 0
BBX 18 19 0 0
BITMAP 
0000
0008
0010
0020
0040
0080
0180
0280
0480
0880
1080
2080
0080
0080
0080
0080
0000
0000
0000
ENDCHAR
STARTCHAR aba5
ENCODING 43941 
SWIDTH 495 0
DWIDTH 18 0
BBX 18 19 0 0
BITMAP 
0000
0000
0080
0080
0ffc
0804
0804
0804
0008
0010
0020
0040
0380
0000
0000
0000
0000
0000
0000
ENDCHAR
STARTCHAR aba6
ENCODING 43942 
SWIDTH 495 0
DWIDTH 18 0
BBX 18 19 0 0
BITMAP 
0000
0000
0100
0100
7ffc
4004
4004
4004
4004
0004
0008
0010
0020
0040
0080
0700
0000
0000
0000
ENDCHAR
STARTCHAR aba7
ENCODING 43943 
SWIDTH 495 0
DWIDTH 18 0
BBX 18 19 0 0
BITMAP 
0000
0000
0000
0ff8
0080
0080
0080
0080
0080
0080
0080
1ffc
0000
0000
0000
0000
0000
0000
0000
ENDCHAR
STARTCHAR aba8
ENCODING 43944 
SWIDTH 495 0
DWIDTH 18 0
BBX 18 19 0 0
BITMAP 
0000
0000
0000
0000
3ffc
0100
0100
0100
0100
0100
0100
0100
0100
0100
7ffe
0000
0000
0000
0000
ENDCHAR
STARTCHAR aba9
ENCODING 43945 
SWIDTH 495 0
DWIDTH 18 0
BBX 18 19 0 0
BITMAP 
0000
0000
0020
0020
0020
1ffc
00a0
0120
0220
0420
0820
1020
00e0
0000
0000
0000
0000
0000
0000
ENDCHAR
STARTCHAR abaa
ENCODING 43946 
SWIDTH 495 0
DWIDTH 18 0
BBX 18 19 0 0
BITMAP 
0000
0000
0040
0040
0040
7ffe
0040
00c0
0140
0240
0440
0840
1040
2040
4040
01c0
0000
0000
0000
ENDCHAR
STARTCHAR abab
ENCODING 43947 
SWIDTH 495 0
DWIDTH 18 0
BBX 18 19 0 0
BITMAP 
0000
0000
0200
0200
0200
7ffc
0204
0204
0204
0204
0204
0404
0804
1024
2014
400c
0000
0000
0000
ENDCHAR
STARTCHAR abac
ENCODING 43948 
SWIDTH 495 0
DWIDTH 18 0
BBX 18 19 0 0
BITMAP 
0000
000a
020a
0200
0200
7ffc
0204
0204
0204
0204
0204
0404
0804
1024
2014
400c
0000
0000
0000
ENDCHAR
STARTCHAR abad
ENCODING 43949 
SWIDTH 495 0
DWIDTH 18 0
BBX 18 19 0 0
BITMAP 
0000
0000
0100
0100
0100
0100
3ffc
0100
0100
0100
0100
7ffe
0100
0100
0100
0100
0100
0000
0000
ENDCHAR
STARTCHAR abae
ENCODING 43950 
SWIDTH 495 0
DWIDTH 18 0
BBX 18 19 0 0
BITMAP 
0000
0000
010a
010a
0100
0100
3ffc
0100
0100
0100
0100
7ffe
0100
0100
0100
0100
0100
0000
0000
ENDCHAR
STARTCHAR abaf
ENCODING 43951 
SWIDTH 495 0
DWIDTH 18 0
BBX 18 19 0 0
BITMAP 
0000
0000
0200
03fe
0402
0802
1002
6002
0004
0008
0010
0020
0040
0080
0100
1e00
0000
0000
0000
ENDCHAR
STARTCHAR abb0
ENCODING 43952 
SWIDTH 495 0
DWIDTH 18 0
BBX 18 19 0 0
BITMAP 
0000
0005
0205
0200
03fe
0402
0802
1002
6004
0008
0010
0020
0040
0080
0100
1e00
0000
0000
0000
ENDCHAR
STARTCHAR abb1
ENCODING 43953 
SWIDTH 495 0
DWIDTH 18 0
BBX 18 19 0 0
BITMAP 
0000
0000
0800
0800
0800
0fff
0820
1020
2020
4020
0020
0020
0040
0080
0100
0e00
0000
0000
0000
ENDCHAR
STARTCHAR abb2
ENCODING 43954 
SWIDTH 495 0
DWIDTH 18 0
BBX 18 19 0 0
BITMAP 
0000
000a
080a
0800
0800
0fff
0820
1020
2020
4020
0020
0020
0040
0080
0100
0e00
0000
0000
0000
ENDCHAR
STARTCHAR abb3
ENCODING 43955 
SWIDTH 495 0
DWIDTH 18 0
BBX 18 19 0 0
BITMAP 
0000
0000
0000
0000
3ffc
0004
0004
0004
0004
0004
0004
0004
0004
0004
3ffc
0000
0000
0000
0000
ENDCHAR
STARTCHAR abb4
ENCODING 43956 
SWIDTH 495 0
DWIDTH 18 0
BBX 18 19 0 0
BITMAP 
0000
000a
000a
0000
3ffc
0004
0004
0004
0004
0004
0004
0004
0004
0004
3ffc
0000
0000
0000
0000
ENDCHAR
STARTCHAR abb5
ENCODING 43957 
SWIDTH 495 0
DWIDTH 18 0
BBX 18 19 0 0
BITMAP 
0000
0000
1010
1010
1010
1010
fffe
1010
1010
1010
1010
0010
0020
0040
0080
0700
0000
0000
0000
ENDCHAR
STARTCHAR abb6
ENCODING 43958 
SWIDTH 495 0
DWIDTH 18 0
BBX 18 19 0 0
BITMAP 
0000
0005
1015
1010
1010
1010
fffe
1010
1010
1010
1010
0010
0020
0040
0080
0700
0000
0000
0000
ENDCHAR
STARTCHAR abb7
ENCODING 43959 
SWIDTH 495 0
DWIDTH 18 0
BBX 18 19 0 0
BITMAP 
0000
0000
0000
3f00
0000
0002
0002
0002
3f02
0004
0008
0010
0020
0040
0080
1f00
0000
0000
0000
ENDCHAR
STARTCHAR abb8
ENCODING 43960 
SWIDTH 495 0
DWIDTH 18 0
BBX 18 19 0 0
BITMAP 
0000
0005
0005
3f00
0000
0002
0002
0002
3f02
0004
0008
0010
0020
0040
0080
1f00
0000
0000
0000
ENDCHAR
STARTCHAR abb9
ENCODING 43961 
SWIDTH 495 0
DWIDTH 18 0
BBX 18 19 0 0
BITMAP 
0000
0000
0000
1ffc
0004
0008
0010
0020
0040
0080
0140
0220
0410
0808
1004
2002
0000
0000
0000
ENDCHAR
STARTCHAR abba
ENCODING 43962 
SWIDTH 495 0
DWIDTH 18 0
BBX 18 19 0 0
BITMAP 
0000
000a
000a
0000
1ff0
0010
0020
0040
0080
0100
0280
0440
0820
1010
2008
4004
0000
0000
0000
ENDCHAR
STARTCHAR abbb
ENCODING 43963 
SWIDTH 495 0
DWIDTH 18 0
BBX 18 19 0 0
BITMAP 
0000
0000
0800
0800
0800
7ffe
0802
0804
0808
0810
0800
0800
0800
0800
0400
03fc
0000
0000
0000
ENDCHAR
STARTCHAR abbc
ENCODING 43964 
SWIDTH 495 0
DWIDTH 18 0
BBX 18 19 0 0
BITMAP 
0000
0005
0805
0800
0800
7ffe
0802
0804
0808
0810
0800
0800
0800
0800
0400
03fc
0000
0000
0000
ENDCHAR
STARTCHAR abbd
ENCODING 43965 
SWIDTH 495 0
DWIDTH 18 0
BBX 18 19 0 0
BITMAP 
0000
0000
0002
2002
1002
0802
0402
0202
0002
0004
0008
0010
0020
0040
0080
0700
0000
0000
0000
ENDCHAR
STARTCHAR abbe
ENCODING 43966 
SWIDTH 495 0
DWIDTH 18 0
BBX 18 19 0 0
BITMAP 
0000
000a
000a
4000
2004
1004
0804
0404
0004
0004
0008
0010
0020
0040
0080
0700
0000
0000
0000
ENDCHAR
STARTCHAR abbf
ENCODING 43967 
SWIDTH 495 0
DWIDTH 18 0
BBX 18 19 0 0
BITMAP 
0000
0000
0200
03fe
0402
0802
1002
6202
0104
0088
0050
0020
0040
0080
0100
1e00
0000
0000
0000
ENDCHAR
STARTCHAR abc0
ENCODING 43968 
SWIDTH 495 0
DWIDTH 18 0
BBX 18 19 0 0
BITMAP 
0000
0005
0205
0200
03fe
0402
0802
1202
6104
0088
0050
0020
0040
0080
0100
1e00
0000
0000
0000
ENDCHAR
STARTCHAR abc1
ENCODING 43969 
SWIDTH 495 0
DWIDTH 18 0
BBX 18 19 0 0
BITMAP 
0000
0000
0008
1ff0
0080
0080
0080
0080
7ffe
0080
0080
0080
0100
0200
0400
3800
0000
0000
0000
ENDCHAR
STARTCHAR abc2
ENCODING 43970 
SWIDTH 495 0
DWIDTH 18 0
BBX 18 19 0 0
BITMAP 
0000
0005
0005
1ff0
0080
0080
0080
0080
7ffe
0080
0080
0080
0100
0200
0400
3800
0000
0000
0000
ENDCHAR
STARTCHAR abc3
ENCODING 43971 
SWIDTH 495 0
DWIDTH 18 0
BBX 18 19 0 0
BITMAP 
0000
0000
0000
0880
0884
0884
0884
0884
0004
0008
0010
0020
01c0
0000
0000
0000
0000
0000
0000
ENDCHAR
STARTCHAR abc4
ENCODING 43972 
SWIDTH 495 0
DWIDTH 18 0
BBX 18 19 0 0
BITMAP 
0000
0000
0000
2100
2102
2102
2102
2102
2102
0004
0008
0010
0020
0040
0080
0f00
0000
0000
0000
ENDCHAR
STARTCHAR abc5
ENCODING 43973 
SWIDTH 495 0
DWIDTH 18 0
BBX 18 19 0 0
BITMAP 
0000
0005
0005
2100
2102
2102
2102
2102
2102
0004
0008
0010
0020
0040
0080
0f00
0000
0000
0000
ENDCHAR
STARTCHAR abc6
ENCODING 43974 
SWIDTH 495 0
DWIDTH 18 0
BBX 18 19 0 0
BITMAP 
0000
0000
0000
3ffc
0000
0000
0000
7ffe
0080
0080
0080
0080
0100
0200
0400
3800
0000
0000
0000
ENDCHAR
STARTCHAR abc7
ENCODING 43975 
SWIDTH 495 0
DWIDTH 18 0
BBX 18 19 0 0
BITMAP 
0000
0005
0005
3ff0
0000
0000
0000
7ffe
0080
0080
0080
0080
0100
0200
0400
3800
0000
0000
0000
ENDCHAR
STARTCHAR abc8
ENCODING 43976 
SWIDTH 495 0
DWIDTH 18 0
BBX 18 19 0 0
BITMAP 
0000
0000
0400
0400
0400
0400
0400
0780
0440
0420
0410
0408
0400
0400
0400
0400
0400
0000
0000
ENDCHAR
STARTCHAR abc9
ENCODING 43977 
SWIDTH 495 0
DWIDTH 18 0
BBX 18 19 0 0
BITMAP 
0000
0014
0414
0400
0400
0400
0400
0780
0440
0420
0410
0408
0400
0400
0400
0400
0400
0000
0000
ENDCHAR
STARTCHAR abca
ENCODING 43978 
SWIDTH 495 0
DWIDTH 18 0
BBX 18 19 0 0
BITMAP 
0000
0000
0080
0080
0080
0080
7ffe
0080
0080
0080
0080
0080
0100
0200
0400
3800
0000
0000
0000
ENDCHAR
STARTCHAR abcb
ENCODING 43979 
SWIDTH 495 0
DWIDTH 18 0
BBX 18 19 0 0
BITMAP 
0000
0000
0000
0000
1ff8
0000
0000
0000
0000
0000
0000
0000
0000
0000
7ffe
0000
0000
0000
0000
ENDCHAR
STARTCHAR abcc
ENCODING 43980 
SWIDTH 495 0
DWIDTH 18 0
BBX 18 19 0 0
BITMAP 
0000
0000
0000
1ffc
0004
0004
0808
0410
0220
0140
0080
0140
0220
0410
0808
1000
0000
0000
0000
ENDCHAR
STARTCHAR abcd
ENCODING 43981 
SWIDTH 495 0
DWIDTH 18 0
BBX 18 19 0 0
BITMAP 
0000
0000
0100
0100
3ff8
0010
0020
0040
0080
0180
0340
0520
0910
1108
2104
0100
0100
0000
0000
ENDCHAR
STARTCHAR abce
ENCODING 43982 
SWIDTH 495 0
DWIDTH 18 0
BBX 18 19 0 0
BITMAP 
0000
0000
0008
0008
0008
0008
0010
0020
0040
0080
0100
0200
0400
0800
1000
6000
0000
0000
0000
ENDCHAR
STARTCHAR abcf
ENCODING 43983 
SWIDTH 495 0
DWIDTH 18 0
BBX 18 19 0 0
BITMAP 
0000
0000
0080
0040
0020
0810
0808
0804
0802
0802
0802
0802
1002
2002
4002
0002
0000
0000
0000
ENDCHAR
STARTCHAR abd0
ENCODING 43984 
SWIDTH 495 0
DWIDTH 18 0
BBX 18 19 0 0
BITMAP 
0000
0005
0085
0040
0020
0810
0808
0804
0802
0802
0802
0802
1002
2002
4002
0002
0000
0000
0000
ENDCHAR
STARTCHAR abd1
ENCODING 43985 
SWIDTH 495 0
DWIDTH 18 0
BBX 18 19 0 0
BITMAP 
0000
0006
0109
0089
0046
1020
1010
1008
1004
1004
1004
1004
2004
4004
8004
0004
0000
0000
0000
ENDCHAR
STARTCHAR abd2
ENCODING 43986 
SWIDTH 495 0
DWIDTH 18 0
BBX 18 19 0 0
BITMAP 
0000
0000
2000
2000
2004
2008
2010
3fe0
2000
2000
2000
2000
2000
2000
1000
0ffc
0000
0000
0000
ENDCHAR
STARTCHAR abd3
ENCODING 43987 
SWIDTH 495 0
DWIDTH 18 0
BBX 18 19 0 0
BITMAP 
0000
000a
200a
2000
2004
2008
2010
3fe0
2000
2000
2000
2000
2000
2000
1000
0ffc
0000
0000
0000
ENDCHAR
STARTCHAR abd4
ENCODING 43988 
SWIDTH 495 0
DWIDTH 18 0
BBX 18 19 0 0
BITMAP 
0000
0006
4009
4009
4006
4010
4020
7fc0
4000
4000
4000
4000
4000
4000
2000
1ff8
0000
0000
0000
ENDCHAR
STARTCHAR abd5
ENCODING 43989 
SWIDTH 495 0
DWIDTH 18 0
BBX 18 19 0 0
BITMAP 
0000
0000
0000
3ffe
0002
0002
0002
0004
0008
0010
0020
0040
0080
0100
0200
1c00
0000
0000
0000
ENDCHAR
STARTCHAR abd6
ENCODING 43990 
SWIDTH 495 0
DWIDTH 18 0
BBX 18 19 0 0
BITMAP 
0000
000a
000a
0000
3ffc
0004
0004
0004
0008
0010
0020
0040
0080
0100
0200
1c00
0000
0000
0000
ENDCHAR
STARTCHAR abd7
ENCODING 43991 
SWIDTH 495 0
DWIDTH 18 0
BBX 18 19 0 0
BITMAP 
0000
0006
0009
0009
7ffe
0008
0008
0008
0010
0020
0040
0080
0100
0200
0400
3800
0000
0000
0000
ENDCHAR
STARTCHAR abd8
ENCODING 43992 
SWIDTH 495 0
DWIDTH 18 0
BBX 18 19 0 0
BITMAP 
0000
0000
0000
0000
0400
0a00
1100
2080
4040
8020
0010
0008
0004
0002
0000
0000
0000
0000
0000
ENDCHAR
STARTCHAR abd9
ENCODING 43993 
SWIDTH 495 0
DWIDTH 18 0
BBX 18 19 0 0
BITMAP 
0000
0000
0014
0014
0400
0a00
1100
2080
4040
8020
0010
0008
0004
0002
0000
0000
0000
0000
0000
ENDCHAR
STARTCHAR abda
ENCODING 43994 
SWIDTH 495 0
DWIDTH 18 0
BBX 18 19 0 0
BITMAP 
0000
000c
0012
0012
040c
0a00
1100
2080
4040
8020
0010
0008
0004
0002
0000
0000
0000
0000
0000
ENDCHAR
STARTCHAR abdb
ENCODING 43995 
SWIDTH 495 0
DWIDTH 18 0
BBX 18 19 0 0
BITMAP 
0000
0000
0100
0100
0100
7ffc
0100
0100
0100
0920
1110
2108
4104
0100
0100
0100
0000
0000
0000
ENDCHAR
STARTCHAR abdc
ENCODING 43996 
SWIDTH 495 0
DWIDTH 18 0
BBX 18 19 0 0
BITMAP 
0000
000a
010a
0100
0100
7ffc
0100
0100
0100
0920
1110
2108
4104
0100
0100
0100
0000
0000
0000
ENDCHAR
STARTCHAR abdd
ENCODING 43997 
SWIDTH 495 0
DWIDTH 18 0
BBX 18 19 0 0
BITMAP 
0000
0006
0109
0109
0106
7ff8
0100
0100
0100
0920
1110
2108
4104
0100
0100
0100
0000
0000
0000
ENDCHAR
STARTCHAR abde
ENCODING 43998 
SWIDTH 495 0
DWIDTH 18 0
BBX 18 19 0 0
BITMAP 
0000
0000
0000
7ffe
0002
0002
0004
0008
0010
0820
0440
0280
0100
0080
0040
0020
0000
0000
0000
ENDCHAR
STARTCHAR abdf
ENCODING 43999 
SWIDTH 495 0
DWIDTH 18 0
BBX 18 19 0 0
BITMAP 
0000
0000
0000
1ff8
0004
0000
0000
0000
0ff0
0008
0000
0000
0000
0000
3ff8
0004
0002
0000
0000
ENDCHAR
STARTCHAR abe0
ENCODING 44000 
SWIDTH 495 0
DWIDTH 18 0
BBX 18 19 0 0
BITMAP 
0000
0000
0020
0040
0080
0100
0200
0400
0810
1008
2004
4002
4002
7ffe
0002
0002
0000
0000
0000
ENDCHAR
STARTCHAR abe1
ENCODING 44001 
SWIDTH 495 0
DWIDTH 18 0
BBX 18 19 0 0
BITMAP 
0000
0000
0008
0008
0008
0808
0410
0220
0140
0080
0140
0220
0410
0808
1000
e000
0000
0000
0000
ENDCHAR
STARTCHAR abe2
ENCODING 44002 
SWIDTH 495 0
DWIDTH 18 0
BBX 18 19 0 0
BITMAP 
0000
0000
0000
7ffc
0400
0400
0400
0400
7ffe
0400
0400
0400
0400
0400
0200
01fc
0000
0000
0000
ENDCHAR
STARTCHAR abe3
ENCODING 44003 
SWIDTH 495 0
DWIDTH 18 0
BBX 18 19 0 0
BITMAP 
0000
0000
0200
0200
0200
1ffc
0204
0208
0210
0200
0200
0200
0200
0000
0000
0000
0000
0000
0000
ENDCHAR
STARTCHAR abe4
ENCODING 44004 
SWIDTH 495 0
DWIDTH 18 0
BBX 18 19 0 0
BITMAP 
0000
0000
0400
0400
0400
7ffe
0402
0404
0408
0410
0420
0400
0400
0400
0400
0400
0400
0000
0000
ENDCHAR
STARTCHAR abe5
ENCODING 44005 
SWIDTH 495 0
DWIDTH 18 0
BBX 18 19 0 0
BITMAP 
0000
0000
0000
07e0
0020
0020
0020
0020
0020
0020
0020
1ffc
0000
0000
0000
0000
0000
0000
0000
ENDCHAR
STARTCHAR abe6
ENCODING 44006 
SWIDTH 495 0
DWIDTH 18 0
BBX 18 19 0 0
BITMAP 
0000
0000
0000
0000
1fe0
0020
0020
0020
0020
0020
0020
0020
0020
0020
7ffe
0000
0000
0000
0000
ENDCHAR
STARTCHAR abe7
ENCODING 44007 
SWIDTH 495 0
DWIDTH 18 0
BBX 18 19 0 0
BITMAP 
0000
0000
0000
0ff8
0008
0008
0008
07f8
0008
0008
0008
0ff8
0000
0000
0000
0000
0000
0000
0000
ENDCHAR
STARTCHAR abe8
ENCODING 44008 
SWIDTH 495 0
DWIDTH 18 0
BBX 18 19 0 0
BITMAP 
0000
0000
0000
3ff8
0008
0008
0008
0008
0ff8
0008
0008
0008
0008
0008
0008
3ff8
0000
0000
0000
ENDCHAR
STARTCHAR abe9
ENCODING 44009 
SWIDTH 495 0
DWIDTH 18 0
BBX 18 19 0 0
BITMAP 
0000
0000
1ff8
0000
0000
0000
7ffe
0002
0002
0004
0008
0010
0020
0040
0080
0700
0000
0000
0000
ENDCHAR
STARTCHAR abea
ENCODING 44010 
SWIDTH 495 0
DWIDTH 18 0
BBX 18 19 0 0
BITMAP 
0000
0000
1008
1008
1008
1008
1008
1008
1008
1008
1008
0008
0010
0020
0040
0380
0000
0000
0000
ENDCHAR
STARTCHAR abeb
ENCODING 44011 
SWIDTH 495 0
DWIDTH 18 0
BBX 18 19 0 0
BITMAP 
0000
0000
0080
0080
0880
0880
0880
0880
0880
0881
0882
0884
1088
2090
40a0
00c0
0000
0000
0000
ENDCHAR
STARTCHAR abec
ENCODING 44012 
SWIDTH 495 0
DWIDTH 18 0
BBX 18 19 0 0
BITMAP 
0000
0000
1000
1000
1000
1000
1000
1002
1004
1008
1010
1020
1040
1080
1100
1e00
0000
0000
0000
ENDCHAR
STARTCHAR abed
ENCODING 44013 
SWIDTH 495 0
DWIDTH 18 0
BBX 18 19 0 0
BITMAP 
0000
0000
0000
3ffc
2004
2004
2004
2004
2004
2004
2004
2004
2004
2004
2004
3ffc
0000
0000
0000
ENDCHAR
STARTCHAR abee
ENCODING 44014 
SWIDTH 495 0
DWIDTH 18 0
BBX 18 19 0 0
BITMAP 
0000
0000
0000
0ffc
0804
0804
0804
0004
0008
0010
0020
0040
0380
0000
0000
0000
0000
0000
0000
ENDCHAR
STARTCHAR abef
ENCODING 44015 
SWIDTH 495 0
DWIDTH 18 0
BBX 18 19 0 0
BITMAP 
0000
0000
0000
7ffc
4004
4004
4004
4004
0004
0004
0008
0010
0020
0040
0080
0700
0000
0000
0000
ENDCHAR
STARTCHAR abf0
ENCODING 44016 
SWIDTH 495 0
DWIDTH 18 0
BBX 18 19 0 0
BITMAP 
0000
0000
0020
0020
0020
3ffc
0820
0820
0820
0820
0820
0820
7ffe
0020
0020
0020
0020
0000
0000
ENDCHAR
STARTCHAR abf1
ENCODING 44017 
SWIDTH 495 0
DWIDTH 18 0
BBX 18 19 0 0
BITMAP 
0000
0000
0000
3ffc
0004
0008
0110
0120
0140
0100
0100
0100
0100
0100
7ffe
0000
0000
0000
0000
ENDCHAR
STARTCHAR abf2
ENCODING 44018 
SWIDTH 495 0
DWIDTH 18 0
BBX 18 19 0 0
BITMAP 
0000
0000
0000
3ffc
0004
0004
0004
3ffc
0004
0004
0004
0008
0010
0020
0040
0380
0000
0000
0000
ENDCHAR
STARTCHAR abf3
ENCODING 44019 
SWIDTH 495 0
DWIDTH 18 0
BBX 18 19 0 0
BITMAP 
0000
0000
0000
0000
7e00
0000
0002
0002
0002
0004
0008
0010
0020
0040
0080
3f00
0000
0000
0000
ENDCHAR
STARTCHAR abf4
ENCODING 44020 
SWIDTH 495 0
DWIDTH 18 0
BBX 18 19 0 0
BITMAP 
0000
000a
010a
0100
7ffc
4004
4004
4004
4004
0004
0008
0010
0020
0040
0080
0700
0000
0000
0000
ENDCHAR
STARTCHAR abf5
ENCODING 44021 
SWIDTH 495 0
DWIDTH 18 0
BBX 18 19 0 0
BITMAP 
0000
0000
0080
0080
0ffc
0084
0084
0084
0084
0104
0224
0414
080c
0000
0000
0000
0000
0000
0000
ENDCHAR
STARTCHAR abf6
ENCODING 44022 
SWIDTH 495 0
DWIDTH 18 0
BBX 18 19 0 0
BITMAP 
0000
0000
0400
0400
07fc
0420
0420
0820
1020
0020
0040
0080
0700
0000
0000
0000
0000
0000
0000
ENDCHAR
STARTCHAR a5a1
ENCODING 42401 
SWIDTH 495 0
DWIDTH 18 0
BBX 18 19 0 0
BITMAP 
0000
0100
0100
0000
0100
0100
0100
0100
0100
0100
0100
0100
0100
0100
0100
0100
0000
0000
0000
ENDCHAR
STARTCHAR a5a2
ENCODING 42402 
SWIDTH 495 0
DWIDTH 18 0
BBX 18 19 0 0
BITMAP 
0000
0420
0420
0000
0420
0420
0420
0420
0420
0420
0420
0420
0420
0420
0420
0420
0000
0000
0000
ENDCHAR
STARTCHAR a5a3
ENCODING 42403 
SWIDTH 495 0
DWIDTH 18 0
BBX 18 19 0 0
BITMAP 
0000
1110
1110
0000
1110
1110
1110
1110
1110
1110
1110
1110
1110
1110
1110
1110
0000
0000
0000
ENDCHAR
STARTCHAR a5a4
ENCODING 42404 
SWIDTH 495 0
DWIDTH 18 0
BBX 18 19 0 0
BITMAP 
0000
2000
2000
0000
2404
2404
2404
2208
2208
2110
2110
2110
20a0
20a0
2040
2040
0000
0000
0000
ENDCHAR
STARTCHAR a5a5
ENCODING 42405 
SWIDTH 495 0
DWIDTH 18 0
BBX 18 19 0 0
BITMAP 
0000
0000
0000
0000
2008
2008
1010
1010
0820
0820
0440
0440
0280
0280
0100
0100
0000
0000
0000
ENDCHAR
STARTCHAR a5a6
ENCODING 42406 
SWIDTH 495 0
DWIDTH 18 0
BBX 18 19 0 0
BITMAP 
0000
0004
0004
0000
2024
2024
2024
1044
1044
0884
0884
0884
0504
0504
0204
0204
0000
0000
0000
ENDCHAR
STARTCHAR a5a7
ENCODING 42407 
SWIDTH 495 0
DWIDTH 18 0
BBX 18 19 0 0
BITMAP 
0000
0024
0024
0000
20a4
20a4
20a4
1124
1124
1124
0a24
0a24
0a24
0424
0424
0424
0000
0000
0000
ENDCHAR
STARTCHAR a5a8
ENCODING 42408 
SWIDTH 495 0
DWIDTH 18 0
BBX 18 19 0 0
BITMAP 
0000
0054
0054
0000
4154
4154
4154
2254
2254
2254
1454
1454
1454
0854
0854
0854
0000
0000
0000
ENDCHAR
STARTCHAR a5a9
ENCODING 42409 
SWIDTH 495 0
DWIDTH 18 0
BBX 18 19 0 0
BITMAP 
0000
2000
2000
0000
2802
2404
2208
2110
20a0
2040
2040
20a0
2110
2208
2404
2802
0000
0000
0000
ENDCHAR
STARTCHAR a5aa
ENCODING 42410 
SWIDTH 495 0
DWIDTH 18 0
BBX 18 19 0 0
BITMAP 
0000
0000
0000
0000
2008
1010
0820
0440
0280
0100
0100
0280
0440
0820
1010
2008
0000
0000
0000
ENDCHAR
STARTCHAR a5b0
ENCODING 42416 
SWIDTH 495 0
DWIDTH 18 0
BBX 18 19 0 0
BITMAP 
0000
0000
0100
0100
0100
0100
0100
0100
0100
0100
0100
0100
0100
0100
0100
0100
0000
0000
0000
ENDCHAR
STARTCHAR a5b1
ENCODING 42417 
SWIDTH 495 0
DWIDTH 18 0
BBX 18 19 0 0
BITMAP 
0000
0000
0420
0420
0420
0420
0420
0420
0420
0420
0420
0420
0420
0420
0420
0420
0000
0000
0000
ENDCHAR
STARTCHAR a5b2
ENCODING 42418 
SWIDTH 495 0
DWIDTH 18 0
BBX 18 19 0 0
BITMAP 
0000
0000
1110
1110
1110
1110
1110
1110
1110
1110
1110
1110
1110
1110
1110
1110
0000
0000
0000
ENDCHAR
STARTCHAR a5b3
ENCODING 42419 
SWIDTH 495 0
DWIDTH 18 0
BBX 18 19 0 0
BITMAP 
0000
0000
2404
2404
2404
2208
2208
2208
2110
2110
2110
20a0
20a0
20a0
2040
2040
0000
0000
0000
ENDCHAR
STARTCHAR a5b4
ENCODING 42420 
SWIDTH 495 0
DWIDTH 18 0
BBX 18 19 0 0
BITMAP 
0000
0000
4004
4004
2008
2008
1010
1010
0820
0820
0440
0440
0280
0280
0100
0100
0000
0000
0000
ENDCHAR
STARTCHAR a5b5
ENCODING 42421 
SWIDTH 495 0
DWIDTH 18 0
BBX 18 19 0 0
BITMAP 
0000
0000
2024
2024
2024
1044
1044
1044
0884
0884
0884
0504
0504
0504
0204
0204
0000
0000
0000
ENDCHAR
STARTCHAR a5b6
ENCODING 42422 
SWIDTH 495 0
DWIDTH 18 0
BBX 18 19 0 0
BITMAP 
0000
0000
4052
4052
4052
2092
2092
2092
1112
1112
1112
0a12
0a12
0a12
0412
0412
0000
0000
0000
ENDCHAR
STARTCHAR a5b7
ENCODING 42423 
SWIDTH 495 0
DWIDTH 18 0
BBX 18 19 0 0
BITMAP 
0000
0000
8049
8049
80c9
4149
4149
4149
2249
2249
2249
1449
1449
1449
0849
0849
0000
0000
0000
ENDCHAR
STARTCHAR a5b8
ENCODING 42424 
SWIDTH 495 0
DWIDTH 18 0
BBX 18 19 0 0
BITMAP 
0000
0000
2802
2404
2208
2208
2110
20a0
2040
2040
20a0
2110
2208
2208
2404
2802
0000
0000
0000
ENDCHAR
STARTCHAR a5b9
ENCODING 42425 
SWIDTH 495 0
DWIDTH 18 0
BBX 18 19 0 0
BITMAP 
0000
0000
4004
2008
1010
0820
0440
0280
0100
0100
0280
0440
0820
1010
2008
4004
0000
0000
0000
ENDCHAR
STARTCHAR a5c1
ENCODING 42433 
SWIDTH 495 0
DWIDTH 18 0
BBX 18 19 0 0
BITMAP 
0000
0000
0180
0240
0240
0420
0420
0810
0810
1008
1008
3ffc
2004
4002
4002
4002
0000
0000
0000
ENDCHAR
STARTCHAR a5c2
ENCODING 42434 
SWIDTH 495 0
DWIDTH 18 0
BBX 18 19 0 0
BITMAP 
0000
0000
1ff0
1008
1004
1004
1004
1008
1ff0
1008
1004
1004
1004
1004
1008
1ff0
0000
0000
0000
ENDCHAR
STARTCHAR a5c3
ENCODING 42435 
SWIDTH 495 0
DWIDTH 18 0
BBX 18 19 0 0
BITMAP 
0000
0000
1ffc
1000
1000
1000
1000
1000
1000
1000
1000
1000
1000
1000
1000
1000
0000
0000
0000
ENDCHAR
STARTCHAR a5c4
ENCODING 42436 
SWIDTH 495 0
DWIDTH 18 0
BBX 18 19 0 0
BITMAP 
0000
0000
0180
0240
0240
0420
0810
0810
1008
1008
2004
2004
4002
4002
8001
ffff
0000
0000
0000
ENDCHAR
STARTCHAR a5c5
ENCODING 42437 
SWIDTH 495 0
DWIDTH 18 0
BBX 18 19 0 0
BITMAP 
0000
0000
1ffc
1000
1000
1000
1000
1000
1ff0
1000
1000
1000
1000
1000
1000
1ffc
0000
0000
0000
ENDCHAR
STARTCHAR a5c6
ENCODING 42438 
SWIDTH 495 0
DWIDTH 18 0
BBX 18 19 0 0
BITMAP 
0000
0000
3ffe
0004
0008
0010
0020
0040
0080
0100
0200
0400
0800
1000
2000
7ffe
0000
0000
0000
ENDCHAR
STARTCHAR a5c7
ENCODING 42439 
SWIDTH 495 0
DWIDTH 18 0
BBX 18 19 0 0
BITMAP 
0000
0000
2004
2004
2004
2004
2004
2004
3ffc
2004
2004
2004
2004
2004
2004
2004
0000
0000
0000
ENDCHAR
STARTCHAR a5c8
ENCODING 42440 
SWIDTH 495 0
DWIDTH 18 0
BBX 18 19 0 0
BITMAP 
0000
0000
07e0
0810
1008
2004
2004
2004
27e4
2004
2004
2004
2004
1008
0810
07e0
0000
0000
0000
ENDCHAR
STARTCHAR a5c9
ENCODING 42441 
SWIDTH 495 0
DWIDTH 18 0
BBX 18 19 0 0
BITMAP 
0000
0000
0100
0100
0100
0100
0100
0100
0100
0100
0100
0100
0100
0100
0100
0100
0000
0000
0000
ENDCHAR
STARTCHAR a5ca
ENCODING 42442 
SWIDTH 495 0
DWIDTH 18 0
BBX 18 19 0 0
BITMAP 
0000
0000
100c
1010
1060
1080
1300
1400
1800
1400
1300
1080
1060
1010
100c
1002
0000
0000
0000
ENDCHAR
STARTCHAR a5cb
ENCODING 42443 
SWIDTH 495 0
DWIDTH 18 0
BBX 18 19 0 0
BITMAP 
0000
0000
0180
0240
0240
0420
0420
0810
0810
1008
1008
2004
2004
4002
4002
4002
0000
0000
0000
ENDCHAR
STARTCHAR a5cc
ENCODING 42444 
SWIDTH 495 0
DWIDTH 18 0
BBX 18 19 0 0
BITMAP 
0000
0000
8002
c006
a00a
9012
8822
8442
8282
8102
8002
8002
8002
8002
8002
8002
0000
0000
0000
ENDCHAR
STARTCHAR a5cd
ENCODING 42445 
SWIDTH 495 0
DWIDTH 18 0
BBX 18 19 0 0
BITMAP 
0000
0000
3004
2804
2404
2404
2204
2204
2104
2084
2084
2044
2024
2024
2014
200c
0000
0000
0000
ENDCHAR
STARTCHAR a5ce
ENCODING 42446 
SWIDTH 495 0
DWIDTH 18 0
BBX 18 19 0 0
BITMAP 
0000
0000
3ffc
0000
0000
0000
0000
0000
1ff8
0000
0000
0000
0000
0000
0000
3ffc
0000
0000
0000
ENDCHAR
STARTCHAR a5cf
ENCODING 42447 
SWIDTH 495 0
DWIDTH 18 0
BBX 18 19 0 0
BITMAP 
0000
0000
07e0
0810
1008
2004
2004
2004
2004
2004
2004
2004
2004
1008
0810
07e0
0000
0000
0000
ENDCHAR
STARTCHAR a5d0
ENCODING 42448 
SWIDTH 495 0
DWIDTH 18 0
BBX 18 19 0 0
BITMAP 
0000
0000
3ffc
2004
2004
2004
2004
2004
2004
2004
2004
2004
2004
2004
2004
2004
0000
0000
0000
ENDCHAR
STARTCHAR a5d1
ENCODING 42449 
SWIDTH 495 0
DWIDTH 18 0
BBX 18 19 0 0
BITMAP 
0000
0000
1ff0
1008
1004
1004
1004
1004
1008
1ff0
1000
1000
1000
1000
1000
1000
0000
0000
0000
ENDCHAR
STARTCHAR a5d2
ENCODING 42450 
SWIDTH 495 0
DWIDTH 18 0
BBX 18 19 0 0
BITMAP 
0000
0000
3ffc
1000
0800
0400
0200
0100
0080
0100
0200
0400
0800
1000
2000
7ffc
0000
0000
0000
ENDCHAR
STARTCHAR a5d3
ENCODING 42451 
SWIDTH 495 0
DWIDTH 18 0
BBX 18 19 0 0
BITMAP 
0000
0000
7ffc
0100
0100
0100
0100
0100
0100
0100
0100
0100
0100
0100
0100
0100
0000
0000
0000
ENDCHAR
STARTCHAR a5d4
ENCODING 42452 
SWIDTH 495 0
DWIDTH 18 0
BBX 18 19 0 0
BITMAP 
0000
0000
4004
2008
1010
0820
0440
0280
0100
0100
0100
0100
0100
0100
0100
0100
0000
0000
0000
ENDCHAR
STARTCHAR a5d5
ENCODING 42453 
SWIDTH 495 0
DWIDTH 18 0
BBX 18 19 0 0
BITMAP 
0000
0000
0100
0100
0fe0
1110
2108
4104
4104
4104
4104
2108
1110
0fe0
0100
0100
0000
0000
0000
ENDCHAR
STARTCHAR a5d6
ENCODING 42454 
SWIDTH 495 0
DWIDTH 18 0
BBX 18 19 0 0
BITMAP 
0000
0000
4004
2008
1010
0820
0440
0280
0100
0280
0440
0820
1010
2008
4004
8002
0000
0000
0000
ENDCHAR
STARTCHAR a5d7
ENCODING 42455 
SWIDTH 495 0
DWIDTH 18 0
BBX 18 19 0 0
BITMAP 
0000
0000
4104
4104
4104
4104
4104
4104
4104
4104
4104
2108
1110
0fe0
0100
0100
0000
0000
0000
ENDCHAR
STARTCHAR a5d8
ENCODING 42456 
SWIDTH 495 0
DWIDTH 18 0
BBX 18 19 0 0
BITMAP 
0000
0000
07e0
0810
1008
2004
2004
2004
2004
2004
1008
0810
0420
0240
0240
3e7c
0000
0000
0000
ENDCHAR
STARTCHAR a5e1
ENCODING 42465 
SWIDTH 495 0
DWIDTH 18 0
BBX 18 19 0 0
BITMAP 
0000
0000
0000
0000
0600
0908
1088
2088
2048
2048
2050
2020
2050
1090
0910
060e
0000
0000
0000
ENDCHAR
STARTCHAR a5e2
ENCODING 42466 
SWIDTH 495 0
DWIDTH 18 0
BBX 18 19 0 0
BITMAP 
0000
0000
01c0
0220
0410
0810
0810
0820
0bc0
0820
0810
0808
0808
0c08
0a10
09e0
0800
0000
0000
ENDCHAR
STARTCHAR a5e3
ENCODING 42467 
SWIDTH 495 0
DWIDTH 18 0
BBX 18 19 0 0
BITMAP 
0000
0000
0000
0000
1838
2440
0280
0100
0100
0100
0100
0100
0100
0100
0100
0100
0100
0000
0000
ENDCHAR
STARTCHAR a5e4
ENCODING 42468 
SWIDTH 495 0
DWIDTH 18 0
BBX 18 19 0 0
BITMAP 
0000
0000
01c0
0220
0210
0100
0380
0440
0820
0810
0810
0810
0810
0810
0420
03c0
0000
0000
0000
ENDCHAR
STARTCHAR a5e5
ENCODING 42469 
SWIDTH 495 0
DWIDTH 18 0
BBX 18 19 0 0
BITMAP 
0000
0000
0000
0000
07e0
0810
1000
1000
0800
07e0
0800
1000
1000
1008
0810
07e0
0000
0000
0000
ENDCHAR
STARTCHAR a5e6
ENCODING 42470 
SWIDTH 495 0
DWIDTH 18 0
BBX 18 19 0 0
BITMAP 
0000
0400
0800
0800
07f0
0100
0200
0400
0800
0800
0800
0800
0800
07f0
0008
0008
01f0
0000
0000
ENDCHAR
STARTCHAR a5e7
ENCODING 42471 
SWIDTH 495 0
DWIDTH 18 0
BBX 18 19 0 0
BITMAP 
0000
0000
0000
0000
18e0
2510
0208
0208
0208
0208
0208
0208
0208
0208
0208
0208
0008
0000
0000
ENDCHAR
STARTCHAR a5e8
ENCODING 42472 
SWIDTH 495 0
DWIDTH 18 0
BBX 18 19 0 0
BITMAP 
0000
0000
03c0
0420
0810
0810
0810
0ff0
0810
0810
0810
0810
0810
0810
0420
03c0
0000
0000
0000
ENDCHAR
STARTCHAR a5e9
ENCODING 42473 
SWIDTH 495 0
DWIDTH 18 0
BBX 18 19 0 0
BITMAP 
0000
0000
0000
0000
0400
0400
0400
0400
0400
0400
0400
0410
0410
0410
0220
01c0
0000
0000
0000
ENDCHAR
STARTCHAR a5ea
ENCODING 42474 
SWIDTH 495 0
DWIDTH 18 0
BBX 18 19 0 0
BITMAP 
0000
0000
0000
0000
0870
0880
0900
0a00
0e00
0900
0880
0880
0888
0888
0890
0860
0000
0000
0000
ENDCHAR
STARTCHAR a5eb
ENCODING 42475 
SWIDTH 495 0
DWIDTH 18 0
BBX 18 19 0 0
BITMAP 
0000
0000
0780
0040
0040
0040
00c0
0140
0140
0240
0440
0440
0840
1040
1020
2018
0000
0000
0000
ENDCHAR
STARTCHAR a5ec
ENCODING 42476 
SWIDTH 495 0
DWIDTH 18 0
BBX 18 19 0 0
BITMAP 
0000
0000
0000
0000
0810
0810
0810
0810
0810
0810
0810
0810
0810
0c10
0a32
09cc
0800
0000
0000
ENDCHAR
STARTCHAR a5ed
ENCODING 42477 
SWIDTH 495 0
DWIDTH 18 0
BBX 18 19 0 0
BITMAP 
0000
0000
0000
0000
1000
0808
0408
0408
0408
0410
0420
0440
0480
0500
0600
0400
0000
0000
0000
ENDCHAR
STARTCHAR a5ee
ENCODING 42478 
SWIDTH 495 0
DWIDTH 18 0
BBX 18 19 0 0
BITMAP 
0000
0000
03f0
0400
0800
0800
0400
07f0
0800
1000
1000
0800
07f0
0008
0008
00f0
0000
0000
0000
ENDCHAR
STARTCHAR a5ef
ENCODING 42479 
SWIDTH 495 0
DWIDTH 18 0
BBX 18 19 0 0
BITMAP 
0000
0000
0000
0000
03c0
0420
0810
0810
0810
0810
0810
0810
0810
0810
0420
03c0
0000
0000
0000
ENDCHAR
STARTCHAR a5f0
ENCODING 42480 
SWIDTH 495 0
DWIDTH 18 0
BBX 18 19 0 0
BITMAP 
0000
0000
0000
0000
3ffc
4480
0480
0480
0480
0480
0480
0480
0480
0888
1090
2060
0000
0000
0000
ENDCHAR
STARTCHAR a5f1
ENCODING 42481 
SWIDTH 495 0
DWIDTH 18 0
BBX 18 19 0 0
BITMAP 
0000
0000
0000
0000
03c0
0420
0810
0810
0810
0810
0810
0810
0c10
0a20
09c0
0800
0800
0000
0000
ENDCHAR
STARTCHAR a5f2
ENCODING 42482 
SWIDTH 495 0
DWIDTH 18 0
BBX 18 19 0 0
BITMAP 
0000
0000
0000
0004
03f8
0420
0810
0810
0810
0810
0810
0810
0810
0810
0420
03c0
0000
0000
0000
ENDCHAR
STARTCHAR a5f3
ENCODING 42483 
SWIDTH 495 0
DWIDTH 18 0
BBX 18 19 0 0
BITMAP 
0000
0000
0000
0000
1ff0
2100
0100
0100
0100
0100
0100
0100
0100
0110
0120
00c0
0000
0000
0000
ENDCHAR
STARTCHAR a5f4
ENCODING 42484 
SWIDTH 495 0
DWIDTH 18 0
BBX 18 19 0 0
BITMAP 
0000
0000
0000
0000
1810
0410
0410
0410
0410
0410
0410
0410
0410
0420
0440
0380
0000
0000
0000
ENDCHAR
STARTCHAR a5f5
ENCODING 42485 
SWIDTH 495 0
DWIDTH 18 0
BBX 18 19 0 0
BITMAP 
0000
0000
0100
0100
07c0
0920
1110
1110
1110
1110
1110
1110
1110
0920
07c0
0100
0100
0000
0000
ENDCHAR
STARTCHAR a5f6
ENCODING 42486 
SWIDTH 495 0
DWIDTH 18 0
BBX 18 19 0 0
BITMAP 
0000
0000
0000
0000
1820
2440
0440
0280
0280
0100
0100
0280
0280
0440
0440
0824
3018
0000
0000
ENDCHAR
STARTCHAR a5f7
ENCODING 42487 
SWIDTH 495 0
DWIDTH 18 0
BBX 18 19 0 0
BITMAP 
0000
0000
0100
0100
0920
1110
1110
1110
1110
1110
1110
1110
1110
0920
07c0
0100
0100
0000
0000
ENDCHAR
STARTCHAR a5f8
ENCODING 42488 
SWIDTH 495 0
DWIDTH 18 0
BBX 18 19 0 0
BITMAP 
0000
0000
0000
0000
0820
1010
2008
2108
2108
2108
2108
2108
2108
2108
1290
0c60
0000
0000
0000
ENDCHAR
STARTCHAR a6a1
ENCODING 42657 
SWIDTH 495 0
DWIDTH 18 0
BBX 18 19 0 0
BITMAP 
0000
0000
0000
0000
0000
0000
0000
0000
ffff
0000
0000
0000
0000
0000
0000
0000
0000
0000
0000
ENDCHAR
STARTCHAR a6a2
ENCODING 42658 
SWIDTH 495 0
DWIDTH 18 0
BBX 18 19 0 0
BITMAP 
0000
0100
0100
0100
0100
0100
0100
0100
0100
0100
0100
0100
0100
0100
0100
0100
0100
0000
0000
ENDCHAR
STARTCHAR a6a3
ENCODING 42659 
SWIDTH 495 0
DWIDTH 18 0
BBX 18 19 0 0
BITMAP 
0000
0000
0000
0000
0000
0000
0000
0000
01ff
0100
0100
0100
0100
0100
0100
0100
0100
0000
0000
ENDCHAR
STARTCHAR a6a4
ENCODING 42660 
SWIDTH 495 0
DWIDTH 18 0
BBX 18 19 0 0
BITMAP 
0000
0000
0000
0000
0000
0000
0000
0000
ff00
0100
0100
0100
0100
0100
0100
0100
0100
0000
0000
ENDCHAR
STARTCHAR a6a5
ENCODING 42661 
SWIDTH 495 0
DWIDTH 18 0
BBX 18 19 0 0
BITMAP 
0000
0100
0100
0100
0100
0100
0100
0100
ff00
0000
0000
0000
0000
0000
0000
0000
0000
0000
0000
ENDCHAR
STARTCHAR a6a6
ENCODING 42662 
SWIDTH 495 0
DWIDTH 18 0
BBX 18 19 0 0
BITMAP 
0000
0100
0100
0100
0100
0100
0100
0100
01ff
0000
0000
0000
0000
0000
0000
0000
0000
0000
0000
ENDCHAR
STARTCHAR a6a7
ENCODING 42663 
SWIDTH 495 0
DWIDTH 18 0
BBX 18 19 0 0
BITMAP 
0000
0100
0100
0100
0100
0100
0100
0100
01ff
0100
0100
0100
0100
0100
0100
0100
0100
0000
0000
ENDCHAR
STARTCHAR a6a8
ENCODING 42664 
SWIDTH 495 0
DWIDTH 18 0
BBX 18 19 0 0
BITMAP 
0000
0000
0000
0000
0000
0000
0000
0000
ffff
0100
0100
0100
0100
0100
0100
0100
0100
0000
0000
ENDCHAR
STARTCHAR a6a9
ENCODING 42665 
SWIDTH 495 0
DWIDTH 18 0
BBX 18 19 0 0
BITMAP 
0000
0100
0100
0100
0100
0100
0100
0100
ff00
0100
0100
0100
0100
0100
0100
0100
0100
0000
0000
ENDCHAR
STARTCHAR a6aa
ENCODING 42666 
SWIDTH 495 0
DWIDTH 18 0
BBX 18 19 0 0
BITMAP 
0000
0100
0100
0100
0100
0100
0100
0100
ffff
0000
0000
0000
0000
0000
0000
0000
0000
0000
0000
ENDCHAR
STARTCHAR a6ab
ENCODING 42667 
SWIDTH 495 0
DWIDTH 18 0
BBX 18 19 0 0
BITMAP 
0000
0100
0100
0100
0100
0100
0100
0100
ffff
0100
0100
0100
0100
0100
0100
0100
0100
0000
0000
ENDCHAR
STARTCHAR a6ac
ENCODING 42668 
SWIDTH 495 0
DWIDTH 18 0
BBX 18 19 0 0
BITMAP 
0000
0000
0000
0000
0000
0000
0000
0000
ffff
ffff
0000
0000
0000
0000
0000
0000
0000
0000
0000
ENDCHAR
STARTCHAR a6ad
ENCODING 42669 
SWIDTH 495 0
DWIDTH 18 0
BBX 18 19 0 0
BITMAP 
0000
0180
0180
0180
0180
0180
0180
0180
0180
0180
0180
0180
0180
0180
0180
0180
0180
0000
0000
ENDCHAR
STARTCHAR a6ae
ENCODING 42670 
SWIDTH 495 0
DWIDTH 18 0
BBX 18 19 0 0
BITMAP 
0000
0000
0000
0000
0000
0000
0000
0000
01ff
01ff
0180
0180
0180
0180
0180
0180
0180
0000
0000
ENDCHAR
STARTCHAR a6af
ENCODING 42671 
SWIDTH 495 0
DWIDTH 18 0
BBX 18 19 0 0
BITMAP 
0000
0000
0000
0000
0000
0000
0000
0000
ff80
ff80
0180
0180
0180
0180
0180
0180
0180
0000
0000
ENDCHAR
STARTCHAR a6b0
ENCODING 42672 
SWIDTH 495 0
DWIDTH 18 0
BBX 18 19 0 0
BITMAP 
0000
0180
0180
0180
0180
0180
0180
0180
ff80
ff80
0000
0000
0000
0000
0000
0000
0000
0000
0000
ENDCHAR
STARTCHAR a6b1
ENCODING 42673 
SWIDTH 495 0
DWIDTH 18 0
BBX 18 19 0 0
BITMAP 
0000
0180
0180
0180
0180
0180
0180
0180
01ff
01ff
0000
0000
0000
0000
0000
0000
0000
0000
0000
ENDCHAR
STARTCHAR a6b2
ENCODING 42674 
SWIDTH 495 0
DWIDTH 18 0
BBX 18 19 0 0
BITMAP 
0000
0180
0180
0180
0180
0180
0180
0180
01ff
01ff
0180
0180
0180
0180
0180
0180
0180
0000
0000
ENDCHAR
STARTCHAR a6b3
ENCODING 42675 
SWIDTH 495 0
DWIDTH 18 0
BBX 18 19 0 0
BITMAP 
0000
0000
0000
0000
0000
0000
0000
0000
ffff
ffff
0180
0180
0180
0180
0180
0180
0180
0000
0000
ENDCHAR
STARTCHAR a6b4
ENCODING 42676 
SWIDTH 495 0
DWIDTH 18 0
BBX 18 19 0 0
BITMAP 
0000
0180
0180
0180
0180
0180
0180
0180
ff80
ff80
0180
0180
0180
0180
0180
0180
0180
0000
0000
ENDCHAR
STARTCHAR a6b5
ENCODING 42677 
SWIDTH 495 0
DWIDTH 18 0
BBX 18 19 0 0
BITMAP 
0000
0180
0180
0180
0180
0180
0180
0180
ffff
ffff
0000
0000
0000
0000
0000
0000
0000
0000
0000
ENDCHAR
STARTCHAR a6b6
ENCODING 42678 
SWIDTH 495 0
DWIDTH 18 0
BBX 18 19 0 0
BITMAP 
0000
0180
0180
0180
0180
0180
0180
0180
ffff
ffff
0180
0180
0180
0180
0180
0180
0180
0000
0000
ENDCHAR
STARTCHAR a6b7
ENCODING 42679 
SWIDTH 495 0
DWIDTH 18 0
BBX 18 19 0 0
BITMAP 
0000
0180
0180
0180
0180
0180
0180
0180
01ff
0180
0180
0180
0180
0180
0180
0180
0180
0000
0000
ENDCHAR
STARTCHAR a6b8
ENCODING 42680 
SWIDTH 495 0
DWIDTH 18 0
BBX 18 19 0 0
BITMAP 
0000
0000
0000
0000
0000
0000
0000
0000
ffff
ffff
0100
0100
0100
0100
0100
0100
0100
0000
0000
ENDCHAR
STARTCHAR a6b9
ENCODING 42681 
SWIDTH 495 0
DWIDTH 18 0
BBX 18 19 0 0
BITMAP 
0000
0180
0180
0180
0180
0180
0180
0180
ff80
0180
0180
0180
0180
0180
0180
0180
0180
0000
0000
ENDCHAR
STARTCHAR a6ba
ENCODING 42682 
SWIDTH 495 0
DWIDTH 18 0
BBX 18 19 0 0
BITMAP 
0000
0100
0100
0100
0100
0100
0100
0100
ffff
ffff
0000
0000
0000
0000
0000
0000
0000
0000
0000
ENDCHAR
STARTCHAR a6bb
ENCODING 42683 
SWIDTH 495 0
DWIDTH 18 0
BBX 18 19 0 0
BITMAP 
0000
0100
0100
0100
0100
0100
0100
0100
ffff
ffff
0100
0100
0100
0100
0100
0100
0100
0000
0000
ENDCHAR
STARTCHAR a6bc
ENCODING 42684 
SWIDTH 495 0
DWIDTH 18 0
BBX 18 19 0 0
BITMAP 
0000
0100
0100
0100
0100
0100
0100
0100
01ff
01ff
0100
0100
0100
0100
0100
0100
0100
0000
0000
ENDCHAR
STARTCHAR a6bd
ENCODING 42685 
SWIDTH 495 0
DWIDTH 18 0
BBX 18 19 0 0
BITMAP 
0000
0000
0000
0000
0000
0000
0000
0000
ffff
0180
0180
0180
0180
0180
0180
0180
0180
0000
0000
ENDCHAR
STARTCHAR a6be
ENCODING 42686 
SWIDTH 495 0
DWIDTH 18 0
BBX 18 19 0 0
BITMAP 
0000
0100
0100
0100
0100
0100
0100
0100
ff00
ff00
0100
0100
0100
0100
0100
0100
0100
0000
0000
ENDCHAR
STARTCHAR a6bf
ENCODING 42687 
SWIDTH 495 0
DWIDTH 18 0
BBX 18 19 0 0
BITMAP 
0000
0180
0180
0180
0180
0180
0180
0180
ffff
0000
0000
0000
0000
0000
0000
0000
0000
0000
0000
ENDCHAR
STARTCHAR a6c0
ENCODING 42688 
SWIDTH 495 0
DWIDTH 18 0
BBX 18 19 0 0
BITMAP 
0000
0180
0180
0180
0180
0180
0180
0180
ffff
0180
0180
0180
0180
0180
0180
0180
0180
0000
0000
ENDCHAR
STARTCHAR a6c1
ENCODING 42689 
SWIDTH 495 0
DWIDTH 18 0
BBX 18 19 0 0
BITMAP 
0000
0000
0000
0000
0000
0000
0000
0000
ff00
0300
0300
0300
0300
0300
0300
0300
0300
0000
0000
ENDCHAR
STARTCHAR a6c2
ENCODING 42690 
SWIDTH 495 0
DWIDTH 18 0
BBX 18 19 0 0
BITMAP 
0000
0000
0000
0000
0000
0000
0000
0000
ff00
ff00
0100
0100
0100
0100
0100
0100
0100
0000
0000
ENDCHAR
STARTCHAR a6c3
ENCODING 42691 
SWIDTH 495 0
DWIDTH 18 0
BBX 18 19 0 0
BITMAP 
0000
0300
0300
0300
0300
0300
0300
0300
ff00
0000
0000
0000
0000
0000
0000
0000
0000
0000
0000
ENDCHAR
STARTCHAR a6c4
ENCODING 42692 
SWIDTH 495 0
DWIDTH 18 0
BBX 18 19 0 0
BITMAP 
0000
0100
0100
0100
0100
0100
0100
ff00
ff00
0000
0000
0000
0000
0000
0000
0000
0000
0000
0000
ENDCHAR
STARTCHAR a6c5
ENCODING 42693 
SWIDTH 495 0
DWIDTH 18 0
BBX 18 19 0 0
BITMAP 
0000
0180
0180
0180
0180
0180
0180
0180
01ff
0000
0000
0000
0000
0000
0000
0000
0000
0000
0000
ENDCHAR
STARTCHAR a6c6
ENCODING 42694 
SWIDTH 495 0
DWIDTH 18 0
BBX 18 19 0 0
BITMAP 
0000
0100
0100
0100
0100
0100
0100
01ff
01ff
0000
0000
0000
0000
0000
0000
0000
0000
0000
0000
ENDCHAR
STARTCHAR a6c7
ENCODING 42695 
SWIDTH 495 0
DWIDTH 18 0
BBX 18 19 0 0
BITMAP 
0000
0000
0000
0000
0000
0000
0000
0000
01ff
0180
0180
0180
0180
0180
0180
0180
0180
0000
0000
ENDCHAR
STARTCHAR a6c8
ENCODING 42696 
SWIDTH 495 0
DWIDTH 18 0
BBX 18 19 0 0
BITMAP 
0000
0000
0000
0000
0000
0000
0000
0000
01ff
01ff
0100
0100
0100
0100
0100
0100
0100
0000
0000
ENDCHAR
STARTCHAR a6c9
ENCODING 42697 
SWIDTH 495 0
DWIDTH 18 0
BBX 18 19 0 0
BITMAP 
0000
0180
0180
0180
0180
0180
0180
0180
01ff
0100
0100
0100
0100
0100
0100
0100
0100
0000
0000
ENDCHAR
STARTCHAR a6ca
ENCODING 42698 
SWIDTH 495 0
DWIDTH 18 0
BBX 18 19 0 0
BITMAP 
0000
0100
0100
0100
0100
0100
0100
0100
01ff
0180
0180
0180
0180
0180
0180
0180
0180
0000
0000
ENDCHAR
STARTCHAR a6cb
ENCODING 42699 
SWIDTH 495 0
DWIDTH 18 0
BBX 18 19 0 0
BITMAP 
0000
0180
0180
0180
0180
0180
0180
01ff
01ff
0100
0100
0100
0100
0100
0100
0100
0100
0000
0000
ENDCHAR
STARTCHAR a6cc
ENCODING 42700 
SWIDTH 495 0
DWIDTH 18 0
BBX 18 19 0 0
BITMAP 
0000
0100
0100
0100
0100
0100
0100
0100
01ff
01ff
0180
0180
0180
0180
0180
0180
0180
0000
0000
ENDCHAR
STARTCHAR a6cd
ENCODING 42701 
SWIDTH 495 0
DWIDTH 18 0
BBX 18 19 0 0
BITMAP 
0000
0300
0300
0300
0300
0300
0300
0300
ff00
0100
0100
0100
0100
0100
0100
0100
0100
0000
0000
ENDCHAR
STARTCHAR a6ce
ENCODING 42702 
SWIDTH 495 0
DWIDTH 18 0
BBX 18 19 0 0
BITMAP 
0000
0100
0100
0100
0100
0100
0100
0100
ff00
0300
0300
0300
0300
0300
0300
0300
0300
0000
0000
ENDCHAR
STARTCHAR a6cf
ENCODING 42703 
SWIDTH 495 0
DWIDTH 18 0
BBX 18 19 0 0
BITMAP 
0000
0300
0300
0300
0300
0300
0300
ff00
ff00
0100
0100
0100
0100
0100
0100
0100
0100
0000
0000
ENDCHAR
STARTCHAR a6d0
ENCODING 42704 
SWIDTH 495 0
DWIDTH 18 0
BBX 18 19 0 0
BITMAP 
0000
0100
0100
0100
0100
0100
0100
0100
ff00
ff00
0300
0300
0300
0300
0300
0300
0300
0000
0000
ENDCHAR
STARTCHAR a6d1
ENCODING 42705 
SWIDTH 495 0
DWIDTH 18 0
BBX 18 19 0 0
BITMAP 
0000
0000
0000
0000
0000
0000
0000
0000
ffff
ff00
0100
0100
0100
0100
0100
0100
0100
0000
0000
ENDCHAR
STARTCHAR a6d2
ENCODING 42706 
SWIDTH 495 0
DWIDTH 18 0
BBX 18 19 0 0
BITMAP 
0000
0000
0000
0000
0000
0000
0000
0000
ffff
01ff
0100
0100
0100
0100
0100
0100
0100
0000
0000
ENDCHAR
STARTCHAR a6d3
ENCODING 42707 
SWIDTH 495 0
DWIDTH 18 0
BBX 18 19 0 0
BITMAP 
0000
0000
0000
0000
0000
0000
0000
0000
ffff
ff00
0300
0300
0300
0300
0300
0300
0300
0000
0000
ENDCHAR
STARTCHAR a6d4
ENCODING 42708 
SWIDTH 495 0
DWIDTH 18 0
BBX 18 19 0 0
BITMAP 
0000
0000
0000
0000
0000
0000
0000
0000
ffff
01ff
0180
0180
0180
0180
0180
0180
0180
0000
0000
ENDCHAR
STARTCHAR a6d5
ENCODING 42709 
SWIDTH 495 0
DWIDTH 18 0
BBX 18 19 0 0
BITMAP 
0000
0100
0100
0100
0100
0100
0100
ff00
ffff
0000
0000
0000
0000
0000
0000
0000
0000
0000
0000
ENDCHAR
STARTCHAR a6d6
ENCODING 42710 
SWIDTH 495 0
DWIDTH 18 0
BBX 18 19 0 0
BITMAP 
0000
0100
0100
0100
0100
0100
0100
01ff
ffff
0000
0000
0000
0000
0000
0000
0000
0000
0000
0000
ENDCHAR
STARTCHAR a6d7
ENCODING 42711 
SWIDTH 495 0
DWIDTH 18 0
BBX 18 19 0 0
BITMAP 
0000
0300
0300
0300
0300
0300
0300
ff00
ffff
0000
0000
0000
0000
0000
0000
0000
0000
0000
0000
ENDCHAR
STARTCHAR a6d8
ENCODING 42712 
SWIDTH 495 0
DWIDTH 18 0
BBX 18 19 0 0
BITMAP 
0000
0180
0180
0180
0180
0180
0180
01ff
ffff
0000
0000
0000
0000
0000
0000
0000
0000
0000
0000
ENDCHAR
STARTCHAR a6d9
ENCODING 42713 
SWIDTH 495 0
DWIDTH 18 0
BBX 18 19 0 0
BITMAP 
0000
0100
0100
0100
0100
0100
0100
0100
ffff
ff00
0100
0100
0100
0100
0100
0100
0100
0000
0000
ENDCHAR
STARTCHAR a6da
ENCODING 42714 
SWIDTH 495 0
DWIDTH 18 0
BBX 18 19 0 0
BITMAP 
0000
0100
0100
0100
0100
0100
0100
0100
ffff
01ff
0100
0100
0100
0100
0100
0100
0100
0000
0000
ENDCHAR
STARTCHAR a6db
ENCODING 42715 
SWIDTH 495 0
DWIDTH 18 0
BBX 18 19 0 0
BITMAP 
0000
0180
0180
0180
0180
0180
0180
0180
ffff
0100
0100
0100
0100
0100
0100
0100
0100
0000
0000
ENDCHAR
STARTCHAR a6dc
ENCODING 42716 
SWIDTH 495 0
DWIDTH 18 0
BBX 18 19 0 0
BITMAP 
0000
0100
0100
0100
0100
0100
0100
0100
ffff
0180
0180
0180
0180
0180
0180
0180
0180
0000
0000
ENDCHAR
STARTCHAR a6dd
ENCODING 42717 
SWIDTH 495 0
DWIDTH 18 0
BBX 18 19 0 0
BITMAP 
0000
0300
0300
0300
0300
0300
0300
ff00
ffff
0100
0100
0100
0100
0100
0100
0100
0100
0000
0000
ENDCHAR
STARTCHAR a6de
ENCODING 42718 
SWIDTH 495 0
DWIDTH 18 0
BBX 18 19 0 0
BITMAP 
0000
0180
0180
0180
0180
0180
0180
01ff
ffff
0100
0100
0100
0100
0100
0100
0100
0100
0000
0000
ENDCHAR
STARTCHAR a6df
ENCODING 42719 
SWIDTH 495 0
DWIDTH 18 0
BBX 18 19 0 0
BITMAP 
0000
0100
0100
0100
0100
0100
0100
0100
ffff
ff00
0300
0300
0300
0300
0300
0300
0300
0000
0000
ENDCHAR
STARTCHAR a6e0
ENCODING 42720 
SWIDTH 495 0
DWIDTH 18 0
BBX 18 19 0 0
BITMAP 
0000
0100
0100
0100
0100
0100
0100
0100
ffff
01ff
0180
0180
0180
0180
0180
0180
0180
0000
0000
ENDCHAR
STARTCHAR a6e1
ENCODING 42721 
SWIDTH 495 0
DWIDTH 18 0
BBX 18 19 0 0
BITMAP 
0000
0180
0180
0180
0180
0180
0180
ffff
ffff
0100
0100
0100
0100
0100
0100
0100
0100
0000
0000
ENDCHAR
STARTCHAR a6e2
ENCODING 42722 
SWIDTH 495 0
DWIDTH 18 0
BBX 18 19 0 0
BITMAP 
0000
0100
0100
0100
0100
0100
0100
0100
ffff
ffff
0180
0180
0180
0180
0180
0180
0180
0000
0000
ENDCHAR
STARTCHAR a6e3
ENCODING 42723 
SWIDTH 495 0
DWIDTH 18 0
BBX 18 19 0 0
BITMAP 
0000
0300
0300
0300
0300
0300
0300
0300
ffff
ff00
0300
0300
0300
0300
0300
0300
0300
0000
0000
ENDCHAR
STARTCHAR a6e4
ENCODING 42724 
SWIDTH 495 0
DWIDTH 18 0
BBX 18 19 0 0
BITMAP 
0000
0180
0180
0180
0180
0180
0180
0180
ffff
01ff
0180
0180
0180
0180
0180
0180
0180
0000
0000
ENDCHAR
STARTCHAR a7a1
ENCODING 42913 
SWIDTH 495 0
DWIDTH 18 0
BBX 18 19 0 0
BITMAP 
0000
0018
0024
0024
0024
0024
2124
2124
2124
2128
6299
6299
5ce7
8000
8000
8000
8000
0000
0000
ENDCHAR
STARTCHAR a7a5
ENCODING 42917 
SWIDTH 495 0
DWIDTH 18 0
BBX 18 19 0 0
BITMAP 
0000
8004
800c
800c
8012
8012
8012
8012
8112
8212
8412
880c
900c
e808
8415
8225
81c3
0000
0000
ENDCHAR
STARTCHAR a7a7
ENCODING 42919 
SWIDTH 495 0
DWIDTH 18 0
BBX 18 19 0 0
BITMAP 
0000
000f
0001
0006
0001
000f
0000
0000
a452
da6d
9249
9249
9249
9249
9249
9249
9249
0000
0000
ENDCHAR
STARTCHAR a7a8
ENCODING 42920 
SWIDTH 495 0
DWIDTH 18 0
BBX 18 19 0 0
BITMAP 
0000
000f
0001
0006
0001
000f
0000
0000
3e52
426d
8049
8049
8049
8049
8049
4249
3e49
0000
0000
ENDCHAR
STARTCHAR a7a9
ENCODING 42921 
SWIDTH 495 0
DWIDTH 18 0
BBX 18 19 0 0
BITMAP 
0000
000f
0001
0006
0001
000f
0000
0000
2ee0
3320
2220
2220
2220
2220
2220
2220
2220
0000
0000
ENDCHAR
STARTCHAR a7aa
ENCODING 42922 
SWIDTH 495 0
DWIDTH 18 0
BBX 18 19 0 0
BITMAP 
0000
800f
8001
8006
8001
800f
8000
8000
8152
826d
8449
8849
9049
e849
8449
8249
8149
0000
0000
ENDCHAR
STARTCHAR a7ab
ENCODING 42923 
SWIDTH 495 0
DWIDTH 18 0
BBX 18 19 0 0
BITMAP 
0000
0c00
1200
1200
1000
1000
7c00
1000
1052
106d
1049
1049
1049
1049
1049
1049
1049
0000
0000
ENDCHAR
STARTCHAR a7ac
ENCODING 42924 
SWIDTH 495 0
DWIDTH 18 0
BBX 18 19 0 0
BITMAP 
0000
0000
0000
0000
0000
0000
0000
0000
bc52
c46d
8449
8449
8449
8449
8449
8449
8449
0000
0000
ENDCHAR
STARTCHAR a7ad
ENCODING 42925 
SWIDTH 495 0
DWIDTH 18 0
BBX 18 19 0 0
BITMAP 
0000
0000
0000
0000
0052
216d
2149
2149
2149
2149
6249
62c9
5cc9
8000
8000
8000
8000
0000
0000
ENDCHAR
STARTCHAR a7b1
ENCODING 42929 
SWIDTH 495 0
DWIDTH 18 0
BBX 18 19 0 0
BITMAP 
0000
0006
0009
0001
0002
0004
000f
0000
a452
da6d
9249
9249
9249
9249
9249
9249
9249
0000
0000
ENDCHAR
STARTCHAR a7b2
ENCODING 42930 
SWIDTH 495 0
DWIDTH 18 0
BBX 18 19 0 0
BITMAP 
0000
0006
0009
0001
0002
0004
000f
0000
3e52
426d
8049
8049
8049
8049
8049
4249
3e49
0000
0000
ENDCHAR
STARTCHAR a7b3
ENCODING 42931 
SWIDTH 495 0
DWIDTH 18 0
BBX 18 19 0 0
BITMAP 
0000
0006
0009
0001
0002
0004
000f
0000
2ee0
3320
2220
2220
2220
2220
2220
2220
2220
0000
0000
ENDCHAR
STARTCHAR a7b4
ENCODING 42932 
SWIDTH 495 0
DWIDTH 18 0
BBX 18 19 0 0
BITMAP 
0000
8006
8009
8001
8002
8004
800f
8000
8152
826d
8449
8849
9049
e849
8449
8249
8149
0000
0000
ENDCHAR
STARTCHAR a7b5
ENCODING 42933 
SWIDTH 495 0
DWIDTH 18 0
BBX 18 19 0 0
BITMAP 
0000
8000
8000
8000
8000
8000
8000
8000
be7e
c282
8202
823e
8242
8242
8242
8246
8239
0000
0000
ENDCHAR
STARTCHAR a7b6
ENCODING 42934 
SWIDTH 495 0
DWIDTH 18 0
BBX 18 19 0 0
BITMAP 
0000
001d
0022
0022
0022
001c
2108
211c
2122
2141
6241
6241
5dc1
803e
8000
8000
8000
0000
0000
ENDCHAR
STARTCHAR a7b9
ENCODING 42937 
SWIDTH 495 0
DWIDTH 18 0
BBX 18 19 0 0
BITMAP 
0000
8010
8010
8010
8010
807c
8010
8010
8110
8210
8410
8810
9010
e810
8410
8212
810e
0000
0000
ENDCHAR
STARTCHAR a7ba
ENCODING 42938 
SWIDTH 495 0
DWIDTH 18 0
BBX 18 19 0 0
BITMAP 
0000
0001
0001
0001
0001
0001
0001
0001
3cf9
4505
8005
807d
8085
8085
8085
848d
7c73
0000
0000
ENDCHAR
STARTCHAR a7bb
ENCODING 42939 
SWIDTH 495 0
DWIDTH 18 0
BBX 18 19 0 0
BITMAP 
0000
8001
8001
8001
8001
8001
8001
8001
8001
8bb9
9445
a405
c43d
c445
a445
94c5
8bbf
0000
0000
ENDCHAR
STARTCHAR a7bc
ENCODING 42940 
SWIDTH 495 0
DWIDTH 18 0
BBX 18 19 0 0
BITMAP 
0000
0000
0000
017c
0142
0141
0141
0141
0142
3d7c
4342
8141
8141
8141
8141
4342
3d7c
0000
0000
ENDCHAR
STARTCHAR a7bd
ENCODING 42941 
SWIDTH 495 0
DWIDTH 18 0
BBX 18 19 0 0
BITMAP 
0000
0000
0000
0000
0000
0000
0020
0020
ec2e
9251
9250
9250
928e
9281
92a1
9321
931e
0000
0000
ENDCHAR
STARTCHAR a7be
ENCODING 42942 
SWIDTH 495 0
DWIDTH 18 0
BBX 18 19 0 0
BITMAP 
0000
f600
8910
8916
8929
8922
8944
898f
8980
017c
0282
0280
047c
0802
1082
0082
007c
0000
0000
ENDCHAR
STARTCHAR a7bf
ENCODING 42943 
SWIDTH 495 0
DWIDTH 18 0
BBX 18 19 0 0
BITMAP 
0000
0000
0000
0000
bc3e
c241
8141
8140
813c
8102
8101
c241
bc41
803e
8000
8000
8000
0000
0000
ENDCHAR
STARTCHAR a7c0
ENCODING 42944 
SWIDTH 495 0
DWIDTH 18 0
BBX 18 19 0 0
BITMAP 
0000
0000
0000
0000
9e3e
6141
4141
4140
413c
4102
4101
4141
4141
413e
0000
0000
0000
0000
0000
ENDCHAR
STARTCHAR a7c1
ENCODING 42945 
SWIDTH 495 0
DWIDTH 18 0
BBX 18 19 0 0
BITMAP 
0000
0000
0000
0000
203e
2141
2141
2140
213c
4202
4201
6281
5c81
807e
8000
8000
8000
0000
0000
ENDCHAR
STARTCHAR a7c2
ENCODING 42946 
SWIDTH 495 0
DWIDTH 18 0
BBX 18 19 0 0
BITMAP 
0000
0000
0000
0000
f73e
88c1
88c1
88c0
88bc
8882
8881
88c1
88c1
88be
0000
0000
0000
0000
0000
ENDCHAR
STARTCHAR a7c3
ENCODING 42947 
SWIDTH 495 0
DWIDTH 18 0
BBX 18 19 0 0
BITMAP 
0000
0101
0101
0082
bc82
c282
8144
8144
8144
8128
8128
c228
bc10
8010
8000
8000
8000
0000
0000
ENDCHAR
STARTCHAR a7c4
ENCODING 42948 
SWIDTH 495 0
DWIDTH 18 0
BBX 18 19 0 0
BITMAP 
0000
0101
0101
0082
be82
c182
8144
8144
8144
8128
8128
8128
8110
0010
0000
0000
0000
0000
0000
ENDCHAR
STARTCHAR a7c5
ENCODING 42949 
SWIDTH 495 0
DWIDTH 18 0
BBX 18 19 0 0
BITMAP 
0000
0101
0101
0082
2082
2182
2144
2144
4244
4228
4228
4410
7810
8000
8000
8000
8000
0000
0000
ENDCHAR
STARTCHAR a7c6
ENCODING 42950 
SWIDTH 495 0
DWIDTH 18 0
BBX 18 19 0 0
BITMAP 
0000
0101
0101
0082
f682
8982
8944
8944
8944
8928
8928
8928
8910
0010
0000
0000
0000
0000
0000
ENDCHAR
STARTCHAR a7c7
ENCODING 42951 
SWIDTH 495 0
DWIDTH 18 0
BBX 18 19 0 0
BITMAP 
0000
8101
8101
8082
8682
8882
9044
a044
d044
8828
8428
8210
8110
0000
0000
0000
0000
0000
0000
ENDCHAR
STARTCHAR a7c8
ENCODING 42952 
SWIDTH 495 0
DWIDTH 18 0
BBX 18 19 0 0
BITMAP 
0000
80c1
c1c1
c1c1
a2a2
a2a2
94a2
94a2
9494
8894
8894
8888
8888
0000
0000
0000
0000
0000
0000
ENDCHAR
STARTCHAR a7c9
ENCODING 42953 
SWIDTH 495 0
DWIDTH 18 0
BBX 18 19 0 0
BITMAP 
0000
0010
0010
0028
bc28
c224
8144
8144
817e
8182
8182
c281
bd01
8000
8000
8000
8000
0000
0000
ENDCHAR
STARTCHAR a7ca
ENCODING 42954 
SWIDTH 495 0
DWIDTH 18 0
BBX 18 19 0 0
BITMAP 
0000
0010
0010
0028
bc28
c244
8244
8244
82fe
8282
8282
8301
8301
0000
0000
0000
0000
0000
0000
ENDCHAR
STARTCHAR a7cb
ENCODING 42955 
SWIDTH 495 0
DWIDTH 18 0
BBX 18 19 0 0
BITMAP 
0000
0010
0010
0028
2028
2124
2144
2144
427e
4282
4282
4481
7901
8000
8000
8000
8000
0000
0000
ENDCHAR
STARTCHAR a7cc
ENCODING 42956 
SWIDTH 495 0
DWIDTH 18 0
BBX 18 19 0 0
BITMAP 
0000
0008
0008
0014
f614
8924
8922
8922
897e
8942
8941
8981
8981
0000
0000
0000
0000
0000
0000
ENDCHAR
STARTCHAR a7cd
ENCODING 42957 
SWIDTH 495 0
DWIDTH 18 0
BBX 18 19 0 0
BITMAP 
0000
8010
8010
8028
8628
8828
9044
a044
d07e
8882
8482
8281
8101
0000
0000
0000
0000
0000
0000
ENDCHAR
STARTCHAR a7ce
ENCODING 42958 
SWIDTH 495 0
DWIDTH 18 0
BBX 18 19 0 0
BITMAP 
0000
0201
0201
0111
b911
c511
8312
82aa
82aa
82aa
82aa
c444
b844
8000
8000
8000
8000
0000
0000
ENDCHAR
STARTCHAR a7cf
ENCODING 42959 
SWIDTH 495 0
DWIDTH 18 0
BBX 18 19 0 0
BITMAP 
0000
0201
0201
0111
bd11
c311
8292
8292
82aa
82aa
82aa
8244
8244
0000
0000
0000
0000
0000
0000
ENDCHAR
STARTCHAR a7d0
ENCODING 42960 
SWIDTH 495 0
DWIDTH 18 0
BBX 18 19 0 0
BITMAP 
0000
0201
0201
0111
2111
2311
2312
22aa
42aa
42aa
44aa
4444
7844
8000
8000
8000
8000
0000
0000
ENDCHAR
STARTCHAR a7d1
ENCODING 42961 
SWIDTH 495 0
DWIDTH 18 0
BBX 18 19 0 0
BITMAP 
0000
0201
0201
0111
ed11
9311
9312
92aa
92aa
92aa
92aa
9244
9244
0000
0000
0000
0000
0000
0000
ENDCHAR
STARTCHAR a7d2
ENCODING 42962 
SWIDTH 495 0
DWIDTH 18 0
BBX 18 19 0 0
BITMAP 
0000
8201
8201
8111
8d11
9111
a112
c0aa
a0aa
90aa
88aa
8444
8244
0000
0000
0000
0000
0000
0000
ENDCHAR
STARTCHAR a7d3
ENCODING 42963 
SWIDTH 495 0
DWIDTH 18 0
BBX 18 19 0 0
BITMAP 
0000
0000
0000
0000
0000
0000
8301
c701
c711
aa91
aa92
92aa
92aa
92aa
82aa
8244
8244
0000
0000
ENDCHAR
STARTCHAR a7d4
ENCODING 42964 
SWIDTH 495 0
DWIDTH 18 0
BBX 18 19 0 0
BITMAP 
0000
0000
0000
0000
0210
0210
0210
0210
0210
021f
03f1
0212
0212
0214
0214
0218
021f
0000
0000
ENDCHAR
STARTCHAR a7d5
ENCODING 42965 
SWIDTH 495 0
DWIDTH 18 0
BBX 18 19 0 0
BITMAP 
0000
0000
0000
0000
8210
8210
8210
8210
8a10
921f
a3f1
c212
a212
9214
8a14
8618
821f
0000
0000
ENDCHAR
STARTCHAR a7d6
ENCODING 42966 
SWIDTH 495 0
DWIDTH 18 0
BBX 18 19 0 0
BITMAP 
0000
0000
0000
0000
8310
8310
c710
c710
ab10
ab1f
93f1
9312
9312
9314
9314
8318
831f
0000
0000
ENDCHAR
STARTCHAR a7d7
ENCODING 42967 
SWIDTH 495 0
DWIDTH 18 0
BBX 18 19 0 0
BITMAP 
0000
0000
0000
0000
3210
4a10
8610
8610
8210
821f
83f1
9e12
8612
8614
8614
4618
3a1f
0000
0000
ENDCHAR
STARTCHAR a7d8
ENCODING 42968 
SWIDTH 495 0
DWIDTH 18 0
BBX 18 19 0 0
BITMAP 
0000
0000
0000
0000
fe10
1210
1210
1210
1210
121f
13f1
1212
1212
1214
1214
1218
121f
0000
0000
ENDCHAR
STARTCHAR a7d9
ENCODING 42969 
SWIDTH 495 0
DWIDTH 18 0
BBX 18 19 0 0
BITMAP 
0000
0000
07e0
0810
1008
2004
2004
2004
2004
2004
1008
0810
0420
0240
0240
3e7c
0000
0000
0000
ENDCHAR
STARTCHAR a7da
ENCODING 42970 
SWIDTH 495 0
DWIDTH 18 0
BBX 18 19 0 0
BITMAP 
0000
0000
0000
0000
0000
8078
8084
8102
8a01
9201
a201
c201
a201
9201
8902
8484
83cf
0000
0000
ENDCHAR
STARTCHAR a7db
ENCODING 42971 
SWIDTH 495 0
DWIDTH 18 0
BBX 18 19 0 0
BITMAP 
0000
0000
0000
0000
0000
8238
c644
c682
ab01
ab01
ab01
9301
9301
9282
9282
8244
83cf
0000
0000
ENDCHAR
STARTCHAR a7dc
ENCODING 42972 
SWIDTH 495 0
DWIDTH 18 0
BBX 18 19 0 0
BITMAP 
0000
00ff
0081
0080
b880
c480
82fc
8280
8280
8280
8280
c480
b880
8080
8000
8000
8000
0000
0000
ENDCHAR
STARTCHAR a7dd
ENCODING 42973 
SWIDTH 495 0
DWIDTH 18 0
BBX 18 19 0 0
BITMAP 
0000
0000
0000
0000
00ff
0081
0080
fc80
8280
82fc
8280
8280
8280
8280
8280
8280
8280
0000
0000
ENDCHAR
STARTCHAR a7de
ENCODING 42974 
SWIDTH 495 0
DWIDTH 18 0
BBX 18 19 0 0
BITMAP 
0000
00ff
0081
0080
2180
2180
21fc
2180
4280
4280
4280
4680
7b80
8080
8000
8000
8000
0000
0000
ENDCHAR
STARTCHAR a7df
ENCODING 42975 
SWIDTH 495 0
DWIDTH 18 0
BBX 18 19 0 0
BITMAP 
0000
0000
0000
0001
0001
0001
ec71
9289
9289
9289
9289
9289
9289
9289
9289
9289
9271
0000
0000
ENDCHAR
STARTCHAR a7e0
ENCODING 42976 
SWIDTH 495 0
DWIDTH 18 0
BBX 18 19 0 0
BITMAP 
0000
0000
0002
0002
0002
0002
3802
443a
8446
8082
8082
8082
8082
8082
8482
4446
383a
0000
0000
ENDCHAR
STARTCHAR a7e1
ENCODING 42977 
SWIDTH 495 0
DWIDTH 18 0
BBX 18 19 0 0
BITMAP 
0000
0001
0001
0001
9b81
ac4f
c451
c051
83d1
8451
8451
8451
8451
8451
8451
8451
83cf
0000
0000
ENDCHAR
STARTCHAR a7e2
ENCODING 42978 
SWIDTH 495 0
DWIDTH 18 0
BBX 18 19 0 0
BITMAP 
0000
0001
0001
bb8f
c451
c051
83d1
8451
8451
83de
01ee
1e11
e010
000e
0021
0021
001e
0000
0000
ENDCHAR
STARTCHAR a7e3
ENCODING 42979 
SWIDTH 495 0
DWIDTH 18 0
BBX 18 19 0 0
BITMAP 
0000
0001
0001
bb8f
c451
8051
83d1
8451
845e
03a9
0ce1
3112
c10f
00e0
0210
0210
01e0
0000
0000
ENDCHAR
STARTCHAR a7e4
ENCODING 42980 
SWIDTH 495 0
DWIDTH 18 0
BBX 18 19 0 0
BITMAP 
0000
0000
0000
0000
0000
7098
84a0
84c0
80c0
8080
7080
0880
0480
0480
8480
8480
7800
0000
0000
ENDCHAR
STARTCHAR a7e5
ENCODING 42981 
SWIDTH 495 0
DWIDTH 18 0
BBX 18 19 0 0
BITMAP 
0000
bc00
c200
8100
8100
8100
813e
8141
c281
bc81
801f
8021
8041
8081
8081
8081
807f
0000
0000
ENDCHAR
STARTCHAR a7e6
ENCODING 42982 
SWIDTH 495 0
DWIDTH 18 0
BBX 18 19 0 0
BITMAP 
0000
85c0
8620
8410
8c10
9410
a410
a410
c62e
c5d1
a411
a401
a40f
9411
9421
8c21
8c1f
0000
0000
ENDCHAR
STARTCHAR a7e7
ENCODING 42983 
SWIDTH 495 0
DWIDTH 18 0
BBX 18 19 0 0
BITMAP 
0000
8bc0
da20
da10
da10
aa10
aa10
aa10
aa2e
abd1
aa11
aa01
aa0f
aa11
aa21
aa21
8a1f
0000
0000
ENDCHAR
STARTCHAR a7e8
ENCODING 42984 
SWIDTH 495 0
DWIDTH 18 0
BBX 18 19 0 0
BITMAP 
0000
72e0
4b10
8a10
8a10
8210
8210
8210
831e
baf1
8a11
8a01
8a0f
8a11
8a21
8a21
721f
0000
0000
ENDCHAR
STARTCHAR a7e9
ENCODING 42985 
SWIDTH 495 0
DWIDTH 18 0
BBX 18 19 0 0
BITMAP 
0000
8860
8860
8860
8c60
8c60
8c60
54a0
52ae
52b1
52a1
52a1
2121
2121
2121
2131
212e
0000
0000
ENDCHAR
STARTCHAR a7ea
ENCODING 42986 
SWIDTH 495 0
DWIDTH 18 0
BBX 18 19 0 0
BITMAP 
0000
8000
8000
8000
8000
8000
9660
9990
9110
9110
9110
9110
9110
9110
9110
9110
9110
0000
0000
ENDCHAR
STARTCHAR a7eb
ENCODING 42987 
SWIDTH 495 0
DWIDTH 18 0
BBX 18 19 0 0
BITMAP 
0000
8000
8000
8000
8000
8000
9010
8820
8440
8440
8280
8100
8280
8440
8440
8820
9010
0000
0000
ENDCHAR
STARTCHAR a7ec
ENCODING 42988 
SWIDTH 495 0
DWIDTH 18 0
BBX 18 19 0 0
BITMAP 
0000
fe00
8100
8100
8100
813f
fe41
8141
8141
8141
8141
8141
813f
fe01
0001
0001
0001
0000
0000
ENDCHAR
STARTCHAR a7ed
ENCODING 42989 
SWIDTH 495 0
DWIDTH 18 0
BBX 18 19 0 0
BITMAP 
0000
3c00
4200
8100
8100
8041
8041
9f41
8122
8122
8114
8114
4208
3c08
0010
0020
00c0
0000
0000
ENDCHAR
STARTCHAR a7ee
ENCODING 42990 
SWIDTH 495 0
DWIDTH 18 0
BBX 18 19 0 0
BITMAP 
0000
3c00
4200
8100
8000
8041
4041
3c22
0222
0122
0114
8114
8108
7e08
0000
0000
0000
0000
0000
ENDCHAR
STARTCHAR a7ef
ENCODING 42991 
SWIDTH 495 0
DWIDTH 18 0
BBX 18 19 0 0
BITMAP 
0000
7c04
c608
8210
8020
8040
8281
7d0e
0211
0631
0a4e
1288
230e
4311
8291
0251
022e
0000
0000
ENDCHAR
STARTCHAR a1f0
ENCODING 41456 
SWIDTH 495 0
DWIDTH 18 0
BBX 18 19 0 0
BITMAP 
0000
0000
0000
0000
0000
1e3c
2142
4080
4080
4080
4080
2142
1e3c
0000
0000
0000
0000
0000
0000
ENDCHAR
STARTCHAR a1f1
ENCODING 41457 
SWIDTH 495 0
DWIDTH 18 0
BBX 18 19 0 0
BITMAP 
0000
0000
0000
0000
300c
300c
0000
0000
0000
0000
0000
0000
0180
0180
0000
0000
0000
0000
0000
ENDCHAR
STARTCHAR a1f2
ENCODING 41458 
SWIDTH 495 0
DWIDTH 18 0
BBX 18 19 0 0
BITMAP 
0000
01c0
0240
0200
0200
0200
0100
0100
0100
0080
0080
0080
0040
0040
0040
0240
0380
0000
0000
ENDCHAR
STARTCHAR a1f3
ENCODING 41459 
SWIDTH 495 0
DWIDTH 18 0
BBX 18 19 0 0
BITMAP 
0000
0e38
1248
1040
1040
1040
0820
0820
0820
0410
0410
0410
0208
0208
0208
1248
1c70
0000
0000
ENDCHAR
STARTCHAR a1f4
ENCODING 41460 
SWIDTH 495 0
DWIDTH 18 0
BBX 18 19 0 0
BITMAP 
0000
0000
0000
0000
07f8
0800
1000
1000
1ff8
1000
1000
0800
07f8
0000
0000
0000
0000
0000
0000
ENDCHAR
STARTCHAR a1f5
ENCODING 41461 
SWIDTH 495 0
DWIDTH 18 0
BBX 18 19 0 0
BITMAP 
0000
0000
0000
0000
1fe0
0010
0008
0008
1ff8
0008
0008
0010
1fe0
0000
0000
0000
0000
0000
0000
ENDCHAR
STARTCHAR a1f6
ENCODING 41462 
SWIDTH 495 0
DWIDTH 18 0
BBX 18 19 0 0
BITMAP 
0000
0000
0000
0ffc
1000
2000
2000
2000
2000
1000
0ffc
0000
0000
3ffc
0000
0000
0000
0000
0000
ENDCHAR
STARTCHAR a1f7
ENCODING 41463 
SWIDTH 495 0
DWIDTH 18 0
BBX 18 19 0 0
BITMAP 
0000
0000
0000
3ff0
0008
0004
0004
0004
0004
0008
3ff0
0000
0000
3ffc
0000
0000
0000
0000
0000
ENDCHAR
STARTCHAR a1f8
ENCODING 41464 
SWIDTH 495 0
DWIDTH 18 0
BBX 18 19 0 0
BITMAP 
0000
0000
0000
0000
07fc
0800
1000
2000
2000
2000
2000
1000
0800
07fc
0000
0000
0000
0000
0000
ENDCHAR
STARTCHAR a1f9
ENCODING 41465 
SWIDTH 495 0
DWIDTH 18 0
BBX 18 19 0 0
BITMAP 
0000
0000
0000
0000
3fe0
0010
0008
0004
0004
0004
0004
0008
0010
3fe0
0000
0000
0000
0000
0000
ENDCHAR
STARTCHAR a1fa
ENCODING 41466 
SWIDTH 495 0
DWIDTH 18 0
BBX 18 19 0 0
BITMAP 
0000
0000
0000
1008
1008
1008
1008
1008
1008
1008
1008
1008
0810
0420
03c0
0000
0000
0000
0000
ENDCHAR
STARTCHAR a1fb
ENCODING 41467 
SWIDTH 495 0
DWIDTH 18 0
BBX 18 19 0 0
BITMAP 
0000
0000
0000
03c0
0420
0810
1008
1008
1008
1008
1008
1008
1008
1008
1008
0000
0000
0000
0000
ENDCHAR
STARTCHAR a1fc
ENCODING 41468 
SWIDTH 495 0
DWIDTH 18 0
BBX 18 19 0 0
BITMAP 
0000
0000
0000
0100
0100
0280
0280
0440
0440
0820
0820
1010
1010
2008
2008
0000
0000
0000
0000
ENDCHAR
STARTCHAR a1fd
ENCODING 41469 
SWIDTH 495 0
DWIDTH 18 0
BBX 18 19 0 0
BITMAP 
0000
0000
0000
2008
2008
1010
1010
0820
0820
0440
0440
0280
0280
0100
0100
0000
0000
0000
0000
ENDCHAR
STARTCHAR a2a1
ENCODING 41633 
SWIDTH 495 0
DWIDTH 18 0
BBX 18 19 0 0
BITMAP 
0000
0000
0000
0000
0010
0008
fffc
0002
0001
0002
fffc
0008
0010
0000
0000
0000
0000
0000
0000
ENDCHAR
STARTCHAR a2a2
ENCODING 41634 
SWIDTH 495 0
DWIDTH 18 0
BBX 18 19 0 0
BITMAP 
0000
0000
0000
0000
0810
1008
3ffc
4002
8001
4002
3ffc
1008
0810
0000
0000
0000
0000
0000
0000
ENDCHAR
STARTCHAR a2a3
ENCODING 41635 
SWIDTH 495 0
DWIDTH 18 0
BBX 18 19 0 0
BITMAP 
0000
0000
4004
4004
2008
2008
1ff0
1010
0820
0820
0440
0440
0280
0280
0100
0100
0000
0000
0000
ENDCHAR
STARTCHAR a2a4
ENCODING 41636 
SWIDTH 495 0
DWIDTH 18 0
BBX 18 19 0 0
BITMAP 
0000
0000
0000
1ff0
0010
0010
0010
0010
1ff0
0010
0010
0010
0010
1ff0
0000
0000
0000
0000
0000
ENDCHAR
STARTCHAR a2a5
ENCODING 41637 
SWIDTH 495 0
DWIDTH 18 0
BBX 18 19 0 0
BITMAP 
0000
0040
0080
0100
0000
0000
0000
0000
0000
0000
0000
0000
0000
0000
0000
0000
0000
0000
0000
ENDCHAR
STARTCHAR a2a6
ENCODING 41638 
SWIDTH 495 0
DWIDTH 18 0
BBX 18 19 0 0
BITMAP 
0000
0000
0e00
1104
2088
0070
0000
0000
0000
0000
0000
0000
0000
0000
0000
0000
0000
0000
0000
ENDCHAR
STARTCHAR a2a7
ENCODING 41639 
SWIDTH 495 0
DWIDTH 18 0
BBX 18 19 0 0
BITMAP 
0000
0000
1008
0810
0420
0240
0180
0000
0000
0000
0000
0000
0000
0000
0000
0000
0000
0000
0000
ENDCHAR
STARTCHAR a2a8
ENCODING 41640 
SWIDTH 495 0
DWIDTH 18 0
BBX 18 19 0 0
BITMAP 
0000
0000
1008
1008
0810
07e0
0000
0000
0000
0000
0000
0000
0000
0000
0000
0000
0000
0000
0000
ENDCHAR
STARTCHAR a2a9
ENCODING 41641 
SWIDTH 495 0
DWIDTH 18 0
BBX 18 19 0 0
BITMAP 
0000
0000
0330
0330
0660
0440
0880
0000
0000
0000
0000
0000
0000
0000
0000
0000
0000
0000
0000
ENDCHAR
STARTCHAR a2aa
ENCODING 41642 
SWIDTH 495 0
DWIDTH 18 0
BBX 18 19 0 0
BITMAP 
0000
0000
0380
0440
0440
0380
0000
0000
0000
0000
0000
0000
0000
0000
0000
0000
0000
0000
0000
ENDCHAR
STARTCHAR a2ab
ENCODING 41643 
SWIDTH 495 0
DWIDTH 18 0
BBX 18 19 0 0
BITMAP 
0000
0000
0000
0100
0380
0100
0000
0000
0000
0000
0000
0000
0000
0000
0000
0000
0000
0000
0000
ENDCHAR
STARTCHAR a2ac
ENCODING 41644 
SWIDTH 495 0
DWIDTH 18 0
BBX 18 19 0 0
BITMAP 
0000
0000
0000
0000
0180
0180
0100
0100
0080
0060
0130
0130
00e0
0000
0000
0000
0000
0000
0000
ENDCHAR
STARTCHAR a2ad
ENCODING 41645 
SWIDTH 495 0
DWIDTH 18 0
BBX 18 19 0 0
BITMAP 
0000
0000
0000
0000
0000
0100
0100
0200
0400
0c00
0c40
0780
0000
0000
0000
0000
0000
0000
0000
ENDCHAR
STARTCHAR a2ae
ENCODING 41646 
SWIDTH 495 0
DWIDTH 18 0
BBX 18 19 0 0
BITMAP 
0000
0080
01c0
0080
0000
0080
0080
0080
01c0
01c0
01c0
01c0
03e0
03e0
03e0
03e0
01c0
0000
0000
ENDCHAR
STARTCHAR a2af
ENCODING 41647 
SWIDTH 495 0
DWIDTH 18 0
BBX 18 19 0 0
BITMAP 
0000
0080
01c0
0080
0000
0080
0080
0080
0300
0400
0800
1010
1018
1008
1008
0810
07e0
0000
0000
ENDCHAR
STARTCHAR a2b0
ENCODING 41648 
SWIDTH 495 0
DWIDTH 18 0
BBX 18 19 0 0
BITMAP 
0000
0000
0000
0000
07c0
07c0
0380
0100
0000
0000
0100
0380
07c0
07c0
0000
0000
0000
0000
0000
ENDCHAR
STARTCHAR a2b1
ENCODING 41649 
SWIDTH 495 0
DWIDTH 18 0
BBX 18 19 0 0
BITMAP 
0000
0060
0080
0100
0100
0100
0100
0380
0540
0540
0380
0100
0100
0100
0100
0200
0c00
0000
0000
ENDCHAR
STARTCHAR a2b2
ENCODING 41650 
SWIDTH 495 0
DWIDTH 18 0
BBX 18 19 0 0
BITMAP 
0000
fffe
4001
2001
1000
0800
0400
0200
01c0
0100
0200
0400
0800
1000
2001
4001
fffe
0000
0000
ENDCHAR
STARTCHAR a2b3
ENCODING 41651 
SWIDTH 495 0
DWIDTH 18 0
BBX 18 19 0 0
BITMAP 
0000
ffff
0810
0810
0810
0810
0810
0810
0810
0810
0810
0810
0810
0810
0810
0810
0810
0000
0000
ENDCHAR
STARTCHAR a2b4
ENCODING 41652 
SWIDTH 495 0
DWIDTH 18 0
BBX 18 19 0 0
BITMAP 
0000
87e1
4812
300c
2004
4002
8001
8001
8001
8001
8001
8001
4002
2004
300c
4812
87e1
0000
0000
ENDCHAR
STARTCHAR a2b5
ENCODING 41653 
SWIDTH 495 0
DWIDTH 18 0
BBX 18 19 0 0
BITMAP 
0000
6000
9000
9000
6ffe
0801
0801
0800
0810
0ff0
0810
0800
0800
0800
0800
0800
0800
0000
0000
ENDCHAR
STARTCHAR a2b6
ENCODING 41654 
SWIDTH 495 0
DWIDTH 18 0
BBX 18 19 0 0
BITMAP 
0000
0000
3040
4840
4880
4900
4900
4a00
3400
058c
0a52
1252
1252
2252
4252
418c
0000
0000
0000
ENDCHAR
STARTCHAR a2b7
ENCODING 41655 
SWIDTH 495 0
DWIDTH 18 0
BBX 18 19 0 0
BITMAP 
0000
0003
0005
0019
0061
0181
0601
0801
3001
c001
3001
0c01
0301
00c1
0031
000d
0003
0000
0000
ENDCHAR
STARTCHAR a2b8
ENCODING 41656 
SWIDTH 495 0
DWIDTH 18 0
BBX 18 19 0 0
BITMAP 
0000
0003
0007
001f
007f
01ff
07ff
1fff
3fff
ffff
3fff
0fff
03ff
00ff
003f
000f
0003
0000
0000
ENDCHAR
STARTCHAR a2b9
ENCODING 41657 
SWIDTH 495 0
DWIDTH 18 0
BBX 18 19 0 0
BITMAP 
0000
c000
b000
8c00
8300
80c0
8030
8008
8004
8003
800c
8030
80c0
8300
8c00
b000
c000
0000
0000
ENDCHAR
STARTCHAR a2ba
ENCODING 41658 
SWIDTH 495 0
DWIDTH 18 0
BBX 18 19 0 0
BITMAP 
0000
c000
f000
fc00
ff00
ffc0
fff0
fff8
fffc
ffff
fffc
fff0
ffc0
ff00
fc00
f000
c000
0000
0000
ENDCHAR
STARTCHAR a2bb
ENCODING 41659 
SWIDTH 495 0
DWIDTH 18 0
BBX 18 19 0 0
BITMAP 
0000
0180
0180
0240
0420
0810
1008
2004
4002
8001
8001
8001
83c1
45a2
399c
0180
0180
0000
0000
ENDCHAR
STARTCHAR a2bc
ENCODING 41660 
SWIDTH 495 0
DWIDTH 18 0
BBX 18 19 0 0
BITMAP 
0000
0180
0180
03c0
07e0
0ff0
1ff8
3ffc
7ffe
ffff
ffff
ffff
ffff
7dbe
399c
0180
0180
0000
0000
ENDCHAR
STARTCHAR a2bd
ENCODING 41661 
SWIDTH 495 0
DWIDTH 18 0
BBX 18 19 0 0
BITMAP 
0000
1e38
2144
4082
8081
8001
8001
8001
8001
8001
4002
2004
1818
0620
0140
0080
0080
0000
0000
ENDCHAR
STARTCHAR a2be
ENCODING 41662 
SWIDTH 495 0
DWIDTH 18 0
BBX 18 19 0 0
BITMAP 
0000
1e38
3f7c
7ffe
ffff
ffff
ffff
ffff
ffff
ffff
7ffe
3ffc
1ff8
07e0
03c0
0080
0080
0000
0000
ENDCHAR
STARTCHAR a2bf
ENCODING 41663 
SWIDTH 495 0
DWIDTH 18 0
BBX 18 19 0 0
BITMAP 
0000
03c0
0420
0810
0810
381c
4422
8241
8181
8181
8181
43c2
3dbc
0180
0180
0180
0180
0000
0000
ENDCHAR
STARTCHAR a2c0
ENCODING 41664 
SWIDTH 495 0
DWIDTH 18 0
BBX 18 19 0 0
BITMAP 
0000
03c0
07e0
0ff0
0ff0
3ffc
7ffe
ffff
ffff
ffff
ffff
7ffe
3dbc
0180
0180
0180
0180
0000
0000
ENDCHAR
STARTCHAR a2c1
ENCODING 41665 
SWIDTH 495 0
DWIDTH 18 0
BBX 18 19 0 0
BITMAP 
0000
07e0
0810
1008
2004
4002
8001
8181
83c1
83c1
8181
8001
4002
2004
1008
0810
07e0
0000
0000
ENDCHAR
STARTCHAR a2c2
ENCODING 41666 
SWIDTH 495 0
DWIDTH 18 0
BBX 18 19 0 0
BITMAP 
0000
0180
0240
0420
0810
1188
23c4
47e2
8ff1
8ff1
47e2
23c4
1188
0810
0420
0240
0180
0000
0000
ENDCHAR
STARTCHAR a2c3
ENCODING 41667 
SWIDTH 495 0
DWIDTH 18 0
BBX 18 19 0 0
BITMAP 
0000
ffff
8001
8001
8001
8ff1
8ff1
8ff1
8ff1
8ff1
8ff1
8ff1
8ff1
8001
8001
8001
ffff
0000
0000
ENDCHAR
STARTCHAR a2c4
ENCODING 41668 
SWIDTH 495 0
DWIDTH 18 0
BBX 18 19 0 0
BITMAP 
0000
07e0
1f18
3f04
7f02
7f02
ff01
ff01
ff01
ff01
ff01
ff01
7f02
7f02
3f04
1f18
07e0
0000
0000
ENDCHAR
STARTCHAR a2c5
ENCODING 41669 
SWIDTH 495 0
DWIDTH 18 0
BBX 18 19 0 0
BITMAP 
0000
07e0
19f8
21fc
41fe
41fe
81ff
81ff
81ff
81ff
81ff
81ff
41fe
41fe
21fc
19f8
07e0
0000
0000
ENDCHAR
STARTCHAR a2c6
ENCODING 41670 
SWIDTH 495 0
DWIDTH 18 0
BBX 18 19 0 0
BITMAP 
0000
ffff
8001
8821
8001
9041
8401
8111
9001
8801
8041
8001
8211
9001
8021
8201
ffff
0000
0000
ENDCHAR
STARTCHAR a2c7
ENCODING 41671 
SWIDTH 495 0
DWIDTH 18 0
BBX 18 19 0 0
BITMAP 
0000
ffff
8001
8001
8001
ffff
8001
8001
8001
ffff
8001
8001
8001
ffff
8001
8001
ffff
0000
0000
ENDCHAR
STARTCHAR a2c8
ENCODING 41672 
SWIDTH 495 0
DWIDTH 18 0
BBX 18 19 0 0
BITMAP 
0000
ffff
8889
8889
8889
8889
8889
8889
8889
8889
8889
8889
8889
8889
8889
8889
ffff
0000
0000
ENDCHAR
STARTCHAR a2c9
ENCODING 41673 
SWIDTH 495 0
DWIDTH 18 0
BBX 18 19 0 0
BITMAP 
0000
ffff
8103
8205
8409
8811
9021
a041
c083
8105
8209
8411
8821
9041
a081
c101
ffff
0000
0000
ENDCHAR
STARTCHAR a2ca
ENCODING 41674 
SWIDTH 495 0
DWIDTH 18 0
BBX 18 19 0 0
BITMAP 
0000
ffff
c101
a081
9041
8821
8411
8209
c105
a083
9041
8821
8411
8209
8105
8083
ffff
0000
0000
ENDCHAR
STARTCHAR a2cb
ENCODING 41675 
SWIDTH 495 0
DWIDTH 18 0
BBX 18 19 0 0
BITMAP 
0000
ffff
8889
8889
8889
ffff
8889
8889
8889
ffff
8889
8889
8889
ffff
8889
8889
ffff
0000
0000
ENDCHAR
STARTCHAR a2cc
ENCODING 41676 
SWIDTH 495 0
DWIDTH 18 0
BBX 18 19 0 0
BITMAP 
0000
ffff
c083
a145
9229
8c11
8c29
9245
c183
c185
9249
8c31
8c31
9249
a185
c183
ffff
0000
0000
ENDCHAR
STARTCHAR a2cd
ENCODING 41677 
SWIDTH 495 0
DWIDTH 18 0
BBX 18 19 0 0
BITMAP 
0000
0490
0920
0920
0920
0920
0920
0490
0490
2494
4492
8491
8921
9241
8001
4002
3ffc
0000
0000
ENDCHAR
STARTCHAR a2ce
ENCODING 41678 
SWIDTH 495 0
DWIDTH 18 0
BBX 18 19 0 0
BITMAP 
0000
1ff8
2004
4002
8001
87e1
8421
fc3f
0420
1818
63c6
8421
85a1
8421
83c1
8001
ffff
0000
0000
ENDCHAR
STARTCHAR a2cf
ENCODING 41679 
SWIDTH 495 0
DWIDTH 18 0
BBX 18 19 0 0
BITMAP 
0000
1ff8
3ffc
7ffe
ffff
ffff
ffff
ffff
07e0
1ff8
7c3e
fbdf
fa5f
fbdf
fc3f
ffff
ffff
0000
0000
ENDCHAR
STARTCHAR a2d0
ENCODING 41680 
SWIDTH 495 0
DWIDTH 18 0
BBX 18 19 0 0
BITMAP 
0000
0000
0000
0000
0000
7f0f
80c5
803d
7f05
0805
07c5
0405
0785
0405
0785
041d
03ef
0000
0000
ENDCHAR
STARTCHAR a2d1
ENCODING 41681 
SWIDTH 495 0
DWIDTH 18 0
BBX 18 19 0 0
BITMAP 
0000
0000
0000
0000
0000
f0fe
a301
bc01
a0fe
a010
a1e0
a020
a1e0
a020
a1e0
b820
f7c0
0000
0000
ENDCHAR
STARTCHAR a2d2
ENCODING 41682 
SWIDTH 495 0
DWIDTH 18 0
BBX 18 19 0 0
BITMAP 
0000
3ff1
4011
8011
8011
8011
8011
4011
3ff1
0011
0011
0011
0011
0011
0011
0011
0011
0000
0000
ENDCHAR
STARTCHAR a2d3
ENCODING 41683 
SWIDTH 495 0
DWIDTH 18 0
BBX 18 19 0 0
BITMAP 
0000
0080
0080
0080
0080
0080
3ffc
0080
0080
0080
0080
0080
0080
0080
0080
0080
0080
0000
0000
ENDCHAR
STARTCHAR a2d4
ENCODING 41684 
SWIDTH 495 0
DWIDTH 18 0
BBX 18 19 0 0
BITMAP 
0000
0080
0080
0080
3ffc
0080
0080
3ffc
0080
0080
0080
0080
0080
0080
0080
0080
0080
0000
0000
ENDCHAR
STARTCHAR a2d5
ENCODING 41685 
SWIDTH 495 0
DWIDTH 18 0
BBX 18 19 0 0
BITMAP 
0000
0100
0380
07c0
0d60
0100
0100
0100
0100
0100
0100
0100
0100
0d60
07c0
0380
0100
0000
0000
ENDCHAR
STARTCHAR a2d6
ENCODING 41686 
SWIDTH 495 0
DWIDTH 18 0
BBX 18 19 0 0
BITMAP 
0000
007f
000f
0007
000b
0011
0021
0041
0080
0100
0200
0400
0800
1000
2000
4000
8000
0000
0000
ENDCHAR
STARTCHAR a2d7
ENCODING 41687 
SWIDTH 495 0
DWIDTH 18 0
BBX 18 19 0 0
BITMAP 
0000
0001
0002
0004
0008
0010
0020
0040
0080
0100
8200
8400
8800
d000
e000
f000
fe00
0000
0000
ENDCHAR
STARTCHAR a2d8
ENCODING 41688 
SWIDTH 495 0
DWIDTH 18 0
BBX 18 19 0 0
BITMAP 
0000
fe00
f000
e000
d000
8800
8400
8200
0100
0080
0040
0020
0010
0008
0004
0002
0001
0000
0000
ENDCHAR
STARTCHAR a2d9
ENCODING 41689 
SWIDTH 495 0
DWIDTH 18 0
BBX 18 19 0 0
BITMAP 
0000
8000
4000
2000
1000
0800
0400
0200
0100
0080
0041
0021
0011
000b
0007
000f
007f
0000
0000
ENDCHAR
STARTCHAR a2da
ENCODING 41690 
SWIDTH 495 0
DWIDTH 18 0
BBX 18 19 0 0
BITMAP 
0000
0800
0800
0800
0800
0800
0800
09c0
0a20
0c10
0810
0810
0820
0840
0880
0b00
0c00
0000
0000
ENDCHAR
STARTCHAR a2db
ENCODING 41691 
SWIDTH 495 0
DWIDTH 18 0
BBX 18 19 0 0
BITMAP 
0000
0080
0080
0080
0080
0080
0080
0080
0080
0080
0080
0180
0780
0f80
1f80
1f00
0c00
0000
0000
ENDCHAR
STARTCHAR a2dc
ENCODING 41692 
SWIDTH 495 0
DWIDTH 18 0
BBX 18 19 0 0
BITMAP 
0000
0080
0080
00c0
00a0
0090
0088
0084
0084
0084
0088
0090
0080
0f80
1f80
1f00
0e00
0000
0000
ENDCHAR
STARTCHAR a2dd
ENCODING 41693 
SWIDTH 495 0
DWIDTH 18 0
BBX 18 19 0 0
BITMAP 
0000
0fff
0801
0801
0fff
0801
0801
0801
0801
0801
0801
0801
1803
3807
780f
f01e
e01c
0000
0000
ENDCHAR
STARTCHAR a2de
ENCODING 41694 
SWIDTH 495 0
DWIDTH 18 0
BBX 18 19 0 0
BITMAP 
0000
1ff8
2004
4822
8841
8881
8901
8a00
8c00
fc0f
0a01
0901
8881
8841
4832
2004
1ff8
0000
0000
ENDCHAR
STARTCHAR a2df
ENCODING 41695 
SWIDTH 495 0
DWIDTH 18 0
BBX 18 19 0 0
BITMAP 
0000
2ff4
4032
4022
8041
8041
81e1
8731
b80d
8001
ffff
8081
8081
8081
4082
4082
2084
0000
0000
ENDCHAR
STARTCHAR a2e0
ENCODING 41696 
SWIDTH 495 0
DWIDTH 18 0
BBX 18 19 0 0
BITMAP 
0000
0000
8200
8200
c200
a270
a288
9288
9288
8a88
8a88
8688
8288
8288
8288
8273
0003
0000
0000
ENDCHAR
STARTCHAR a2e1
ENCODING 41697 
SWIDTH 495 0
DWIDTH 18 0
BBX 18 19 0 0
BITMAP 
0000
1c00
2200
4100
8100
8000
8000
8000
8070
8088
8088
8088
8088
8188
4188
228b
1c73
0000
0000
ENDCHAR
STARTCHAR a2e2
ENCODING 41698 
SWIDTH 495 0
DWIDTH 18 0
BBX 18 19 0 0
BITMAP 
0000
0000
0000
ff01
1101
1183
1145
1145
1129
1129
1111
1111
1111
1111
1101
1101
1101
0000
0000
ENDCHAR
STARTCHAR a2e3
ENCODING 41699 
SWIDTH 495 0
DWIDTH 18 0
BBX 18 19 0 0
BITMAP 
0000
0000
0000
7b76
8489
8489
0489
7c89
8489
8489
8489
8489
7e89
0000
0000
0000
0000
0000
0000
ENDCHAR
STARTCHAR a2e4
ENCODING 41700 
SWIDTH 495 0
DWIDTH 18 0
BBX 18 19 0 0
BITMAP 
0000
0000
0000
b376
c889
8489
8489
8489
8489
8489
8489
c889
b089
8000
8000
8000
8000
0000
0000
ENDCHAR
STARTCHAR a2e5
ENCODING 41701 
SWIDTH 495 0
DWIDTH 18 0
BBX 18 19 0 0
BITMAP 
0000
0000
fe00
1000
1000
13e8
1208
1208
1208
1208
13c8
1208
1208
1208
1208
13ef
0000
0000
0000
ENDCHAR
STARTCHAR a3a2
ENCODING 41890 
SWIDTH 495 0
DWIDTH 18 0
BBX 18 19 0 0
BITMAP 
0000
0660
0660
0660
0000
0000
0000
0000
0000
0000
0000
0000
0000
0000
0000
0000
0000
0000
0000
ENDCHAR
STARTCHAR aca1
ENCODING 44193 
SWIDTH 495 0
DWIDTH 18 0
BBX 18 19 0 0
BITMAP 
0000
0000
0180
0240
0240
0420
0420
0810
0810
1008
1008
3ffc
2004
4002
4002
4002
0000
0000
0000
ENDCHAR
STARTCHAR aca2
ENCODING 44194 
SWIDTH 495 0
DWIDTH 18 0
BBX 18 19 0 0
BITMAP 
0000
0000
3ff8
2000
2000
2000
2000
2000
3ff0
2008
2004
2004
2004
2004
2008
3ff0
0000
0000
0000
ENDCHAR
STARTCHAR aca3
ENCODING 44195 
SWIDTH 495 0
DWIDTH 18 0
BBX 18 19 0 0
BITMAP 
0000
0000
3ff0
2008
2004
2004
2004
2008
3ff0
2008
2004
2004
2004
2004
2008
3ff0
0000
0000
0000
ENDCHAR
STARTCHAR aca4
ENCODING 44196 
SWIDTH 495 0
DWIDTH 18 0
BBX 18 19 0 0
BITMAP 
0000
0000
1ffc
1000
1000
1000
1000
1000
1000
1000
1000
1000
1000
1000
1000
1000
0000
0000
0000
ENDCHAR
STARTCHAR aca5
ENCODING 44197 
SWIDTH 495 0
DWIDTH 18 0
BBX 18 19 0 0
BITMAP 
0000
0000
03f8
0208
0208
0408
0408
0408
0808
0808
0808
1008
1008
1008
2008
ffff
8001
0000
0000
ENDCHAR
STARTCHAR aca6
ENCODING 44198 
SWIDTH 495 0
DWIDTH 18 0
BBX 18 19 0 0
BITMAP 
0000
0000
1ff8
1000
1000
1000
1000
1000
1fe0
1000
1000
1000
1000
1000
1000
1ff8
0000
0000
0000
ENDCHAR
STARTCHAR aca7
ENCODING 44199 
SWIDTH 495 0
DWIDTH 18 0
BBX 18 19 0 0
BITMAP 
0000
0c60
0c60
0000
1ff8
1000
1000
1000
1000
1fe0
1000
1000
1000
1000
1000
1ff8
0000
0000
0000
ENDCHAR
STARTCHAR aca8
ENCODING 44200 
SWIDTH 495 0
DWIDTH 18 0
BBX 18 19 0 0
BITMAP 
0000
0000
8102
4104
2108
1110
0920
0540
07c0
0920
0920
1110
2108
2108
4104
8102
0000
0000
0000
ENDCHAR
STARTCHAR aca9
ENCODING 44201 
SWIDTH 495 0
DWIDTH 18 0
BBX 18 19 0 0
BITMAP 
0000
0000
0ff0
1008
2004
2004
0004
0008
07f0
0008
0004
0004
2004
2004
1008
0ff0
0000
0000
0000
ENDCHAR
STARTCHAR acaa
ENCODING 44202 
SWIDTH 495 0
DWIDTH 18 0
BBX 18 19 0 0
BITMAP 
0000
0000
2004
2004
200c
2014
2024
2044
2084
2104
2204
2404
2804
3004
2004
2004
0000
0000
0000
ENDCHAR
STARTCHAR acab
ENCODING 44203 
SWIDTH 495 0
DWIDTH 18 0
BBX 18 19 0 0
BITMAP 
0000
0420
2424
23c4
200c
2014
2024
2044
2084
2104
2204
2404
2804
3004
2004
2004
0000
0000
0000
ENDCHAR
STARTCHAR acac
ENCODING 44204 
SWIDTH 495 0
DWIDTH 18 0
BBX 18 19 0 0
BITMAP 
0000
0000
1008
1010
1020
1040
1080
1100
1200
1500
1880
1040
1020
1010
1008
1004
0000
0000
0000
ENDCHAR
STARTCHAR acad
ENCODING 44205 
SWIDTH 495 0
DWIDTH 18 0
BBX 18 19 0 0
BITMAP 
0000
0000
01f8
0108
0108
0208
0208
0208
0408
0408
0408
0808
0808
0808
1008
6008
0000
0000
0000
ENDCHAR
STARTCHAR acae
ENCODING 44206 
SWIDTH 495 0
DWIDTH 18 0
BBX 18 19 0 0
BITMAP 
0000
0000
c006
a00a
a00a
9012
9012
8822
8822
8442
8442
8282
8282
8102
8102
8002
0000
0000
0000
ENDCHAR
STARTCHAR acaf
ENCODING 44207 
SWIDTH 495 0
DWIDTH 18 0
BBX 18 19 0 0
BITMAP 
0000
0000
2004
2004
2004
2004
2004
2004
3ffc
2004
2004
2004
2004
2004
2004
2004
0000
0000
0000
ENDCHAR
STARTCHAR acb0
ENCODING 44208 
SWIDTH 495 0
DWIDTH 18 0
BBX 18 19 0 0
BITMAP 
0000
0000
07e0
0810
1008
2004
2004
2004
2004
2004
2004
2004
2004
1008
0810
07e0
0000
0000
0000
ENDCHAR
STARTCHAR acb1
ENCODING 44209 
SWIDTH 495 0
DWIDTH 18 0
BBX 18 19 0 0
BITMAP 
0000
0000
1ff8
1008
1008
1008
1008
1008
1008
1008
1008
1008
1008
1008
1008
1008
0000
0000
0000
ENDCHAR
STARTCHAR acb2
ENCODING 44210 
SWIDTH 495 0
DWIDTH 18 0
BBX 18 19 0 0
BITMAP 
0000
0000
3ff0
2008
2004
2004
2004
2004
2008
3ff0
2000
2000
2000
2000
2000
2000
0000
0000
0000
ENDCHAR
STARTCHAR acb3
ENCODING 44211 
SWIDTH 495 0
DWIDTH 18 0
BBX 18 19 0 0
BITMAP 
0000
0000
07f0
0808
1004
2004
2000
2000
2000
2000
2000
2004
2004
1004
0808
07f0
0000
0000
0000
ENDCHAR
STARTCHAR acb4
ENCODING 44212 
SWIDTH 495 0
DWIDTH 18 0
BBX 18 19 0 0
BITMAP 
0000
0000
7ffc
0100
0100
0100
0100
0100
0100
0100
0100
0100
0100
0100
0100
0100
0000
0000
0000
ENDCHAR
STARTCHAR acb5
ENCODING 44213 
SWIDTH 495 0
DWIDTH 18 0
BBX 18 19 0 0
BITMAP 
0000
0000
2002
1004
1004
0808
0808
0410
0410
0220
0220
0140
0080
0100
0200
1c00
0000
0000
0000
ENDCHAR
STARTCHAR acb6
ENCODING 44214 
SWIDTH 495 0
DWIDTH 18 0
BBX 18 19 0 0
BITMAP 
0000
0000
0100
0100
0fe0
1110
2108
4104
4104
4104
4104
2108
1110
0fe0
0100
0100
0000
0000
0000
ENDCHAR
STARTCHAR acb7
ENCODING 44215 
SWIDTH 495 0
DWIDTH 18 0
BBX 18 19 0 0
BITMAP 
0000
0000
4004
2008
1010
0820
0440
0280
0100
0100
0280
0440
0820
1010
2008
4004
0000
0000
0000
ENDCHAR
STARTCHAR acb8
ENCODING 44216 
SWIDTH 495 0
DWIDTH 18 0
BBX 18 19 0 0
BITMAP 
0000
0000
1010
1010
1010
1010
1010
1010
1010
1010
1010
1010
1010
1010
1010
1ffe
0002
0000
0000
ENDCHAR
STARTCHAR acb9
ENCODING 44217 
SWIDTH 495 0
DWIDTH 18 0
BBX 18 19 0 0
BITMAP 
0000
0000
2008
2008
2008
2008
2008
2008
2008
1018
0fe8
0008
0008
0008
0008
0008
0000
0000
0000
ENDCHAR
STARTCHAR acba
ENCODING 44218 
SWIDTH 495 0
DWIDTH 18 0
BBX 18 19 0 0
BITMAP 
0000
0000
4104
4104
4104
4104
4104
4104
4104
4104
4104
4104
4104
4104
4104
7ffc
0000
0000
0000
ENDCHAR
STARTCHAR acbb
ENCODING 44219 
SWIDTH 495 0
DWIDTH 18 0
BBX 18 19 0 0
BITMAP 
0000
0000
4104
4104
4104
4104
4104
4104
4104
4104
4104
4104
4104
4104
4104
7fff
0001
0000
0000
ENDCHAR
STARTCHAR acbc
ENCODING 44220 
SWIDTH 495 0
DWIDTH 18 0
BBX 18 19 0 0
BITMAP 
0000
0000
f800
0800
0800
0800
0800
0800
0ff0
0808
0804
0804
0804
0804
0808
0ff0
0000
0000
0000
ENDCHAR
STARTCHAR acbd
ENCODING 44221 
SWIDTH 495 0
DWIDTH 18 0
BBX 18 19 0 0
BITMAP 
0000
0000
2004
2004
2004
2004
2004
2004
3f84
2044
2024
2024
2024
2024
2044
3f84
0000
0000
0000
ENDCHAR
STARTCHAR acbe
ENCODING 44222 
SWIDTH 495 0
DWIDTH 18 0
BBX 18 19 0 0
BITMAP 
0000
0000
1000
1000
1000
1000
1000
1000
1ff0
1008
1004
1004
1004
1004
1008
1ff0
0000
0000
0000
ENDCHAR
STARTCHAR acbf
ENCODING 44223 
SWIDTH 495 0
DWIDTH 18 0
BBX 18 19 0 0
BITMAP 
0000
0000
0fe0
1010
2008
2004
0004
0004
07fc
0004
0004
0004
2004
2008
1010
0fe0
0000
0000
0000
ENDCHAR
STARTCHAR acc0
ENCODING 44224 
SWIDTH 495 0
DWIDTH 18 0
BBX 18 19 0 0
BITMAP 
0000
0000
81f8
8204
8402
8801
8801
8801
f801
8801
8801
8801
8801
8402
8204
81f8
0000
0000
0000
ENDCHAR
STARTCHAR acc1
ENCODING 44225 
SWIDTH 495 0
DWIDTH 18 0
BBX 18 19 0 0
BITMAP 
0000
0000
0ff8
1008
2008
2008
2008
2008
1008
0ff8
0108
0208
0408
0808
1008
2008
0000
0000
0000
ENDCHAR
STARTCHAR acd1
ENCODING 44241 
SWIDTH 495 0
DWIDTH 18 0
BBX 18 19 0 0
BITMAP 
0000
0000
0000
0000
07c0
0820
1010
0010
07f0
0810
1010
1010
1010
1010
0828
07c4
0000
0000
0000
ENDCHAR
STARTCHAR acd2
ENCODING 44242 
SWIDTH 495 0
DWIDTH 18 0
BBX 18 19 0 0
BITMAP 
0000
0000
0020
07c0
0800
1000
17c0
1820
1010
1010
1010
1010
1010
1010
0820
07c0
0000
0000
0000
ENDCHAR
STARTCHAR acd3
ENCODING 44243 
SWIDTH 495 0
DWIDTH 18 0
BBX 18 19 0 0
BITMAP 
0000
0000
0000
0000
1fe0
1010
1008
1008
1010
1fe0
1010
1008
1008
1008
1010
1fe0
0000
0000
0000
ENDCHAR
STARTCHAR acd4
ENCODING 44244 
SWIDTH 495 0
DWIDTH 18 0
BBX 18 19 0 0
BITMAP 
0000
0000
0000
0000
1ff8
1000
1000
1000
1000
1000
1000
1000
1000
1000
1000
1000
0000
0000
0000
ENDCHAR
STARTCHAR acd5
ENCODING 44245 
SWIDTH 495 0
DWIDTH 18 0
BBX 18 19 0 0
BITMAP 
0000
0000
0000
0000
01f8
0108
0108
0208
0208
0208
0408
0408
0408
0808
1008
7ffe
4002
0000
0000
ENDCHAR
STARTCHAR acd6
ENCODING 44246 
SWIDTH 495 0
DWIDTH 18 0
BBX 18 19 0 0
BITMAP 
0000
0000
0000
0000
07e0
0810
1008
1008
1008
1ff8
1000
1000
1000
1008
0810
07e0
0000
0000
0000
ENDCHAR
STARTCHAR acd7
ENCODING 44247 
SWIDTH 495 0
DWIDTH 18 0
BBX 18 19 0 0
BITMAP 
0000
0660
0660
0000
07e0
0810
1008
1008
1008
1ff8
1000
1000
1000
1008
0810
07e0
0000
0000
0000
ENDCHAR
STARTCHAR acd8
ENCODING 44248 
SWIDTH 495 0
DWIDTH 18 0
BBX 18 19 0 0
BITMAP 
0000
0000
0000
0000
4104
2108
1110
0920
0540
0380
0540
0920
1110
2108
4104
8102
0000
0000
0000
ENDCHAR
STARTCHAR acd9
ENCODING 44249 
SWIDTH 495 0
DWIDTH 18 0
BBX 18 19 0 0
BITMAP 
0000
0000
0000
0000
07e0
0810
1008
0008
0010
03e0
0010
0008
0008
1008
0810
07e0
0000
0000
0000
ENDCHAR
STARTCHAR acda
ENCODING 44250 
SWIDTH 495 0
DWIDTH 18 0
BBX 18 19 0 0
BITMAP 
0000
0000
0000
0000
1008
1018
1028
1048
1048
1088
1108
1208
1208
1408
1808
1008
0000
0000
0000
ENDCHAR
STARTCHAR acdb
ENCODING 44251 
SWIDTH 495 0
DWIDTH 18 0
BBX 18 19 0 0
BITMAP 
0000
0420
0420
03c0
1008
1018
1028
1048
1048
1088
1108
1208
1208
1408
1808
1008
0000
0000
0000
ENDCHAR
STARTCHAR acdc
ENCODING 44252 
SWIDTH 495 0
DWIDTH 18 0
BBX 18 19 0 0
BITMAP 
0000
0000
0000
0000
0810
0820
0840
0880
0900
0e00
0900
0880
0840
0820
0810
0808
0000
0000
0000
ENDCHAR
STARTCHAR acdd
ENCODING 44253 
SWIDTH 495 0
DWIDTH 18 0
BBX 18 19 0 0
BITMAP 
0000
0000
0000
0000
01f8
0108
0108
0208
0208
0208
0408
0408
0408
0808
1008
2008
0000
0000
0000
ENDCHAR
STARTCHAR acde
ENCODING 44254 
SWIDTH 495 0
DWIDTH 18 0
BBX 18 19 0 0
BITMAP 
0000
0000
0000
0000
600c
5014
5014
4824
4824
4444
4444
4284
4284
4104
4104
4004
0000
0000
0000
ENDCHAR
STARTCHAR acdf
ENCODING 44255 
SWIDTH 495 0
DWIDTH 18 0
BBX 18 19 0 0
BITMAP 
0000
0000
0000
0000
1008
1008
1008
1008
1008
1ff8
1008
1008
1008
1008
1008
1008
0000
0000
0000
ENDCHAR
STARTCHAR ace0
ENCODING 44256 
SWIDTH 495 0
DWIDTH 18 0
BBX 18 19 0 0
BITMAP 
0000
0000
0000
0000
07e0
0810
1008
1008
1008
1008
1008
1008
1008
1008
0810
07e0
0000
0000
0000
ENDCHAR
STARTCHAR ace1
ENCODING 44257 
SWIDTH 495 0
DWIDTH 18 0
BBX 18 19 0 0
BITMAP 
0000
0000
0000
0000
1ff8
1008
1008
1008
1008
1008
1008
1008
1008
1008
1008
1008
0000
0000
0000
ENDCHAR
STARTCHAR ace2
ENCODING 44258 
SWIDTH 495 0
DWIDTH 18 0
BBX 18 19 0 0
BITMAP 
0000
0000
0000
0000
1fe0
1010
1008
1008
1008
1008
1008
1010
1fe0
1000
1000
1000
1000
0000
0000
ENDCHAR
STARTCHAR ace3
ENCODING 44259 
SWIDTH 495 0
DWIDTH 18 0
BBX 18 19 0 0
BITMAP 
0000
0000
0000
0000
07e0
0810
1008
1000
1000
1000
1000
1000
1000
1008
0810
07e0
0000
0000
0000
ENDCHAR
STARTCHAR ace4
ENCODING 44260 
SWIDTH 495 0
DWIDTH 18 0
BBX 18 19 0 0
BITMAP 
0000
0000
0000
0000
3ff8
0100
0100
0100
0100
0100
0100
0100
0100
0100
0100
0100
0000
0000
0000
ENDCHAR
STARTCHAR ace5
ENCODING 44261 
SWIDTH 495 0
DWIDTH 18 0
BBX 18 19 0 0
BITMAP 
0000
0000
0000
0000
2004
1004
0808
0808
0410
0210
0220
0120
00c0
0040
0080
0080
0f00
0000
0000
ENDCHAR
STARTCHAR ace6
ENCODING 44262 
SWIDTH 495 0
DWIDTH 18 0
BBX 18 19 0 0
BITMAP 
0000
0000
0100
0100
1d70
2388
4104
4104
4104
4104
4104
4104
4104
2388
1d70
0100
0100
0000
0000
ENDCHAR
STARTCHAR ace7
ENCODING 44263 
SWIDTH 495 0
DWIDTH 18 0
BBX 18 19 0 0
BITMAP 
0000
0000
0000
0000
2008
1010
0820
0440
0280
0100
0280
0440
0820
1010
2008
4004
0000
0000
0000
ENDCHAR
STARTCHAR ace8
ENCODING 44264 
SWIDTH 495 0
DWIDTH 18 0
BBX 18 19 0 0
BITMAP 
0000
0000
0000
0000
1010
1010
1010
1010
1010
1010
1010
1010
1010
1010
1010
1ffc
0004
0000
0000
ENDCHAR
STARTCHAR ace9
ENCODING 44265 
SWIDTH 495 0
DWIDTH 18 0
BBX 18 19 0 0
BITMAP 
0000
0000
0000
0000
0810
0810
0810
0810
0810
0810
0810
07f0
0010
0010
0010
0010
0000
0000
0000
ENDCHAR
STARTCHAR acea
ENCODING 44266 
SWIDTH 495 0
DWIDTH 18 0
BBX 18 19 0 0
BITMAP 
0000
0000
0000
0000
4104
4104
4104
4104
4104
4104
4104
4104
4104
4104
4104
7ffc
0000
0000
0000
ENDCHAR
STARTCHAR aceb
ENCODING 44267 
SWIDTH 495 0
DWIDTH 18 0
BBX 18 19 0 0
BITMAP 
0000
0000
0000
0000
4104
4104
4104
4104
4104
4104
4104
4104
4104
4104
4104
7fff
0001
0000
0000
ENDCHAR
STARTCHAR acec
ENCODING 44268 
SWIDTH 495 0
DWIDTH 18 0
BBX 18 19 0 0
BITMAP 
0000
0000
0000
0000
7c00
0400
0400
0400
0400
07f0
0408
0404
0404
0404
0408
07f0
0000
0000
0000
ENDCHAR
STARTCHAR aced
ENCODING 44269 
SWIDTH 495 0
DWIDTH 18 0
BBX 18 19 0 0
BITMAP 
0000
0000
0000
0000
2004
2004
2004
2004
2004
3f84
2044
2024
2024
2024
2044
3f84
0000
0000
0000
ENDCHAR
STARTCHAR acee
ENCODING 44270 
SWIDTH 495 0
DWIDTH 18 0
BBX 18 19 0 0
BITMAP 
0000
0000
0000
0000
0800
0800
0800
0800
0800
0fe0
0810
0808
0808
0808
0810
0fe0
0000
0000
0000
ENDCHAR
STARTCHAR acf0
ENCODING 44272 
SWIDTH 495 0
DWIDTH 18 0
BBX 18 19 0 0
BITMAP 
0000
0000
0000
0000
41f0
4208
4404
4404
4404
7c04
4404
4404
4404
4404
4208
41f0
0000
0000
0000
ENDCHAR
STARTCHAR acef
ENCODING 44271 
SWIDTH 495 0
DWIDTH 18 0
BBX 18 19 0 0
BITMAP 
0000
0000
0000
0000
03c0
0420
0810
1008
0008
03f8
0008
0008
1008
0810
0420
03c0
0000
0000
0000
ENDCHAR
STARTCHAR acf1
ENCODING 44273 
SWIDTH 495 0
DWIDTH 18 0
BBX 18 19 0 0
BITMAP 
0000
0000
0000
0000
07f8
0808
1008
1008
1008
0808
07f8
0108
0208
0408
0808
1008
0000
0000
0000
ENDCHAR
STARTCHAR a8a1
ENCODING 43169 
SWIDTH 495 0
DWIDTH 18 0
BBX 18 19 0 0
BITMAP 
0000
07ff
0a00
0a00
0a00
1100
1100
1100
2080
3fff
2080
4040
4040
4040
8020
8020
8020
0000
0000
ENDCHAR
STARTCHAR a8a2
ENCODING 43170 
SWIDTH 495 0
DWIDTH 18 0
BBX 18 19 0 0
BITMAP 
0000
1fc0
1020
1010
1008
1008
1008
1008
fe08
1008
1008
1008
1008
1008
1010
1020
1fc0
0000
0000
ENDCHAR
STARTCHAR a8a3
ENCODING 43171 
SWIDTH 495 0
DWIDTH 18 0
BBX 18 19 0 0
BITMAP 
0000
0000
0000
03c0
0420
0810
0810
0010
03f0
0410
0810
0810
0810
07f8
0000
0000
7ffe
0000
0000
ENDCHAR
STARTCHAR a8a4
ENCODING 43172 
SWIDTH 495 0
DWIDTH 18 0
BBX 18 19 0 0
BITMAP 
0000
3870
1020
1020
fffc
1020
1020
1020
1020
1fe0
1020
1020
1020
1020
1020
1020
3870
0000
0000
ENDCHAR
STARTCHAR a8a6
ENCODING 43174 
SWIDTH 495 0
DWIDTH 18 0
BBX 18 19 0 0
BITMAP 
0000
7070
2020
2020
2020
2020
2020
2020
2020
2020
2020
2020
2020
7420
0420
0440
0380
0000
0000
ENDCHAR
STARTCHAR a8a8
ENCODING 43176 
SWIDTH 495 0
DWIDTH 18 0
BBX 18 19 0 0
BITMAP 
0000
e000
4000
4000
4000
4000
4010
4038
4038
4010
4000
4000
4010
4010
4010
7ff0
0000
0000
0000
ENDCHAR
STARTCHAR a8a9
ENCODING 43177 
SWIDTH 495 0
DWIDTH 18 0
BBX 18 19 0 0
BITMAP 
0000
3800
1000
1200
1400
1800
1000
3000
5000
9000
1000
1000
1010
1010
1010
1ff0
0000
0000
0000
ENDCHAR
STARTCHAR a8aa
ENCODING 43178 
SWIDTH 495 0
DWIDTH 18 0
BBX 18 19 0 0
BITMAP 
0000
0001
0ff2
100c
200c
4012
4022
4042
4082
4102
4202
4402
4802
3004
3008
4ff0
8000
0000
0000
ENDCHAR
STARTCHAR a8ab
ENCODING 43179 
SWIDTH 495 0
DWIDTH 18 0
BBX 18 19 0 0
BITMAP 
0000
0000
0000
7f00
8080
80ff
8080
8080
8080
80ff
8080
8080
8080
80ff
7f00
0000
0000
0000
0000
ENDCHAR
STARTCHAR a8ac
ENCODING 43180 
SWIDTH 495 0
DWIDTH 18 0
BBX 18 19 0 0
BITMAP 
0000
0000
03c0
0220
0410
0410
0410
0220
03c0
0000
0000
0000
ffff
0000
0000
0000
0000
0000
0000
ENDCHAR
STARTCHAR a8ad
ENCODING 43181 
SWIDTH 495 0
DWIDTH 18 0
BBX 18 19 0 0
BITMAP 
0000
7e00
1800
1800
1fe0
1810
1810
1808
1808
1808
1808
1810
1810
1fe0
1800
1800
7e00
0000
0000
ENDCHAR
STARTCHAR a8ae
ENCODING 43182 
SWIDTH 495 0
DWIDTH 18 0
BBX 18 19 0 0
BITMAP 
0000
3ffc
2184
0180
0180
0180
0180
3ffc
0180
0180
0180
0180
0180
0180
0180
0180
03c0
0000
0000
ENDCHAR
STARTCHAR a8af
ENCODING 43183 
SWIDTH 495 0
DWIDTH 18 0
BBX 18 19 0 0
BITMAP 
0000
4000
4000
7fc0
4020
4010
4008
4008
4008
4008
4008
4008
4010
4020
7fc0
4000
4000
0000
0000
ENDCHAR
STARTCHAR a8b1
ENCODING 43185 
SWIDTH 495 0
DWIDTH 18 0
BBX 18 19 0 0
BITMAP 
0000
07e0
1818
2004
4002
4ff2
8011
8011
8011
8011
8011
8011
4012
4012
2004
1818
07e0
0000
0000
ENDCHAR
STARTCHAR a8b2
ENCODING 43186 
SWIDTH 495 0
DWIDTH 18 0
BBX 18 19 0 0
BITMAP 
0000
07e0
1818
2004
4002
4802
8801
8801
8801
8801
8801
8801
4802
4ff2
2004
1818
07e0
0000
0000
ENDCHAR
STARTCHAR a8b3
ENCODING 43187 
SWIDTH 495 0
DWIDTH 18 0
BBX 18 19 0 0
BITMAP 
0000
07e0
1818
2004
4002
4ff2
8801
8801
8801
8801
8801
8801
4802
4ff2
2004
1818
07e0
0000
0000
ENDCHAR
STARTCHAR a8b4
ENCODING 43188 
SWIDTH 495 0
DWIDTH 18 0
BBX 18 19 0 0
BITMAP 
0000
07e0
1818
2004
4002
4ff2
8011
8011
8011
8ff1
8801
8801
4802
4ffa
2004
1818
07e0
0000
0000
ENDCHAR
STARTCHAR a8b5
ENCODING 43189 
SWIDTH 495 0
DWIDTH 18 0
BBX 18 19 0 0
BITMAP 
0000
07e0
1818
2004
4002
4ffa
8809
8809
8809
8809
8809
8809
480a
4ffa
2004
1818
07e0
0000
0000
ENDCHAR
STARTCHAR a8b6
ENCODING 43190 
SWIDTH 495 0
DWIDTH 18 0
BBX 18 19 0 0
BITMAP 
0000
07e0
1818
2004
4812
4812
8811
8811
8ff1
8811
8811
8811
4812
4ff2
2004
1818
07e0
0000
0000
ENDCHAR
STARTCHAR a8b7
ENCODING 43191 
SWIDTH 495 0
DWIDTH 18 0
BBX 18 19 0 0
BITMAP 
0000
07e0
1818
2104
4102
4102
8101
8101
8301
8281
8441
8421
581a
4002
2004
1818
07e0
0000
0000
ENDCHAR
STARTCHAR a8b8
ENCODING 43192 
SWIDTH 495 0
DWIDTH 18 0
BBX 18 19 0 0
BITMAP 
0000
07e0
1818
2004
43c2
4422
8811
9009
9009
9009
9009
8811
4422
43c2
2004
1818
07e0
0000
0000
ENDCHAR
STARTCHAR a8b9
ENCODING 43193 
SWIDTH 495 0
DWIDTH 18 0
BBX 18 19 0 0
BITMAP 
0000
07e0
1818
2004
4002
4ffa
8081
8081
8081
8081
8181
8241
4422
581a
2004
1818
07e0
0000
0000
ENDCHAR
STARTCHAR a8ba
ENCODING 43194 
SWIDTH 495 0
DWIDTH 18 0
BBX 18 19 0 0
BITMAP 
0000
0ff0
1008
23c4
4002
bffd
8021
8021
8041
8041
80c1
8141
8221
4412
380c
1008
0ff0
0000
0000
ENDCHAR
STARTCHAR a8bb
ENCODING 43195 
SWIDTH 495 0
DWIDTH 18 0
BBX 18 19 0 0
BITMAP 
0000
07e0
1818
2004
4ff2
4012
8011
8011
9ff1
8011
8011
8011
4012
4012
2004
1818
07e0
0000
0000
ENDCHAR
STARTCHAR a8bc
ENCODING 43196 
SWIDTH 495 0
DWIDTH 18 0
BBX 18 19 0 0
BITMAP 
0000
07e0
1818
2004
4002
4ff2
8801
8801
8801
8ff1
8801
8801
4802
4ff2
2004
1818
07e0
0000
0000
ENDCHAR
STARTCHAR a8bd
ENCODING 43197 
SWIDTH 495 0
DWIDTH 18 0
BBX 18 19 0 0
BITMAP 
0000
07e0
1818
2004
4002
5ffa
8421
8421
8421
8421
8421
8421
4422
5ffa
2004
1818
07e0
0000
0000
ENDCHAR
STARTCHAR a8be
ENCODING 43198 
SWIDTH 495 0
DWIDTH 18 0
BBX 18 19 0 0
BITMAP 
0000
07e0
1818
2004
43c2
4002
8001
9ff9
8001
83c1
8421
8421
4422
43c2
2004
1818
07e0
0000
0000
ENDCHAR
STARTCHAR a8bf
ENCODING 43199 
SWIDTH 495 0
DWIDTH 18 0
BBX 18 19 0 0
BITMAP 
0000
07e0
1818
2024
4022
5f22
8121
8121
8239
8221
8421
8821
5022
4022
2024
1818
07e0
0000
0000
ENDCHAR
STARTCHAR a8c0
ENCODING 43200 
SWIDTH 495 0
DWIDTH 18 0
BBX 18 19 0 0
BITMAP 
0000
07e0
1818
2024
4022
4822
8821
8821
8839
8821
8fe1
8021
4022
4022
2024
1818
07e0
0000
0000
ENDCHAR
STARTCHAR a8c1
ENCODING 43201 
SWIDTH 495 0
DWIDTH 18 0
BBX 18 19 0 0
BITMAP 
0000
07e0
1818
2024
4022
4fe2
8821
8821
8839
8821
8821
8fe1
4022
4022
2024
1838
07e0
0000
0000
ENDCHAR
STARTCHAR a8c2
ENCODING 43202 
SWIDTH 495 0
DWIDTH 18 0
BBX 18 19 0 0
BITMAP 
0000
07e0
1818
2024
4022
5f22
8121
8121
9f39
9021
9021
9fa1
4022
4022
2024
1818
07e0
0000
0000
ENDCHAR
STARTCHAR a8c3
ENCODING 43203 
SWIDTH 495 0
DWIDTH 18 0
BBX 18 19 0 0
BITMAP 
0000
07e0
1818
2024
4022
5f22
9121
9121
9139
9121
9121
9f21
4022
4022
2024
1818
07e0
0000
0000
ENDCHAR
STARTCHAR a8c4
ENCODING 43204 
SWIDTH 495 0
DWIDTH 18 0
BBX 18 19 0 0
BITMAP 
0000
07e0
1818
2024
4022
5122
9121
9121
9f39
9121
9121
9121
5f22
4022
2024
1818
07e0
0000
0000
ENDCHAR
STARTCHAR a8c5
ENCODING 43205 
SWIDTH 495 0
DWIDTH 18 0
BBX 18 19 0 0
BITMAP 
0000
07e0
1818
2024
4422
4422
8421
8421
8c39
8a21
9121
90a1
6022
4022
2024
1818
07e0
0000
0000
ENDCHAR
STARTCHAR a8c6
ENCODING 43206 
SWIDTH 495 0
DWIDTH 18 0
BBX 18 19 0 0
BITMAP 
0000
07e0
1818
2024
4022
4e22
9121
9121
9139
9121
9121
8e21
4022
4022
2024
1818
07e0
0000
0000
ENDCHAR
STARTCHAR a8c7
ENCODING 43207 
SWIDTH 495 0
DWIDTH 18 0
BBX 18 19 0 0
BITMAP 
0000
07e0
1818
2024
4022
5fa2
8221
8221
8239
8621
8521
88a1
50a2
4022
2024
1818
07e0
0000
0000
ENDCHAR
STARTCHAR a8c8
ENCODING 43208 
SWIDTH 495 0
DWIDTH 18 0
BBX 18 19 0 0
BITMAP 
0000
07e0
1818
2024
4f22
4022
8021
9fa1
8239
8221
8421
8621
4922
50a2
2024
1818
07e0
0000
0000
ENDCHAR
STARTCHAR a8c9
ENCODING 43209 
SWIDTH 495 0
DWIDTH 18 0
BBX 18 19 0 0
BITMAP 
0000
07e0
1818
2024
4022
4f22
8121
8121
9f39
8221
8421
8821
5022
4022
2024
1818
07e0
0000
0000
ENDCHAR
STARTCHAR a8ca
ENCODING 43210 
SWIDTH 495 0
DWIDTH 18 0
BBX 18 19 0 0
BITMAP 
0000
07e0
1818
2024
4022
4fa2
8821
8821
8f39
8821
8821
8fa1
4022
4022
2024
1818
07e0
0000
0000
ENDCHAR
STARTCHAR a8cb
ENCODING 43211 
SWIDTH 495 0
DWIDTH 18 0
BBX 18 19 0 0
BITMAP 
0000
07e0
1818
2024
4022
5fa2
8921
8921
8939
8921
8921
bfa1
4022
4022
2024
1818
07e0
0000
0000
ENDCHAR
STARTCHAR a8cc
ENCODING 43212 
SWIDTH 495 0
DWIDTH 18 0
BBX 18 19 0 0
BITMAP 
0000
07e0
1830
2024
4f22
4022
8021
9fa1
8039
8f21
90a1
90a1
4922
4622
2024
1818
07e0
0000
0000
ENDCHAR
STARTCHAR a8cd
ENCODING 43213 
SWIDTH 495 0
DWIDTH 18 0
BBX 18 19 0 0
BITMAP 
0000
07e0
1830
2004
4fc2
4022
8011
83f1
8411
8811
8811
8811
4812
47f2
200c
1818
07e0
0000
0000
ENDCHAR
STARTCHAR a8ce
ENCODING 43214 
SWIDTH 495 0
DWIDTH 18 0
BBX 18 19 0 0
BITMAP 
0000
07e0
1818
2404
4402
4402
8401
8401
87c1
8431
8411
8411
4412
4422
27c4
1818
07e0
0000
0000
ENDCHAR
STARTCHAR a8cf
ENCODING 43215 
SWIDTH 495 0
DWIDTH 18 0
BBX 18 19 0 0
BITMAP 
0000
07e0
1818
2004
4002
43c2
8421
8801
8801
8801
8801
8801
4422
43c2
2004
1818
07e0
0000
0000
ENDCHAR
STARTCHAR a8d0
ENCODING 43216 
SWIDTH 495 0
DWIDTH 18 0
BBX 18 19 0 0
BITMAP 
0000
07e0
1818
2024
4022
4022
8021
8021
83e1
8421
8821
8821
4822
4422
23e4
1818
07e0
0000
0000
ENDCHAR
STARTCHAR a8d1
ENCODING 43217 
SWIDTH 495 0
DWIDTH 18 0
BBX 18 19 0 0
BITMAP 
0000
07e0
1818
2004
43c2
4422
8811
8811
8ff1
8801
8801
8801
4412
43e2
2004
1818
07e0
0000
0000
ENDCHAR
STARTCHAR a8d2
ENCODING 43218 
SWIDTH 495 0
DWIDTH 18 0
BBX 18 19 0 0
BITMAP 
0000
07e0
1818
2384
4222
4202
8201
8201
8f81
8201
8201
8201
4202
4202
2204
1818
07e0
0000
0000
ENDCHAR
STARTCHAR a8d3
ENCODING 43219 
SWIDTH 495 0
DWIDTH 18 0
BBX 18 19 0 0
BITMAP 
0000
07e0
1818
2014
43a2
4442
8441
8781
8101
8201
87e1
8811
4812
4812
27e4
1818
07e0
0000
0000
ENDCHAR
STARTCHAR a8d4
ENCODING 43220 
SWIDTH 495 0
DWIDTH 18 0
BBX 18 19 0 0
BITMAP 
0000
07e0
1818
2404
4402
4402
8401
8401
85c1
8621
8421
8421
4422
4422
2424
1830
07e0
0000
0000
ENDCHAR
STARTCHAR a8d5
ENCODING 43221 
SWIDTH 495 0
DWIDTH 18 0
BBX 18 19 0 0
BITMAP 
0000
07e0
1818
2004
4102
4002
8001
8101
8101
8101
8101
8101
4102
4102
2104
1818
07e0
0000
0000
ENDCHAR
STARTCHAR a8d6
ENCODING 43222 
SWIDTH 495 0
DWIDTH 18 0
BBX 18 19 0 0
BITMAP 
0000
07e0
1818
2004
4082
4002
8001
8081
8081
8081
8081
8081
4082
4482
2304
1818
07e0
0000
0000
ENDCHAR
STARTCHAR a8d7
ENCODING 43223 
SWIDTH 495 0
DWIDTH 18 0
BBX 18 19 0 0
BITMAP 
0000
07e0
1818
2404
4402
4402
8401
8411
8421
8441
8481
8581
4642
4422
2414
1818
07e0
0000
0000
ENDCHAR
STARTCHAR a8d8
ENCODING 43224 
SWIDTH 495 0
DWIDTH 18 0
BBX 18 19 0 0
BITMAP 
0000
07e0
1830
2104
4102
4102
8101
8101
8101
8101
8101
8101
4102
2102
2104
1830
07e0
0000
0000
ENDCHAR
STARTCHAR a8d9
ENCODING 43225 
SWIDTH 495 0
DWIDTH 18 0
BBX 18 19 0 0
BITMAP 
0000
07e0
1830
2004
4002
57f2
9991
9111
9111
9111
9111
9111
5112
5112
2004
1818
07e0
0000
0000
ENDCHAR
STARTCHAR a8da
ENCODING 43226 
SWIDTH 495 0
DWIDTH 18 0
BBX 18 19 0 0
BITMAP 
0000
07e0
1818
2004
45c2
4622
8421
8421
8421
8421
8421
8421
4422
4422
2004
1830
07e0
0000
0000
ENDCHAR
STARTCHAR a8db
ENCODING 43227 
SWIDTH 495 0
DWIDTH 18 0
BBX 18 19 0 0
BITMAP 
0000
07e0
1818
2004
43e2
4422
8811
8811
8811
8811
8811
8811
4422
43c2
2004
1818
07e0
0000
0000
ENDCHAR
STARTCHAR a8dc
ENCODING 43228 
SWIDTH 495 0
DWIDTH 18 0
BBX 18 19 0 0
BITMAP 
0000
07e0
1818
2004
4fc2
4822
8812
8812
8812
8822
8fc2
8801
4802
4802
2804
1818
07e0
0000
0000
ENDCHAR
STARTCHAR a8dd
ENCODING 43229 
SWIDTH 495 0
DWIDTH 18 0
BBX 18 19 0 0
BITMAP 
0000
07e0
1818
2004
43e2
4422
8821
8821
8821
8421
83e1
8021
4022
4022
2024
1818
07e0
0000
0000
ENDCHAR
STARTCHAR a8de
ENCODING 43230 
SWIDTH 495 0
DWIDTH 18 0
BBX 18 19 0 0
BITMAP 
0000
07e0
1818
2004
45c2
4622
8411
8401
8401
8401
8401
8401
4402
4402
2004
1818
07e0
0000
0000
ENDCHAR
STARTCHAR a8df
ENCODING 43231 
SWIDTH 495 0
DWIDTH 18 0
BBX 18 19 0 0
BITMAP 
0000
07e0
1818
2004
43c2
4422
8401
8401
83c1
8021
8021
8821
47c2
4002
2004
1818
07e0
0000
0000
ENDCHAR
STARTCHAR a8e0
ENCODING 43232 
SWIDTH 495 0
DWIDTH 18 0
BBX 18 19 0 0
BITMAP 
0000
07e0
1818
2104
4102
4102
87c1
8101
8101
8101
8101
8101
4102
4122
20c4
1818
07e0
0000
0000
ENDCHAR
STARTCHAR a8e1
ENCODING 43233 
SWIDTH 495 0
DWIDTH 18 0
BBX 18 19 0 0
BITMAP 
0000
07e0
1818
2004
4822
4822
8821
8821
8821
8821
8821
8821
4462
43a2
2004
1818
07e0
0000
0000
ENDCHAR
STARTCHAR a8e2
ENCODING 43234 
SWIDTH 495 0
DWIDTH 18 0
BBX 18 19 0 0
BITMAP 
0000
07e0
1818
2004
4002
5012
9011
8821
8821
8441
8441
8281
4282
4102
2104
1818
07e0
0000
0000
ENDCHAR
STARTCHAR a8e3
ENCODING 43235 
SWIDTH 495 0
DWIDTH 18 0
BBX 18 19 0 0
BITMAP 
0000
07e0
1818
2004
4002
5112
9111
9111
9111
8aa1
8aa1
8aa1
4442
4442
2004
1818
07e0
0000
0000
ENDCHAR
STARTCHAR a8e4
ENCODING 43236 
SWIDTH 495 0
DWIDTH 18 0
BBX 18 19 0 0
BITMAP 
0000
07e0
1818
2004
4002
480a
8411
8221
8141
8081
8141
8221
4412
480a
2004
1818
07e0
0000
0000
ENDCHAR
STARTCHAR a8e5
ENCODING 43237 
SWIDTH 495 0
DWIDTH 18 0
BBX 18 19 0 0
BITMAP 
0000
07e0
1818
2004
4812
4812
8421
8421
8241
8181
8081
8101
4202
4402
2804
1818
07e0
0000
0000
ENDCHAR
STARTCHAR a8e6
ENCODING 43238 
SWIDTH 495 0
DWIDTH 18 0
BBX 18 19 0 0
BITMAP 
0000
07e0
1818
2004
4002
5ff2
8021
8041
8081
8101
8201
8401
4802
5ff2
2004
1818
07e0
0000
0000
ENDCHAR
STARTCHAR a8e7
ENCODING 43239 
SWIDTH 495 0
DWIDTH 18 0
BBX 18 19 0 0
BITMAP 
0000
07e0
1818
2184
4282
4082
8081
8081
8081
8081
8081
8081
4082
4082
21c4
1818
07e0
0000
0000
ENDCHAR
STARTCHAR a8e8
ENCODING 43240 
SWIDTH 495 0
DWIDTH 18 0
BBX 18 19 0 0
BITMAP 
0000
07e0
1818
2004
41c2
4222
8421
8021
8041
8081
8101
8201
4402
4ff2
2004
1818
07e0
0000
0000
ENDCHAR
STARTCHAR a8e9
ENCODING 43241 
SWIDTH 495 0
DWIDTH 18 0
BBX 18 19 0 0
BITMAP 
0000
07e0
1818
2004
43e2
4412
8411
8011
80e1
8021
8011
8411
4412
43e2
2004
1818
07e0
0000
0000
ENDCHAR
STARTCHAR a8ea
ENCODING 43242 
SWIDTH 495 0
DWIDTH 18 0
BBX 18 19 0 0
BITMAP 
0000
07e0
1818
2004
4042
40c2
8141
8241
8441
8841
9ff9
8041
4042
4042
2044
1818
07e0
0000
0000
ENDCHAR
STARTCHAR a8eb
ENCODING 43243 
SWIDTH 495 0
DWIDTH 18 0
BBX 18 19 0 0
BITMAP 
0000
07e0
1818
2004
47e2
4402
4401
4401
47c1
4021
4021
4021
4422
43c2
2004
1818
07e0
0000
0000
ENDCHAR
STARTCHAR a8ec
ENCODING 43244 
SWIDTH 495 0
DWIDTH 18 0
BBX 18 19 0 0
BITMAP 
0000
07e0
1818
2004
41e2
4212
8411
8401
8401
87e1
8411
8411
4412
43e2
2004
1818
07e0
0000
0000
ENDCHAR
STARTCHAR a8ed
ENCODING 43245 
SWIDTH 495 0
DWIDTH 18 0
BBX 18 19 0 0
BITMAP 
0000
07e0
1818
2004
4fe2
4822
8021
8021
8021
8021
8041
8041
4042
4042
2044
1818
07e0
0000
0000
ENDCHAR
STARTCHAR a8ee
ENCODING 43246 
SWIDTH 495 0
DWIDTH 18 0
BBX 18 19 0 0
BITMAP 
0000
07e0
1818
2004
41c2
4222
8221
8221
81c1
8221
8411
8411
4412
43e2
2004
1818
07e0
0000
0000
ENDCHAR
STARTCHAR a8ef
ENCODING 43247 
SWIDTH 495 0
DWIDTH 18 0
BBX 18 19 0 0
BITMAP 
0000
07e0
1818
2004
43c2
4422
8421
8421
8421
83e1
8021
8021
4422
43c2
2004
1818
07e0
0000
0000
ENDCHAR
STARTCHAR a8f0
ENCODING 43248 
SWIDTH 495 0
DWIDTH 18 0
BBX 18 19 0 0
BITMAP 
0000
07e0
1818
2004
4802
48e2
8911
8911
8911
8911
8911
8911
4912
48e2
2804
1818
07e0
0000
0000
ENDCHAR
STARTCHAR a8f1
ENCODING 43249 
SWIDTH 495 0
DWIDTH 18 0
BBX 18 19 0 0
BITMAP 
0000
07e0
1818
2004
4822
4822
8821
8821
8821
8821
8821
8821
4822
4822
2824
1818
07e0
0000
0000
ENDCHAR
STARTCHAR a8f2
ENCODING 43250 
SWIDTH 495 0
DWIDTH 18 0
BBX 18 19 0 0
BITMAP 
0000
07e0
1818
2004
48e2
4912
8911
8911
8821
8841
8881
8881
4902
49fa
2004
1818
07e0
0000
0000
ENDCHAR
STARTCHAR a8f3
ENCODING 43251 
SWIDTH 495 0
DWIDTH 18 0
BBX 18 19 0 0
BITMAP 
0000
07e0
1818
2004
48e2
4912
8811
8811
8861
8811
8811
8811
4912
48e2
2004
1818
07e0
0000
0000
ENDCHAR
STARTCHAR a8f4
ENCODING 43252 
SWIDTH 495 0
DWIDTH 18 0
BBX 18 19 0 0
BITMAP 
0000
07e0
1818
2004
4822
4862
88a1
88a1
8921
8921
89f9
8821
4822
4822
2004
1818
07e0
0000
0000
ENDCHAR
STARTCHAR a8f5
ENCODING 43253 
SWIDTH 495 0
DWIDTH 18 0
BBX 18 19 0 0
BITMAP 
0000
07e0
1818
2004
49f2
4902
8901
8901
89e1
8811
8811
8811
8912
48e2
2004
1818
07e0
0000
0000
ENDCHAR
STARTCHAR a8f6
ENCODING 43254 
SWIDTH 495 0
DWIDTH 18 0
BBX 18 19 0 0
BITMAP 
0000
0040
0040
208e
2091
2091
2101
2101
2102
2204
2208
2210
2410
2420
243f
2800
0800
0000
0000
ENDCHAR
STARTCHAR a8f7
ENCODING 43255 
SWIDTH 495 0
DWIDTH 18 0
BBX 18 19 0 0
BITMAP 
0000
0040
0040
2080
209e
21a1
2121
2101
2302
221e
2202
2601
2401
2421
2421
281e
0800
0000
0000
ENDCHAR
STARTCHAR a8f8
ENCODING 43256 
SWIDTH 495 0
DWIDTH 18 0
BBX 18 19 0 0
BITMAP 
0000
0020
0020
784e
8451
84c1
0481
0481
098e
1102
2101
4301
4201
8211
fa0e
0400
0400
0000
0000
ENDCHAR
STARTCHAR a8f9
ENCODING 43257 
SWIDTH 495 0
DWIDTH 18 0
BBX 18 19 0 0
BITMAP 
0000
0040
0040
2084
208c
218c
2114
2114
2324
2224
2244
267f
2404
2404
2404
2804
0800
0000
0000
ENDCHAR
STARTCHAR a8fa
ENCODING 43258 
SWIDTH 495 0
DWIDTH 18 0
BBX 18 19 0 0
BITMAP 
0000
0020
0020
7044
884c
08cc
0894
0894
71a4
1124
0944
0b7f
0a04
8a04
7204
0404
0400
0000
0000
ENDCHAR
STARTCHAR a8fb
ENCODING 43259 
SWIDTH 495 0
DWIDTH 18 0
BBX 18 19 0 0
BITMAP 
0000
0040
0040
209e
20a1
21a1
2121
2112
230c
2212
2221
2621
2421
2421
241e
2800
0800
0000
0000
ENDCHAR
STARTCHAR a8fc
ENCODING 43260 
SWIDTH 495 0
DWIDTH 18 0
BBX 18 19 0 0
BITMAP 
0000
0040
0040
709e
88a1
08a1
09a1
0912
710c
1112
0b21
0a21
0a21
8a21
761e
0400
0400
0000
0000
ENDCHAR
STARTCHAR a8fd
ENCODING 43261 
SWIDTH 495 0
DWIDTH 18 0
BBX 18 19 0 0
BITMAP 
0000
0040
0040
fc8e
80a1
80a1
81a1
8112
f10c
1912
0b21
0a21
0a21
8a21
721e
0400
0400
0000
0000
ENDCHAR
STARTCHAR a8fe
ENCODING 43262 
SWIDTH 495 0
DWIDTH 18 0
BBX 18 19 0 0
BITMAP 
0000
0040
0040
fc9e
84a1
04a1
05a1
0d12
090c
0912
1321
1221
1221
1221
121e
0400
0400
0000
0000
ENDCHAR
STARTCHAR a9a1
ENCODING 43425 
SWIDTH 495 0
DWIDTH 18 0
BBX 18 19 0 0
BITMAP 
0000
0000
0000
7c3e
8241
8181
0101
3fff
4100
4100
4100
4100
4181
3e7e
0000
0000
0000
0000
0000
ENDCHAR
STARTCHAR a9a2
ENCODING 43426 
SWIDTH 495 0
DWIDTH 18 0
BBX 18 19 0 0
BITMAP 
0000
0020
0020
0020
0020
0020
0020
0020
3ff8
0020
07a0
0860
1020
1020
1020
0860
07a0
0000
0000
ENDCHAR
STARTCHAR a9a3
ENCODING 43427 
SWIDTH 495 0
DWIDTH 18 0
BBX 18 19 0 0
BITMAP 
0000
0010
0020
03e0
0450
0888
0008
0008
0008
0ff8
0808
0808
0808
0410
03e0
0000
0000
0000
0000
ENDCHAR
STARTCHAR a9a4
ENCODING 43428 
SWIDTH 495 0
DWIDTH 18 0
BBX 18 19 0 0
BITMAP 
0000
0400
0400
0400
0400
0400
1ff8
0400
0400
05e0
0610
0410
0410
0410
0410
0410
0410
0000
0000
ENDCHAR
STARTCHAR a9a5
ENCODING 43429 
SWIDTH 495 0
DWIDTH 18 0
BBX 18 19 0 0
BITMAP 
0000
0000
0000
0000
0080
0180
0280
0080
0080
0080
0080
0080
01c0
0000
0000
0000
0000
0000
0000
ENDCHAR
STARTCHAR a9a6
ENCODING 43430 
SWIDTH 495 0
DWIDTH 18 0
BBX 18 19 0 0
BITMAP 
0000
0000
1020
0000
0000
1020
1020
1020
1020
1020
1020
1020
1020
1020
0020
0120
00c0
0000
0000
ENDCHAR
STARTCHAR a9a7
ENCODING 43431 
SWIDTH 495 0
DWIDTH 18 0
BBX 18 19 0 0
BITMAP 
0000
0000
0000
0000
0820
0840
0880
0900
0e00
0a00
0900
0880
0840
0820
0000
0000
0000
0000
0000
ENDCHAR
STARTCHAR a9a8
ENCODING 43432 
SWIDTH 495 0
DWIDTH 18 0
BBX 18 19 0 0
BITMAP 
0000
0100
0300
0100
0100
0100
0100
0100
0130
0100
0100
0100
0100
0100
0100
0100
0380
0000
0000
ENDCHAR
STARTCHAR a9a9
ENCODING 43433 
SWIDTH 495 0
DWIDTH 18 0
BBX 18 19 0 0
BITMAP 
0000
0100
0300
0100
0100
0120
0140
0180
0100
0300
0500
0900
0100
0100
0100
0100
0380
0000
0000
ENDCHAR
STARTCHAR a9aa
ENCODING 43434 
SWIDTH 495 0
DWIDTH 18 0
BBX 18 19 0 0
BITMAP 
0000
0000
0001
0002
07e4
0818
1018
1028
1048
1088
1108
1208
0c10
0fe0
1000
2000
4000
0000
0000
ENDCHAR
STARTCHAR a9ab
ENCODING 43435 
SWIDTH 495 0
DWIDTH 18 0
BBX 18 19 0 0
BITMAP 
0000
0000
0000
3e3e
4141
8081
8081
80ff
8080
8080
8080
8080
4181
3e7e
0000
0000
0000
0000
0000
ENDCHAR
STARTCHAR a9ac
ENCODING 43436 
SWIDTH 495 0
DWIDTH 18 0
BBX 18 19 0 0
BITMAP 
0000
0080
00c0
0120
0120
0120
0240
0280
0240
0420
0410
0410
0410
0be0
0800
0800
0800
0000
0000
ENDCHAR
STARTCHAR a9ad
ENCODING 43437 
SWIDTH 495 0
DWIDTH 18 0
BBX 18 19 0 0
BITMAP 
0000
0000
0000
0e00
0400
07e0
0410
0408
0408
0408
0408
0410
07e0
0400
0e00
0000
0000
0000
0000
ENDCHAR
STARTCHAR a9ae
ENCODING 43438 
SWIDTH 495 0
DWIDTH 18 0
BBX 18 19 0 0
BITMAP 
0000
0240
0280
0300
0200
0600
0a00
1200
0200
0f80
0200
0200
0200
0200
0200
0240
0180
0000
0000
ENDCHAR
STARTCHAR a9af
ENCODING 43439 
SWIDTH 495 0
DWIDTH 18 0
BBX 18 19 0 0
BITMAP 
0000
05c0
0620
0410
0410
0410
0410
0410
0410
0e10
0010
0010
0010
0010
0010
0110
00e0
0000
0000
ENDCHAR
STARTCHAR a9b0
ENCODING 43440 
SWIDTH 495 0
DWIDTH 18 0
BBX 18 19 0 0
BITMAP 
0000
0000
0000
05e0
0610
0410
0410
0410
0410
0410
0410
0410
0e10
0000
0000
0000
0000
0000
0000
ENDCHAR
STARTCHAR a9b1
ENCODING 43441 
SWIDTH 495 0
DWIDTH 18 0
BBX 18 19 0 0
BITMAP 
0000
2004
4002
4ff2
4012
8011
8011
8011
8011
8011
8011
8011
8011
4012
4012
4002
2004
0000
0000
ENDCHAR
STARTCHAR a9b2
ENCODING 43442 
SWIDTH 495 0
DWIDTH 18 0
BBX 18 19 0 0
BITMAP 
0000
2004
4002
4802
4802
8801
8801
8801
8801
8801
8801
8801
8801
4802
4ff2
4002
2004
0000
0000
ENDCHAR
STARTCHAR a9b3
ENCODING 43443 
SWIDTH 495 0
DWIDTH 18 0
BBX 18 19 0 0
BITMAP 
0000
2004
4002
4ff2
4802
8801
8801
8801
8801
8801
8801
8801
8801
4802
4ff2
4002
2004
0000
0000
ENDCHAR
STARTCHAR a9b4
ENCODING 43444 
SWIDTH 495 0
DWIDTH 18 0
BBX 18 19 0 0
BITMAP 
0000
2004
4002
4ff2
4012
8011
8011
8011
8ff1
8801
8801
8801
8801
4802
4ff2
4002
2004
0000
0000
ENDCHAR
STARTCHAR a9b5
ENCODING 43445 
SWIDTH 495 0
DWIDTH 18 0
BBX 18 19 0 0
BITMAP 
0000
2004
4002
4ff2
4812
8812
8812
8812
8812
8812
8812
8812
8812
4812
4ff2
4002
2004
0000
0000
ENDCHAR
STARTCHAR a9b6
ENCODING 43446 
SWIDTH 495 0
DWIDTH 18 0
BBX 18 19 0 0
BITMAP 
0000
2004
4002
4812
4812
8811
8811
8811
8ff1
8811
8811
8811
8811
4812
4ff2
4002
2004
0000
0000
ENDCHAR
STARTCHAR a9b7
ENCODING 43447 
SWIDTH 495 0
DWIDTH 18 0
BBX 18 19 0 0
BITMAP 
0000
2004
4002
4082
4082
8081
8081
8081
8101
8181
8241
8241
8421
4412
480a
4002
2004
0000
0000
ENDCHAR
STARTCHAR a9b8
ENCODING 43448 
SWIDTH 495 0
DWIDTH 18 0
BBX 18 19 0 0
BITMAP 
0000
2004
4002
43c2
8422
8811
8811
8811
8811
8811
8811
8811
8421
43c2
4002
4002
2004
0000
0000
ENDCHAR
STARTCHAR a9b9
ENCODING 43449 
SWIDTH 495 0
DWIDTH 18 0
BBX 18 19 0 0
BITMAP 
0000
2004
4002
5ffa
4082
8081
8081
8081
8081
8101
8181
8241
8421
4812
500a
4002
2004
0000
0000
ENDCHAR
STARTCHAR a9ba
ENCODING 43450 
SWIDTH 495 0
DWIDTH 18 0
BBX 18 19 0 0
BITMAP 
0000
2004
47c2
4002
4002
9ff9
8081
8081
8081
8081
8101
8181
8241
4422
4812
4002
2004
0000
0000
ENDCHAR
STARTCHAR a9bb
ENCODING 43451 
SWIDTH 495 0
DWIDTH 18 0
BBX 18 19 0 0
BITMAP 
0000
2004
4002
4ff2
4012
8011
8011
8011
8ff1
8011
8011
8011
8011
4012
4002
4002
2004
0000
0000
ENDCHAR
STARTCHAR a9bc
ENCODING 43452 
SWIDTH 495 0
DWIDTH 18 0
BBX 18 19 0 0
BITMAP 
0000
2004
4002
4ff2
4802
8801
8801
8801
8ff1
8801
8801
8801
8801
4802
4ff2
4002
2004
0000
0000
ENDCHAR
STARTCHAR a9bd
ENCODING 43453 
SWIDTH 495 0
DWIDTH 18 0
BBX 18 19 0 0
BITMAP 
0000
2004
4002
5ffa
4422
8421
8421
8421
8421
8421
8421
8421
8421
5ffa
4002
4002
2004
0000
0000
ENDCHAR
STARTCHAR a9be
ENCODING 43454 
SWIDTH 495 0
DWIDTH 18 0
BBX 18 19 0 0
BITMAP 
0000
2004
47e2
4002
4002
9ff9
8001
8001
83c1
8421
8811
8811
8811
4422
43c2
4002
2004
0000
0000
ENDCHAR
STARTCHAR a9bf
ENCODING 43455 
SWIDTH 495 0
DWIDTH 18 0
BBX 18 19 0 0
BITMAP 
0000
2004
4022
4022
5f22
8121
8121
8121
8139
8221
8221
8421
8821
5022
4022
4022
2004
0000
0000
ENDCHAR
STARTCHAR a9c0
ENCODING 43456 
SWIDTH 495 0
DWIDTH 18 0
BBX 18 19 0 0
BITMAP 
0000
2004
4012
4012
4812
8811
8811
8811
881d
8811
8ff1
8011
8011
4012
4012
4012
2004
0000
0000
ENDCHAR
STARTCHAR a9c1
ENCODING 43457 
SWIDTH 495 0
DWIDTH 18 0
BBX 18 19 0 0
BITMAP 
0000
2004
4012
4012
4fd2
8811
8811
8811
881d
8811
8811
8fd1
8011
4012
4012
4012
2004
0000
0000
ENDCHAR
STARTCHAR a9c2
ENCODING 43458 
SWIDTH 495 0
DWIDTH 18 0
BBX 18 19 0 0
BITMAP 
0000
2004
4012
4012
4f92
8091
8091
8091
8f9d
8811
8811
8811
8fd1
4012
4012
4012
2004
0000
0000
ENDCHAR
STARTCHAR a9c3
ENCODING 43459 
SWIDTH 495 0
DWIDTH 18 0
BBX 18 19 0 0
BITMAP 
0000
2004
4012
4012
4f92
8891
8891
8891
889d
8891
8891
8f91
8011
4012
4012
4012
2004
0000
0000
ENDCHAR
STARTCHAR a9c4
ENCODING 43460 
SWIDTH 495 0
DWIDTH 18 0
BBX 18 19 0 0
BITMAP 
0000
2004
4012
4012
4892
8891
8891
8891
8f9d
8891
8891
8891
8f91
4012
4012
4012
2004
0000
0000
ENDCHAR
STARTCHAR a9c5
ENCODING 43461 
SWIDTH 495 0
DWIDTH 18 0
BBX 18 19 0 0
BITMAP 
0000
2004
4012
4012
4212
8211
8211
8211
841d
8611
8911
9091
8011
4012
4012
4012
2004
0000
0000
ENDCHAR
STARTCHAR a9c6
ENCODING 43462 
SWIDTH 495 0
DWIDTH 18 0
BBX 18 19 0 0
BITMAP 
0000
2004
4002
4012
4012
8211
8511
8891
889d
8891
8511
8211
4011
4012
4012
4012
2004
0000
0000
ENDCHAR
STARTCHAR a9c7
ENCODING 43463 
SWIDTH 495 0
DWIDTH 18 0
BBX 18 19 0 0
BITMAP 
0000
2004
4022
4022
4022
8f21
8121
8121
823d
8621
8921
90a1
8021
4022
4022
4022
2004
0000
0000
ENDCHAR
STARTCHAR a9c8
ENCODING 43464 
SWIDTH 495 0
DWIDTH 18 0
BBX 18 19 0 0
BITMAP 
0000
2004
4042
4822
4622
8021
9f21
8121
823d
8221
8421
8a21
9221
4022
4022
4022
2004
0000
0000
ENDCHAR
STARTCHAR a9c9
ENCODING 43465 
SWIDTH 495 0
DWIDTH 18 0
BBX 18 19 0 0
BITMAP 
0000
2004
4022
4022
4022
9f21
8121
8121
9f3d
8121
8221
8421
8821
5022
4022
4022
2004
0000
0000
ENDCHAR
STARTCHAR a9ca
ENCODING 43466 
SWIDTH 495 0
DWIDTH 18 0
BBX 18 19 0 0
BITMAP 
0000
2004
4022
4022
4022
8f21
8021
8021
8f3d
8821
8821
8821
8921
4e22
4022
4022
2004
0000
0000
ENDCHAR
STARTCHAR a9cb
ENCODING 43467 
SWIDTH 495 0
DWIDTH 18 0
BBX 18 19 0 0
BITMAP 
0000
2004
4022
4022
4022
9f21
8021
8021
923d
8921
8921
8a21
9f21
4022
4022
4022
2004
0000
0000
ENDCHAR
STARTCHAR a9cc
ENCODING 43468 
SWIDTH 495 0
DWIDTH 18 0
BBX 18 19 0 0
BITMAP 
0000
2004
4022
4022
4e22
8021
8021
9f21
803d
8021
8421
8a21
9121
4a22
4422
4022
2004
0000
0000
ENDCHAR
STARTCHAR a9cd
ENCODING 43469 
SWIDTH 495 0
DWIDTH 18 0
BBX 18 19 0 0
BITMAP 
0000
2004
4002
4002
4002
8001
87c1
8041
8021
87e1
8421
8421
8421
43b2
4002
4002
2004
0000
0000
ENDCHAR
STARTCHAR a9ce
ENCODING 43470 
SWIDTH 495 0
DWIDTH 18 0
BBX 18 19 0 0
BITMAP 
0000
2004
4402
4402
4402
8401
8401
8401
85c1
8621
8421
8421
8421
4622
45c2
4002
2004
0000
0000
ENDCHAR
STARTCHAR a9cf
ENCODING 43471 
SWIDTH 495 0
DWIDTH 18 0
BBX 18 19 0 0
BITMAP 
0000
2004
4002
4002
4002
8001
83c1
8421
8401
8401
8401
8401
8421
4422
43c2
4002
2004
0000
0000
ENDCHAR
STARTCHAR a9d0
ENCODING 43472 
SWIDTH 495 0
DWIDTH 18 0
BBX 18 19 0 0
BITMAP 
0000
2004
4022
4022
4022
8021
8021
8021
8021
83a1
8461
8421
8421
4422
4462
43a2
2004
0000
0000
ENDCHAR
STARTCHAR a9d1
ENCODING 43473 
SWIDTH 495 0
DWIDTH 18 0
BBX 18 19 0 0
BITMAP 
0000
2004
4002
4002
4002
8001
83c1
8421
8411
87f1
8401
8401
8401
4422
43c2
4002
2004
0000
0000
ENDCHAR
STARTCHAR a9d2
ENCODING 43474 
SWIDTH 495 0
DWIDTH 18 0
BBX 18 19 0 0
BITMAP 
0000
2004
4382
4442
4442
8441
8401
8401
9fc1
8401
8401
8401
8401
4402
4402
4402
2004
0000
0000
ENDCHAR
STARTCHAR a9d3
ENCODING 43475 
SWIDTH 495 0
DWIDTH 18 0
BBX 18 19 0 0
BITMAP 
0000
2004
4022
41c2
4222
8411
8221
81c1
8181
8101
87e1
8c11
8809
480a
4412
43e2
2004
0000
0000
ENDCHAR
STARTCHAR a9d4
ENCODING 43476 
SWIDTH 495 0
DWIDTH 18 0
BBX 18 19 0 0
BITMAP 
0000
2404
4402
4402
4402
8401
8401
8401
85c1
8621
8421
8421
4421
4422
4422
4422
2004
0000
0000
ENDCHAR
STARTCHAR a9d5
ENCODING 43477 
SWIDTH 495 0
DWIDTH 18 0
BBX 18 19 0 0
BITMAP 
0000
2004
4002
4002
4102
8001
8001
8101
8101
8101
8101
8101
8101
4102
4102
4102
2004
0000
0000
ENDCHAR
STARTCHAR a9d6
ENCODING 43478 
SWIDTH 495 0
DWIDTH 18 0
BBX 18 19 0 0
BITMAP 
0000
2004
4002
4102
4002
8001
8101
8101
8101
8101
8101
8101
8101
4102
4902
4502
2204
0000
0000
ENDCHAR
STARTCHAR a9d7
ENCODING 43479 
SWIDTH 495 0
DWIDTH 18 0
BBX 18 19 0 0
BITMAP 
0000
2004
4402
4402
4422
8441
8481
8501
8701
8481
8481
8441
8441
4422
4422
4422
2004
0000
0000
ENDCHAR
STARTCHAR a9d8
ENCODING 43480 
SWIDTH 495 0
DWIDTH 18 0
BBX 18 19 0 0
BITMAP 
0000
2004
4102
4102
4102
8101
8101
8101
8101
8101
8101
8101
8101
4102
4102
4102
2004
0000
0000
ENDCHAR
STARTCHAR a9d9
ENCODING 43481 
SWIDTH 495 0
DWIDTH 18 0
BBX 18 19 0 0
BITMAP 
0000
2004
4002
4002
4002
8001
8001
9661
9991
9111
9111
9111
9111
5112
5112
5112
2004
0000
0000
ENDCHAR
STARTCHAR a9da
ENCODING 43482 
SWIDTH 495 0
DWIDTH 18 0
BBX 18 19 0 0
BITMAP 
0000
2004
4002
4002
4002
8001
8001
84e1
8511
8611
8411
8411
8411
4412
4412
4412
2004
0000
0000
ENDCHAR
STARTCHAR a9db
ENCODING 43483 
SWIDTH 495 0
DWIDTH 18 0
BBX 18 19 0 0
BITMAP 
0000
2004
4002
4002
4002
8001
8001
8181
8241
8421
8421
8421
8421
4422
4242
4182
2004
0000
0000
ENDCHAR
STARTCHAR a9dc
ENCODING 43484 
SWIDTH 495 0
DWIDTH 18 0
BBX 18 19 0 0
BITMAP 
0000
2004
4002
4002
4002
89c1
8a21
8c11
8811
8811
8e11
89e1
8801
4802
4802
4802
2804
0000
0000
ENDCHAR
STARTCHAR a9dd
ENCODING 43485 
SWIDTH 495 0
DWIDTH 18 0
BBX 18 19 0 0
BITMAP 
0000
2004
4002
4002
4002
8001
8391
8451
8431
8411
8431
83d1
8011
4012
4012
4012
2014
0000
0000
ENDCHAR
STARTCHAR a9de
ENCODING 43486 
SWIDTH 495 0
DWIDTH 18 0
BBX 18 19 0 0
BITMAP 
0000
2004
4002
4002
4002
8001
8001
8461
8491
8511
8601
8401
8401
4402
4402
4402
2004
0000
0000
ENDCHAR
STARTCHAR a9df
ENCODING 43487 
SWIDTH 495 0
DWIDTH 18 0
BBX 18 19 0 0
BITMAP 
0000
2004
4002
4002
4002
8001
8001
83c1
8421
8801
8401
83c1
8021
4022
4822
47c2
2004
0000
0000
ENDCHAR
STARTCHAR a9e0
ENCODING 43488 
SWIDTH 495 0
DWIDTH 18 0
BBX 18 19 0 0
BITMAP 
0000
2004
4202
4202
4202
8201
8201
9fe1
8201
8201
8201
8201
8201
4222
4222
41c2
2004
0000
0000
ENDCHAR
STARTCHAR a9e1
ENCODING 43489 
SWIDTH 495 0
DWIDTH 18 0
BBX 18 19 0 0
BITMAP 
0000
2004
4002
4002
4002
8001
8001
8411
8411
8411
8411
8411
8411
4412
4432
43d2
2004
0000
0000
ENDCHAR
STARTCHAR a9e2
ENCODING 43490 
SWIDTH 495 0
DWIDTH 18 0
BBX 18 19 0 0
BITMAP 
0000
2004
4002
4002
4002
8001
8001
8809
8409
8411
8211
8221
8121
4142
40c2
4082
2004
0000
0000
ENDCHAR
STARTCHAR a9e3
ENCODING 43491 
SWIDTH 495 0
DWIDTH 18 0
BBX 18 19 0 0
BITMAP 
0000
2004
4002
4002
4002
8001
8001
9005
9085
9085
8949
8949
8a29
4a2a
4412
4412
2004
0000
0000
ENDCHAR
STARTCHAR a9e4
ENCODING 43492 
SWIDTH 495 0
DWIDTH 18 0
BBX 18 19 0 0
BITMAP 
0000
2004
4002
4002
4002
8001
8001
9011
8821
8441
8141
8081
8141
4222
4412
480a
2004
0000
0000
ENDCHAR
STARTCHAR a9e5
ENCODING 43493 
SWIDTH 495 0
DWIDTH 18 0
BBX 18 19 0 0
BITMAP 
0000
2004
4002
4002
4002
8811
8411
8221
8121
80c1
8081
8081
8101
4102
4202
4402
2804
0000
0000
ENDCHAR
STARTCHAR a9e6
ENCODING 43494 
SWIDTH 495 0
DWIDTH 18 0
BBX 18 19 0 0
BITMAP 
0000
2004
4002
4002
4002
8001
8001
87f1
8011
8021
8041
8081
8101
4202
47f2
2004
2004
0000
0000
ENDCHAR
STARTCHAR a9e7
ENCODING 43495 
SWIDTH 495 0
DWIDTH 18 0
BBX 18 19 0 0
BITMAP 
0000
2084
4182
4282
4082
8081
8081
8081
8081
8081
8081
8081
8081
4082
4082
4082
2004
0000
0000
ENDCHAR
STARTCHAR a9e8
ENCODING 43496 
SWIDTH 495 0
DWIDTH 18 0
BBX 18 19 0 0
BITMAP 
0000
2004
43c2
4422
4422
8811
8011
8021
8041
8081
8101
8201
8401
4802
4ff2
4002
2004
0000
0000
ENDCHAR
STARTCHAR a9e9
ENCODING 43497 
SWIDTH 495 0
DWIDTH 18 0
BBX 18 19 0 0
BITMAP 
0000
2004
4382
4442
4822
8021
8021
8041
8381
8041
8021
8021
8821
4822
4842
4782
2004
0000
0000
ENDCHAR
STARTCHAR a9ea
ENCODING 43498 
SWIDTH 495 0
DWIDTH 18 0
BBX 18 19 0 0
BITMAP 
0000
2004
40c2
40c2
4142
8141
8241
8241
8441
8441
8841
8841
9041
5ff2
4042
4042
2044
0000
0000
ENDCHAR
STARTCHAR a9eb
ENCODING 43499 
SWIDTH 495 0
DWIDTH 18 0
BBX 18 19 0 0
BITMAP 
0000
2004
47f2
4402
4402
8401
8401
84e1
8511
8609
8009
8009
8409
4212
43e2
4002
2004
0000
0000
ENDCHAR
STARTCHAR a9ec
ENCODING 43500 
SWIDTH 495 0
DWIDTH 18 0
BBX 18 19 0 0
BITMAP 
0000
2004
4782
4842
4842
9021
9001
9001
9001
97c1
9821
9021
9021
4822
47c2
4002
2004
0000
0000
ENDCHAR
STARTCHAR a9ed
ENCODING 43501 
SWIDTH 495 0
DWIDTH 18 0
BBX 18 19 0 0
BITMAP 
0000
2004
47f2
4412
4412
8011
8021
8021
8021
8021
8041
8041
8041
4082
4082
4082
2004
0000
0000
ENDCHAR
STARTCHAR a9ee
ENCODING 43502 
SWIDTH 495 0
DWIDTH 18 0
BBX 18 19 0 0
BITMAP 
0000
2004
4382
4442
4822
8821
8441
8381
8441
8821
9011
9011
9011
4822
47c2
4002
2004
0000
0000
ENDCHAR
STARTCHAR a9ef
ENCODING 43503 
SWIDTH 495 0
DWIDTH 18 0
BBX 18 19 0 0
BITMAP 
0000
2004
43c2
4422
4812
8811
8811
8431
83d1
8011
8011
8011
8011
4812
4422
43c2
2004
0000
0000
ENDCHAR
STARTCHAR a9f0
ENCODING 43504 
SWIDTH 495 0
DWIDTH 18 0
BBX 18 19 0 0
BITMAP 
0000
2004
4002
48e2
4912
8911
8911
8911
8911
8911
8911
8911
8911
4912
4892
4862
2004
0000
0000
ENDCHAR
STARTCHAR a9f1
ENCODING 43505 
SWIDTH 495 0
DWIDTH 18 0
BBX 18 19 0 0
BITMAP 
0000
2004
4002
4442
4442
8441
8441
8441
8441
8441
8441
8441
8441
4442
4442
4442
2004
0000
0000
ENDCHAR
STARTCHAR a9f2
ENCODING 43506 
SWIDTH 495 0
DWIDTH 18 0
BBX 18 19 0 0
BITMAP 
0000
2004
4002
48e2
4912
8911
8811
8811
8811
8821
8841
8881
8901
4902
4902
49f2
2004
0000
0000
ENDCHAR
STARTCHAR a9f3
ENCODING 43507 
SWIDTH 495 0
DWIDTH 18 0
BBX 18 19 0 0
BITMAP 
0000
2004
4002
48e2
4912
8911
8811
8811
8811
88e1
8811
8809
8809
480a
490a
48f2
2004
0000
0000
ENDCHAR
STARTCHAR a9f4
ENCODING 43508 
SWIDTH 495 0
DWIDTH 18 0
BBX 18 19 0 0
BITMAP 
0000
2004
4002
4862
4862
88a1
88a1
88a1
8921
8921
8921
8921
8a21
4bfa
4822
4822
2004
0000
0000
ENDCHAR
STARTCHAR a9f5
ENCODING 43509 
SWIDTH 495 0
DWIDTH 18 0
BBX 18 19 0 0
BITMAP 
0000
2004
49f2
4902
4902
8901
8901
8971
8989
8809
8809
8809
8809
490a
4912
48e2
2004
0000
0000
ENDCHAR
STARTCHAR a9f6
ENCODING 43510 
SWIDTH 495 0
DWIDTH 18 0
BBX 18 19 0 0
BITMAP 
0000
0004
0004
0004
0004
0004
0004
0004
0000
0000
0000
0000
0000
0000
0000
0000
0000
0000
0000
ENDCHAR
STARTCHAR a9f7
ENCODING 43511 
SWIDTH 495 0
DWIDTH 18 0
BBX 18 19 0 0
BITMAP 
0000
001c
0022
0002
0004
0008
0010
003e
0000
0000
0000
0000
0000
0000
0000
0000
0000
0000
0000
ENDCHAR
STARTCHAR a9f8
ENCODING 43512 
SWIDTH 495 0
DWIDTH 18 0
BBX 18 19 0 0
BITMAP 
0000
000e
0011
0001
000e
0001
0011
000e
0000
0000
0000
0000
0000
0000
0000
0000
0000
0000
0000
ENDCHAR
STARTCHAR a9f9
ENCODING 43513 
SWIDTH 495 0
DWIDTH 18 0
BBX 18 19 0 0
BITMAP 
0000
0006
0006
000a
0012
003f
0002
0002
0000
0000
0000
0000
0000
0000
0000
0000
0000
0000
0000
ENDCHAR
STARTCHAR a9fa
ENCODING 43514 
SWIDTH 495 0
DWIDTH 18 0
BBX 18 19 0 0
BITMAP 
0000
0016
0019
0011
0011
0011
0011
0011
0000
0000
0000
0000
0000
0000
0000
0000
0000
0000
0000
ENDCHAR
STARTCHAR a9fb
ENCODING 43515 
SWIDTH 495 0
DWIDTH 18 0
BBX 18 19 0 0
BITMAP 
0000
0000
0000
0000
0000
0000
0000
0000
0000
0000
0004
0004
0004
0004
0004
0004
0004
0000
0000
ENDCHAR
STARTCHAR a9fc
ENCODING 43516 
SWIDTH 495 0
DWIDTH 18 0
BBX 18 19 0 0
BITMAP 
0000
0000
0000
0000
0000
0000
0000
0000
0000
0000
001c
0022
0022
0004
0008
0010
003f
0000
0000
ENDCHAR
STARTCHAR a9fd
ENCODING 43517 
SWIDTH 495 0
DWIDTH 18 0
BBX 18 19 0 0
BITMAP 
0000
0000
0000
0000
0000
0000
0000
0000
0000
0000
000e
0011
0001
000e
0001
0011
000e
0000
0000
ENDCHAR
STARTCHAR a9fe
ENCODING 43518 
SWIDTH 495 0
DWIDTH 18 0
BBX 18 19 0 0
BITMAP 
0000
0000
0000
0000
0000
0000
0000
0000
0000
0000
0006
000a
000a
0012
003f
0002
0002
0000
0000
ENDCHAR
STARTCHAR caa1
ENCODING 51873 
SWIDTH 495 0
DWIDTH 18 0
BBX 18 19 0 0
BITMAP 
0000
0a00
1200
221f
6211
afd1
2251
2251
2251
2251
2251
2251
2251
2251
2451
2951
20df
0000
0000
ENDCHAR
STARTCHAR caa2
ENCODING 51874 
SWIDTH 495 0
DWIDTH 18 0
BBX 18 19 0 0
BITMAP 
0000
0420
0820
1020
33fe
5020
9020
1020
17ff
1000
1020
1020
13fe
1020
1020
1020
17ff
0000
0000
ENDCHAR
STARTCHAR caa3
ENCODING 51875 
SWIDTH 495 0
DWIDTH 18 0
BBX 18 19 0 0
BITMAP 
0000
0800
17ff
2421
6421
a421
27ff
2400
2400
27bf
2401
2402
2794
2408
2414
2422
2441
0000
0000
ENDCHAR
STARTCHAR caa4
ENCODING 51876 
SWIDTH 495 0
DWIDTH 18 0
BBX 18 19 0 0
BITMAP 
0000
05ff
0848
13ff
3249
5249
93ff
1000
11fe
1102
11fe
1102
11fe
1102
11fe
1084
1303
0000
0000
ENDCHAR
STARTCHAR caa5
ENCODING 51877 
SWIDTH 495 0
DWIDTH 18 0
BBX 18 19 0 0
BITMAP 
0000
1000
1000
103f
ff21
1121
1121
1121
1121
1121
1121
1121
1121
1121
2121
4521
833f
0000
0000
ENDCHAR
STARTCHAR caa6
ENCODING 51878 
SWIDTH 495 0
DWIDTH 18 0
BBX 18 19 0 0
BITMAP 
0000
0000
ffff
0004
0004
0004
1f84
1084
1084
1084
1084
1084
1f84
0004
0024
0014
000c
0000
0000
ENDCHAR
STARTCHAR caa7
ENCODING 51879 
SWIDTH 495 0
DWIDTH 18 0
BBX 18 19 0 0
BITMAP 
0000
0000
03ff
f804
8804
8804
89e4
8924
8924
8924
8924
8924
89e4
8804
f804
0014
000c
0000
0000
ENDCHAR
STARTCHAR caa8
ENCODING 51880 
SWIDTH 495 0
DWIDTH 18 0
BBX 18 19 0 0
BITMAP 
0000
0000
7ffe
0008
1f08
1108
1108
1f28
0018
0000
ffff
0008
1f08
1108
1108
1f28
0018
0000
0000
ENDCHAR
STARTCHAR caa9
ENCODING 51881 
SWIDTH 495 0
DWIDTH 18 0
BBX 18 19 0 0
BITMAP 
0000
0100
ffff
0100
3ffc
0000
3ffc
2004
3ffc
0810
ffff
1000
107f
ff41
1141
2541
437f
0000
0000
ENDCHAR
STARTCHAR caaa
ENCODING 51882 
SWIDTH 495 0
DWIDTH 18 0
BBX 18 19 0 0
BITMAP 
0000
2010
2010
21ff
2101
fd01
24fe
2440
24a8
2535
2456
2494
2934
1054
2892
4511
8070
0000
0000
ENDCHAR
STARTCHAR caab
ENCODING 51883 
SWIDTH 495 0
DWIDTH 18 0
BBX 18 19 0 0
BITMAP 
0000
0100
0100
ffff
8001
8001
3ffc
0500
0984
12c8
24b0
09a0
12a0
6490
0888
1084
6382
0000
0000
ENDCHAR
STARTCHAR caac
ENCODING 51884 
SWIDTH 495 0
DWIDTH 18 0
BBX 18 19 0 0
BITMAP 
0000
03ef
fa21
8a21
8a21
8be1
8a0f
8a00
fa1f
8bc1
8a11
8a11
8a11
8bca
8a04
fa0a
0211
0000
0000
ENDCHAR
STARTCHAR caaf
ENCODING 51887 
SWIDTH 495 0
DWIDTH 18 0
BBX 18 19 0 0
BITMAP 
0000
1000
13ff
1002
1002
fe02
10f2
1092
1092
3892
5492
90f2
1002
1002
1002
1012
100e
0000
0000
ENDCHAR
STARTCHAR caad
ENCODING 51885 
SWIDTH 495 0
DWIDTH 18 0
BBX 18 19 0 0
BITMAP 
0000
1000
107f
fe41
1241
1241
2241
4a41
867f
0100
0100
ffff
0520
0910
1108
2104
4102
0000
0000
ENDCHAR
STARTCHAR cab0
ENCODING 51888 
SWIDTH 495 0
DWIDTH 18 0
BBX 18 19 0 0
BITMAP 
0000
0020
ffa0
0120
793f
4929
4929
7b4a
0008
ff88
0108
7908
4908
4908
7914
0122
0741
0000
0000
ENDCHAR
STARTCHAR cab3
ENCODING 51891 
SWIDTH 495 0
DWIDTH 18 0
BBX 18 19 0 0
BITMAP 
0000
0820
1020
33ff
5201
9201
11fe
fc40
10a8
3935
5456
9094
1134
1054
1092
1111
1070
0000
0000
ENDCHAR
STARTCHAR cab4
ENCODING 51892 
SWIDTH 495 0
DWIDTH 18 0
BBX 18 19 0 0
BITMAP 
0000
0810
0810
ffff
0810
0810
0000
ffff
0008
0008
1fc8
1048
1048
1fc8
0008
0048
0038
0000
0000
ENDCHAR
STARTCHAR cab5
ENCODING 51893 
SWIDTH 495 0
DWIDTH 18 0
BBX 18 19 0 0
BITMAP 
0000
0410
0410
ffff
0410
1410
1000
107e
fe42
1242
1242
1242
1242
1242
2242
4a42
867e
0000
0000
ENDCHAR
STARTCHAR cab6
ENCODING 51894 
SWIDTH 495 0
DWIDTH 18 0
BBX 18 19 0 0
BITMAP 
0000
1000
211f
4100
87c0
1100
211f
6fc4
a004
2104
2104
2fc4
2104
2104
2144
2f94
200c
0000
0000
ENDCHAR
STARTCHAR cab7
ENCODING 51895 
SWIDTH 495 0
DWIDTH 18 0
BBX 18 19 0 0
BITMAP 
0000
1000
107e
ff42
1142
1142
1142
2542
437e
0080
ffff
0480
0844
1828
e910
0a08
3c07
0000
0000
ENDCHAR
STARTCHAR cab8
ENCODING 51896 
SWIDTH 495 0
DWIDTH 18 0
BBX 18 19 0 0
BITMAP 
0000
0000
7dff
0001
0001
fe01
00f9
7c89
0089
7c89
0089
7c89
44f9
4401
4401
4405
7c03
0000
0000
ENDCHAR
STARTCHAR cab9
ENCODING 51897 
SWIDTH 495 0
DWIDTH 18 0
BBX 18 19 0 0
BITMAP 
0000
0000
ffff
0420
7ffe
4422
7ffe
0000
1ff8
1008
1ff8
1008
1ff8
1008
1ff8
0420
381e
0000
0000
ENDCHAR
STARTCHAR caba
ENCODING 51898 
SWIDTH 495 0
DWIDTH 18 0
BBX 18 19 0 0
BITMAP 
0000
0100
fd00
850f
8509
87e9
fd29
1129
1129
5129
5d29
5129
5129
5529
5929
f229
04ef
0000
0000
ENDCHAR
STARTCHAR cabb
ENCODING 51899 
SWIDTH 495 0
DWIDTH 18 0
BBX 18 19 0 0
BITMAP 
0000
1000
10ff
fe04
1004
fe04
92f4
9294
fe94
9294
9294
fe94
10f4
fe04
1004
1014
100c
0000
0000
ENDCHAR
STARTCHAR cabc
ENCODING 51900 
SWIDTH 495 0
DWIDTH 18 0
BBX 18 19 0 0
BITMAP 
0000
0100
4100
210f
17e9
0129
0129
0129
f129
1129
1129
1229
14a9
106f
2800
4400
83ff
0000
0000
ENDCHAR
STARTCHAR cabd
ENCODING 51901 
SWIDTH 495 0
DWIDTH 18 0
BBX 18 19 0 0
BITMAP 
0000
1000
fe7f
1241
2241
4e7f
8000
3ffe
2080
3ffc
2080
3ffc
2080
3fff
0001
2491
4497
0000
0000
ENDCHAR
STARTCHAR cabe
ENCODING 51902 
SWIDTH 495 0
DWIDTH 18 0
BBX 18 19 0 0
BITMAP 
0000
0801
0801
ffa1
0821
1021
a221
4421
2821
1121
2221
4421
8821
1401
2201
4105
8083
0000
0000
ENDCHAR
STARTCHAR cabf
ENCODING 51903 
SWIDTH 495 0
DWIDTH 18 0
BBX 18 19 0 0
BITMAP 
0000
0800
083f
0821
7f21
0821
0821
0821
ffa1
0821
1021
2421
4229
8127
8120
ff20
0120
0000
0000
ENDCHAR
STARTCHAR cac0
ENCODING 51904 
SWIDTH 495 0
DWIDTH 18 0
BBX 18 19 0 0
BITMAP 
0000
0400
07f0
0810
1220
2140
0080
0140
0220
fc1f
0000
1ff8
1008
1008
1008
1008
1ff8
0000
0000
ENDCHAR
STARTCHAR cac1
ENCODING 51905 
SWIDTH 495 0
DWIDTH 18 0
BBX 18 19 0 0
BITMAP 
0000
2020
2040
20fc
2104
aa88
a850
a820
a850
a088
2104
23fe
2505
2104
2104
2104
21fc
0000
0000
ENDCHAR
STARTCHAR cac3
ENCODING 51907 
SWIDTH 495 0
DWIDTH 18 0
BBX 18 19 0 0
BITMAP 
0000
107c
1044
fe44
1045
1045
7c47
0080
fe00
82fe
8202
3c44
2428
2410
2528
4e44
8082
0000
0000
ENDCHAR
STARTCHAR cac4
ENCODING 51908 
SWIDTH 495 0
DWIDTH 18 0
BBX 18 19 0 0
BITMAP 
0000
0000
03fe
f820
2020
2020
2020
2020
f9fc
2020
2028
2824
3022
2020
4020
87ff
0000
0000
0000
ENDCHAR
STARTCHAR cac5
ENCODING 51909 
SWIDTH 495 0
DWIDTH 18 0
BBX 18 19 0 0
BITMAP 
0000
0080
788f
4889
4be9
4889
7889
4889
4be9
4809
7889
4909
4a09
4a2b
4a28
4be8
9828
0000
0000
ENDCHAR
STARTCHAR cac6
ENCODING 51910 
SWIDTH 495 0
DWIDTH 18 0
BBX 18 19 0 0
BITMAP 
0000
0a40
319c
2244
381c
2244
399c
2244
ffff
9009
9ff9
1008
1ff8
1008
1ff9
0441
787f
0000
0000
ENDCHAR
STARTCHAR cac7
ENCODING 51911 
SWIDTH 495 0
DWIDTH 18 0
BBX 18 19 0 0
BITMAP 
0000
0800
0ff0
1020
2040
4080
bffe
2082
2082
3ffe
2082
2082
3ffe
2002
2002
400a
8006
0000
0000
ENDCHAR
STARTCHAR cac8
ENCODING 51912 
SWIDTH 495 0
DWIDTH 18 0
BBX 18 19 0 0
BITMAP 
0000
fefe
8282
fefe
8282
fefe
8002
87e2
8842
9282
8102
befa
8002
8fe2
8822
882a
8fe6
0000
0000
ENDCHAR
STARTCHAR caca
ENCODING 51914 
SWIDTH 495 0
DWIDTH 18 0
BBX 18 19 0 0
BITMAP 
0000
0001
7f01
0821
0821
0821
0821
0821
ffa1
0821
0821
0821
0801
0801
0801
0805
0803
0000
0000
ENDCHAR
STARTCHAR cacb
ENCODING 51915 
SWIDTH 495 0
DWIDTH 18 0
BBX 18 19 0 0
BITMAP 
0000
22fe
5482
88fe
5082
28fe
4c91
948a
24a4
4dc2
1401
6500
0100
7ffc
0100
0100
fffe
0000
0000
ENDCHAR
STARTCHAR cacc
ENCODING 51916 
SWIDTH 495 0
DWIDTH 18 0
BBX 18 19 0 0
BITMAP 
0000
2000
20fe
2010
fe10
2210
2210
2210
2210
22ff
2210
1410
0810
1410
2210
4110
8010
0000
0000
ENDCHAR
STARTCHAR cacd
ENCODING 51917 
SWIDTH 495 0
DWIDTH 18 0
BBX 18 19 0 0
BITMAP 
0000
0400
0400
3ffc
0440
0280
0100
0280
3c78
0000
2020
feff
2424
1414
0808
1414
6363
0000
0000
ENDCHAR
STARTCHAR cace
ENCODING 51918 
SWIDTH 495 0
DWIDTH 18 0
BBX 18 19 0 0
BITMAP 
0000
0000
3ffc
0100
0100
0100
0100
0100
0100
ffff
0100
0100
0100
0100
0100
0100
0100
0000
0000
ENDCHAR
STARTCHAR cacf
ENCODING 51919 
SWIDTH 495 0
DWIDTH 18 0
BBX 18 19 0 0
BITMAP 
0000
1018
1024
fe42
1081
1000
fefe
8210
fe10
8210
fe10
11ff
1010
fe10
1010
1010
1010
0000
0000
ENDCHAR
STARTCHAR cad0
ENCODING 51920 
SWIDTH 495 0
DWIDTH 18 0
BBX 18 19 0 0
BITMAP 
0000
2200
447e
a842
147e
a642
4a7e
9251
264a
4a44
1252
26e1
0000
1484
2442
4409
87f8
0000
0000
ENDCHAR
STARTCHAR cad1
ENCODING 51921 
SWIDTH 495 0
DWIDTH 18 0
BBX 18 19 0 0
BITMAP 
0000
1010
1010
11ff
1010
fc10
11ff
1511
1993
1155
3111
51ff
9010
1038
1054
5092
3111
0000
0000
ENDCHAR
STARTCHAR cad2
ENCODING 51922 
SWIDTH 495 0
DWIDTH 18 0
BBX 18 19 0 0
BITMAP 
0000
1000
10fe
1010
1010
fe10
1010
1010
11ff
3810
5410
9010
1010
1010
1010
1010
1010
0000
0000
ENDCHAR
STARTCHAR cad5
ENCODING 51925 
SWIDTH 495 0
DWIDTH 18 0
BBX 18 19 0 0
BITMAP 
0000
0000
47df
2451
17df
0451
87df
4401
2401
04f9
0489
14f9
1489
14f9
2489
4519
8403
0000
0000
ENDCHAR
STARTCHAR cad6
ENCODING 51926 
SWIDTH 495 0
DWIDTH 18 0
BBX 18 19 0 0
BITMAP 
0000
0040
3fff
2000
2f9f
a891
6f9f
2891
2f9f
6801
a9f9
2909
29f9
2909
49f9
8909
0a3b
0000
0000
ENDCHAR
STARTCHAR cad7
ENCODING 51927 
SWIDTH 495 0
DWIDTH 18 0
BBX 18 19 0 0
BITMAP 
0000
0004
3ff8
0200
0200
7ffe
0200
0400
ffff
1000
2ffc
4804
8ffc
0804
0ffc
0804
0ffc
0000
0000
ENDCHAR
STARTCHAR cad9
ENCODING 51929 
SWIDTH 495 0
DWIDTH 18 0
BBX 18 19 0 0
BITMAP 
0000
09fe
1102
3102
51fe
9102
1102
fdfe
1000
1000
39fe
5410
9010
13ff
1010
1010
1010
0000
0000
ENDCHAR
STARTCHAR cada
ENCODING 51930 
SWIDTH 495 0
DWIDTH 18 0
BBX 18 19 0 0
BITMAP 
0000
0810
1020
3e7f
4888
8908
0000
1ffc
0080
0080
0080
ffff
0080
0080
0080
0080
0080
0000
0000
ENDCHAR
STARTCHAR cadb
ENCODING 51931 
SWIDTH 495 0
DWIDTH 18 0
BBX 18 19 0 0
BITMAP 
0000
2020
3f3f
4448
8488
0000
7f7f
4141
7f7f
4141
7f7f
4001
47f1
4411
47f1
4415
47f3
0000
0000
ENDCHAR
STARTCHAR cadd
ENCODING 51933 
SWIDTH 495 0
DWIDTH 18 0
BBX 18 19 0 0
BITMAP 
0000
0000
1ff8
1008
1008
1008
1ff8
1008
1008
1008
1ffa
1104
1088
1050
1120
1210
7c0f
0000
0000
ENDCHAR
STARTCHAR cade
ENCODING 51934 
SWIDTH 495 0
DWIDTH 18 0
BBX 18 19 0 0
BITMAP 
0000
2200
227e
ff42
2242
3e7e
0842
7f42
497e
7f50
0851
7f52
0854
ff48
1444
2252
40e1
0000
0000
ENDCHAR
STARTCHAR cadc
ENCODING 51932 
SWIDTH 495 0
DWIDTH 18 0
BBX 18 19 0 0
BITMAP 
0000
0000
7cfe
4410
4410
4410
7c10
4410
4410
45ff
7c10
4410
4410
4410
4410
5410
8c10
0000
0000
ENDCHAR
STARTCHAR cadf
ENCODING 51935 
SWIDTH 495 0
DWIDTH 18 0
BBX 18 19 0 0
BITMAP 
0000
0010
7c10
01ff
0010
fc10
01ff
7d11
0155
7d39
0111
7dff
4410
4438
4454
4492
7d11
0000
0000
ENDCHAR
STARTCHAR cae0
ENCODING 51936 
SWIDTH 495 0
DWIDTH 18 0
BBX 18 19 0 0
BITMAP 
0000
0000
fefe
8282
fefe
8282
fefe
8002
8002
8fe2
8822
8822
8fe2
8822
8822
8fea
8006
0000
0000
ENDCHAR
STARTCHAR cae1
ENCODING 51937 
SWIDTH 495 0
DWIDTH 18 0
BBX 18 19 0 0
BITMAP 
0000
1000
107e
ff42
1142
1142
1142
2542
437e
0000
7ffc
0018
00e0
0300
0c01
3001
7fff
0000
0000
ENDCHAR
STARTCHAR cae2
ENCODING 51938 
SWIDTH 495 0
DWIDTH 18 0
BBX 18 19 0 0
BITMAP 
0000
03fe
0202
f202
93fe
9202
9202
93fe
9040
9080
91ff
9211
9511
f129
0145
0101
01f3
0000
0000
ENDCHAR
STARTCHAR cae3
ENCODING 51939 
SWIDTH 495 0
DWIDTH 18 0
BBX 18 19 0 0
BITMAP 
0000
1ff8
1008
1008
1ff8
1008
1008
1ff8
0400
0800
1ffe
2102
6102
a282
2442
200a
3fe6
0000
0000
ENDCHAR
STARTCHAR cae4
ENCODING 51940 
SWIDTH 495 0
DWIDTH 18 0
BBX 18 19 0 0
BITMAP 
0000
03fe
4202
2202
13fe
0202
8202
43fe
2080
01ff
0211
0511
1129
1145
2101
41f9
8007
0000
0000
ENDCHAR
STARTCHAR cae5
ENCODING 51941 
SWIDTH 495 0
DWIDTH 18 0
BBX 18 19 0 0
BITMAP 
0000
00fe
0082
fe82
20fe
2082
2082
20fe
3c40
647f
a481
2511
2491
24a9
2481
3cf9
0003
0000
0000
ENDCHAR
STARTCHAR cae6
ENCODING 51942 
SWIDTH 495 0
DWIDTH 18 0
BBX 18 19 0 0
BITMAP 
0000
1000
10fe
1082
fc82
48fe
4882
4882
48fe
4840
48ff
4911
4a91
48a9
fcc5
0081
00fb
0000
0000
ENDCHAR
STARTCHAR cae8
ENCODING 51944 
SWIDTH 495 0
DWIDTH 18 0
BBX 18 19 0 0
BITMAP 
0000
11fe
1102
1102
fdfe
0502
0902
11fe
3440
58ff
9511
1311
1529
1145
1101
11f9
1003
0000
0000
ENDCHAR
STARTCHAR cae7
ENCODING 51943 
SWIDTH 495 0
DWIDTH 18 0
BBX 18 19 0 0
BITMAP 
0000
0810
0810
ffff
0810
3ffc
2004
3ffc
2004
3ffc
0800
1ffe
2082
5142
9632
1002
1fce
0000
0000
ENDCHAR
STARTCHAR caea
ENCODING 51946 
SWIDTH 495 0
DWIDTH 18 0
BBX 18 19 0 0
BITMAP 
0000
44fe
4482
fe82
44fe
4482
7c82
10fe
fe20
927f
9291
fe11
10a9
fec5
1081
10f9
1003
0000
0000
ENDCHAR
STARTCHAR caeb
ENCODING 51947 
SWIDTH 495 0
DWIDTH 18 0
BBX 18 19 0 0
BITMAP 
0000
2210
2210
ff90
2210
227f
3e11
2211
3e11
2211
2211
ff91
5411
5511
6721
4045
7e83
0000
0000
ENDCHAR
STARTCHAR caec
ENCODING 51948 
SWIDTH 495 0
DWIDTH 18 0
BBX 18 19 0 0
BITMAP 
0000
1080
1080
1080
10ff
fca1
1122
1224
1020
1020
1420
1820
1050
2088
4104
8202
0401
0000
0000
ENDCHAR
STARTCHAR caed
ENCODING 51949 
SWIDTH 495 0
DWIDTH 18 0
BBX 18 19 0 0
BITMAP 
0000
2104
2104
27ff
2104
f904
21fc
2104
21fc
2104
2104
2fff
3248
2249
428f
8200
03ff
0000
0000
ENDCHAR
STARTCHAR caee
ENCODING 51950 
SWIDTH 495 0
DWIDTH 18 0
BBX 18 19 0 0
BITMAP 
0000
0100
4102
4102
7ffe
0000
2220
2220
ffbf
2229
2249
228a
3e08
2208
2214
2222
3e41
0000
0000
ENDCHAR
STARTCHAR caef
ENCODING 51951 
SWIDTH 495 0
DWIDTH 18 0
BBX 18 19 0 0
BITMAP 
0000
0016
0010
3fff
2010
2fd0
2011
2f92
2894
2888
2f95
2023
4081
8a44
1222
2209
43f8
0000
0000
ENDCHAR
STARTCHAR caf0
ENCODING 51952 
SWIDTH 495 0
DWIDTH 18 0
BBX 18 19 0 0
BITMAP 
0000
200b
2008
23ff
2208
aae8
aa08
aae8
a2a9
22aa
22e4
240a
2821
2090
2282
2489
28f8
0000
0000
ENDCHAR
STARTCHAR caf2
ENCODING 51954 
SWIDTH 495 0
DWIDTH 18 0
BBX 18 19 0 0
BITMAP 
0000
0020
7e20
083f
0822
ff42
42a2
4222
7e22
4222
4222
7e22
4214
4208
fe14
0222
0241
0000
0000
ENDCHAR
STARTCHAR caf3
ENCODING 51955 
SWIDTH 495 0
DWIDTH 18 0
BBX 18 19 0 0
BITMAP 
0000
1084
1084
1084
11ff
fc84
1084
1084
3884
5484
90fc
1084
1084
1084
1084
1084
10fc
0000
0000
ENDCHAR
STARTCHAR caf4
ENCODING 51956 
SWIDTH 495 0
DWIDTH 18 0
BBX 18 19 0 0
BITMAP 
0000
2008
23e8
2088
208f
f7ea
224a
2252
23c2
2252
7252
abd2
2252
224a
27c4
204a
2051
0000
0000
ENDCHAR
STARTCHAR caf5
ENCODING 51957 
SWIDTH 495 0
DWIDTH 18 0
BBX 18 19 0 0
BITMAP 
0000
000b
4008
27ff
1408
0408
85e8
4408
25e8
0528
0529
152a
15ec
2408
4415
8823
1041
0000
0000
ENDCHAR
STARTCHAR caf6
ENCODING 51958 
SWIDTH 495 0
DWIDTH 18 0
BBX 18 19 0 0
BITMAP 
0000
1008
1008
1008
ffff
1008
1008
1008
1008
1008
1ff8
1008
1008
1008
1008
1008
1ff8
0000
0000
ENDCHAR
STARTCHAR caf7
ENCODING 51959 
SWIDTH 495 0
DWIDTH 18 0
BBX 18 19 0 0
BITMAP 
0000
0040
0040
1fff
1000
9104
5104
17ff
1104
3104
5104
91fc
1104
1104
2104
4104
01fc
0000
0000
ENDCHAR
STARTCHAR caf8
ENCODING 51960 
SWIDTH 495 0
DWIDTH 18 0
BBX 18 19 0 0
BITMAP 
0000
7f20
4420
443f
7f20
4140
7f00
4400
443e
7f00
0000
3ffc
2244
2244
2244
2244
ffff
0000
0000
ENDCHAR
STARTCHAR cafa
ENCODING 51962 
SWIDTH 495 0
DWIDTH 18 0
BBX 18 19 0 0
BITMAP 
0000
1084
2084
4084
8bff
5084
2084
4484
8484
fc84
14fc
1084
9484
9484
9484
9084
10fc
0000
0000
ENDCHAR
STARTCHAR cafc
ENCODING 51964 
SWIDTH 495 0
DWIDTH 18 0
BBX 18 19 0 0
BITMAP 
0000
1004
29f4
4547
81f4
0114
fdf0
1147
11f0
fc00
10fe
10aa
94aa
54aa
10aa
10aa
fdff
0000
0000
ENDCHAR
STARTCHAR cafe
ENCODING 51966 
SWIDTH 495 0
DWIDTH 18 0
BBX 18 19 0 0
BITMAP 
0000
03c0
0420
0bd0
1008
2ff4
4812
bffd
0040
7e7e
2402
ff7e
0040
7e7c
4240
7e41
427f
0000
0000
ENDCHAR
STARTCHAR cba1
ENCODING 52129 
SWIDTH 495 0
DWIDTH 18 0
BBX 18 19 0 0
BITMAP 
0000
0000
7fff
4000
4000
4ffe
4842
4842
4ffe
4842
4842
4ffe
4040
4040
4040
4040
7fff
0000
0000
ENDCHAR
STARTCHAR cba2
ENCODING 52130 
SWIDTH 495 0
DWIDTH 18 0
BBX 18 19 0 0
BITMAP 
0000
1000
10ff
1091
1091
9291
9291
92ff
9291
9291
9291
9291
92ff
9210
fe10
0010
0010
0000
0000
ENDCHAR
STARTCHAR cba3
ENCODING 52131 
SWIDTH 495 0
DWIDTH 18 0
BBX 18 19 0 0
BITMAP 
0000
0000
7ffc
4104
4104
4104
4104
7ffc
4104
4104
4104
4104
7ffc
0100
0100
0100
0100
0000
0000
ENDCHAR
STARTCHAR cba4
ENCODING 52132 
SWIDTH 495 0
DWIDTH 18 0
BBX 18 19 0 0
BITMAP 
0000
0000
7dff
4511
4511
4511
7dff
4511
4511
4511
7d11
45ff
4410
4410
4410
9410
0c10
0000
0000
ENDCHAR
STARTCHAR cba5
ENCODING 52133 
SWIDTH 495 0
DWIDTH 18 0
BBX 18 19 0 0
BITMAP 
0000
1000
28ff
4491
8291
0091
7cff
1091
1091
fe91
1091
10ff
9210
5410
1010
1010
fe10
0000
0000
ENDCHAR
STARTCHAR cba6
ENCODING 52134 
SWIDTH 495 0
DWIDTH 18 0
BBX 18 19 0 0
BITMAP 
0000
0000
fefe
8282
fefe
8282
fefe
8002
8fe2
8922
8922
8fe2
8922
8922
8fe2
8102
810e
0000
0000
ENDCHAR
STARTCHAR cbaa
ENCODING 52138 
SWIDTH 495 0
DWIDTH 18 0
BBX 18 19 0 0
BITMAP 
0000
0000
fffe
8002
8822
8442
8282
bffa
8102
8102
9112
9112
9112
9ff2
8002
8012
800e
0000
0000
ENDCHAR
STARTCHAR cba7
ENCODING 52135 
SWIDTH 495 0
DWIDTH 18 0
BBX 18 19 0 0
BITMAP 
0000
0001
ff81
8091
8091
a291
9491
be91
8891
aa91
aa91
aa91
aa91
be81
8081
8285
8183
0000
0000
ENDCHAR
STARTCHAR cba9
ENCODING 52137 
SWIDTH 495 0
DWIDTH 18 0
BBX 18 19 0 0
BITMAP 
0000
1010
0820
0440
7ffe
0100
3ffc
0100
ffff
0400
0400
7ffe
0440
0280
0100
0280
3c78
0000
0000
ENDCHAR
STARTCHAR cbab
ENCODING 52139 
SWIDTH 495 0
DWIDTH 18 0
BBX 18 19 0 0
BITMAP 
0000
4081
4081
7fff
0000
0000
7fff
4001
4411
4221
5ffd
4081
4081
4491
4491
47f5
4003
0000
0000
ENDCHAR
STARTCHAR cbac
ENCODING 52140 
SWIDTH 495 0
DWIDTH 18 0
BBX 18 19 0 0
BITMAP 
0000
0040
0040
3fff
2000
2040
27fc
2044
2fff
2044
27fc
2440
2262
2054
4248
8444
09c2
0000
0000
ENDCHAR
STARTCHAR cbad
ENCODING 52141 
SWIDTH 495 0
DWIDTH 18 0
BBX 18 19 0 0
BITMAP 
0000
0010
7c20
0442
0481
05ff
fc11
8010
81ff
8111
fd11
05ff
0410
0412
0411
49ff
3001
0000
0000
ENDCHAR
STARTCHAR cbae
ENCODING 52142 
SWIDTH 495 0
DWIDTH 18 0
BBX 18 19 0 0
BITMAP 
0000
0000
f7ff
1000
13fe
1222
f3fe
8222
87ff
8000
f3fe
1222
13fe
1222
13fe
a000
47ff
0000
0000
ENDCHAR
STARTCHAR cbaf
ENCODING 52143 
SWIDTH 495 0
DWIDTH 18 0
BBX 18 19 0 0
BITMAP 
0000
2010
2010
23ff
2200
aa10
aafe
aa12
abff
a212
22fe
2210
2291
225a
2414
2892
2131
0000
0000
ENDCHAR
STARTCHAR cbb0
ENCODING 52144 
SWIDTH 495 0
DWIDTH 18 0
BBX 18 19 0 0
BITMAP 
0000
0000
4000
23fe
1020
0020
8020
4020
2020
0020
0020
0420
0820
1020
2020
47ff
8000
0000
0000
ENDCHAR
STARTCHAR cbb2
ENCODING 52146 
SWIDTH 495 0
DWIDTH 18 0
BBX 18 19 0 0
BITMAP 
0000
0000
fdff
0400
04fe
fc92
80fe
8092
fdff
0400
24fe
f492
24fe
2492
f4fe
0400
1dff
0000
0000
ENDCHAR
STARTCHAR cbb5
ENCODING 52149 
SWIDTH 495 0
DWIDTH 18 0
BBX 18 19 0 0
BITMAP 
0000
1000
21ff
4101
8945
5129
2101
457d
8511
fd11
1555
1155
9555
957d
9501
9105
1103
0000
0000
ENDCHAR
STARTCHAR cbba
ENCODING 52154 
SWIDTH 495 0
DWIDTH 18 0
BBX 18 19 0 0
BITMAP 
0000
2004
2388
2092
f8a1
08bf
0b89
1208
223e
6a2a
b3aa
28aa
20be
2088
2089
22bf
2181
0000
0000
ENDCHAR
STARTCHAR cbb3
ENCODING 52147 
SWIDTH 495 0
DWIDTH 18 0
BBX 18 19 0 0
BITMAP 
0000
2020
2020
abff
aa10
22fe
2212
fbff
2212
22fe
7210
aa92
2254
2210
2454
2892
2131
0000
0000
ENDCHAR
STARTCHAR cbb7
ENCODING 52151 
SWIDTH 495 0
DWIDTH 18 0
BBX 18 19 0 0
BITMAP 
0000
0020
7820
4bff
4a01
4a01
7838
4884
4902
4a01
7800
49fe
4820
4820
4820
8820
1bff
0000
0000
ENDCHAR
STARTCHAR cbb9
ENCODING 52153 
SWIDTH 495 0
DWIDTH 18 0
BBX 18 19 0 0
BITMAP 
0000
0420
ffff
0420
7ffe
0000
3ffc
2104
3ffc
2104
ffff
0000
3ffc
2104
3ffc
2104
ffff
0000
0000
ENDCHAR
STARTCHAR cbbb
ENCODING 52155 
SWIDTH 495 0
DWIDTH 18 0
BBX 18 19 0 0
BITMAP 
0000
0044
7c44
01ff
0044
fcfe
0044
7dff
0010
7cfe
0092
7cfe
4492
45ff
4482
448a
7c86
0000
0000
ENDCHAR
STARTCHAR cbbc
ENCODING 52156 
SWIDTH 495 0
DWIDTH 18 0
BBX 18 19 0 0
BITMAP 
0000
1000
29ff
4501
8101
0145
7d29
11ff
1111
fd11
1155
1155
9555
557d
1101
1105
fd03
0000
0000
ENDCHAR
STARTCHAR cbbd
ENCODING 52157 
SWIDTH 495 0
DWIDTH 18 0
BBX 18 19 0 0
BITMAP 
0000
0080
f8fe
8902
8a84
8848
9030
a0cc
9313
8810
89fe
8910
8910
b910
83ff
8010
8010
0000
0000
ENDCHAR
STARTCHAR cbbf
ENCODING 52159 
SWIDTH 495 0
DWIDTH 18 0
BBX 18 19 0 0
BITMAP 
0000
0180
0240
0420
0810
1008
2004
4412
8411
0410
0410
0410
0410
0410
0810
1010
2010
0000
0000
ENDCHAR
STARTCHAR cbc0
ENCODING 52160 
SWIDTH 495 0
DWIDTH 18 0
BBX 18 19 0 0
BITMAP 
0000
0420
0850
1088
3104
5202
9489
1088
1088
1088
1088
1088
1088
1088
1108
1208
1408
0000
0000
ENDCHAR
STARTCHAR cbc1
ENCODING 52161 
SWIDTH 495 0
DWIDTH 18 0
BBX 18 19 0 0
BITMAP 
0000
0400
0bff
1201
2221
6221
a2fd
2221
2221
22fd
2285
2285
2285
22fd
2201
2201
23ff
0000
0000
ENDCHAR
STARTCHAR cbc2
ENCODING 52162 
SWIDTH 495 0
DWIDTH 18 0
BBX 18 19 0 0
BITMAP 
0000
1000
917c
9144
ff44
0044
fe44
0044
7e44
4244
4244
7e44
0044
4244
2445
0085
fd07
0000
0000
ENDCHAR
STARTCHAR cbc4
ENCODING 52164 
SWIDTH 495 0
DWIDTH 18 0
BBX 18 19 0 0
BITMAP 
0000
2020
2222
2222
23fe
a800
a800
abff
a800
a000
21fc
2104
2104
21fc
2088
2088
27ff
0000
0000
ENDCHAR
STARTCHAR cbc5
ENCODING 52165 
SWIDTH 495 0
DWIDTH 18 0
BBX 18 19 0 0
BITMAP 
0000
2080
2100
23fe
2400
a9fc
a800
abfc
a004
a494
22a4
2084
27f4
2085
21c5
22a3
2491
0000
0000
ENDCHAR
STARTCHAR cbc6
ENCODING 52166 
SWIDTH 495 0
DWIDTH 18 0
BBX 18 19 0 0
BITMAP 
0000
2100
221f
23c4
2244
aa54
abd4
aa54
a254
23ff
2004
2204
2244
228c
2315
23e5
2047
0000
0000
ENDCHAR
STARTCHAR cbc7
ENCODING 52167 
SWIDTH 495 0
DWIDTH 18 0
BBX 18 19 0 0
BITMAP 
0000
0040
fc40
047f
0444
0484
0504
0444
fc44
8044
8044
8028
8010
8428
8444
fc82
0101
0000
0000
ENDCHAR
STARTCHAR cbc8
ENCODING 52168 
SWIDTH 495 0
DWIDTH 18 0
BBX 18 19 0 0
BITMAP 
0000
2100
2200
27bf
2484
f494
2794
2494
2494
77bf
a804
2404
248c
2514
2625
27c5
2087
0000
0000
ENDCHAR
STARTCHAR cbc9
ENCODING 52169 
SWIDTH 495 0
DWIDTH 18 0
BBX 18 19 0 0
BITMAP 
0000
0100
4200
27bf
1494
0494
8794
4494
2494
079f
0404
0784
140c
1794
2425
4445
8487
0000
0000
ENDCHAR
STARTCHAR cbca
ENCODING 52170 
SWIDTH 495 0
DWIDTH 18 0
BBX 18 19 0 0
BITMAP 
0000
0040
0040
1fff
1000
9020
5050
1088
1104
328a
5489
9088
1088
1088
2108
4208
0408
0000
0000
ENDCHAR
STARTCHAR cbcb
ENCODING 52171 
SWIDTH 495 0
DWIDTH 18 0
BBX 18 19 0 0
BITMAP 
0000
2040
2042
3e7c
2040
2141
2241
fc7f
0100
0200
3ffc
2004
2004
3ffc
2004
2004
3ffc
0000
0000
ENDCHAR
STARTCHAR cbcc
ENCODING 52172 
SWIDTH 495 0
DWIDTH 18 0
BBX 18 19 0 0
BITMAP 
0000
0810
0420
7ffe
0100
0100
3ffc
0100
0100
ffff
0000
0000
3ffc
2244
2244
2244
ffff
0000
0000
ENDCHAR
STARTCHAR cbcd
ENCODING 52173 
SWIDTH 495 0
DWIDTH 18 0
BBX 18 19 0 0
BITMAP 
0000
1010
2020
7e7f
8888
0808
7ffe
4002
4102
4ff2
4102
4ff2
4812
4812
4ff2
4002
7ffe
0000
0000
ENDCHAR
STARTCHAR cbce
ENCODING 52174 
SWIDTH 495 0
DWIDTH 18 0
BBX 18 19 0 0
BITMAP 
0000
0810
0810
ffff
0810
0990
0240
0420
0810
1428
2424
4422
8421
0420
0820
1020
2020
0000
0000
ENDCHAR
STARTCHAR cbcf
ENCODING 52175 
SWIDTH 495 0
DWIDTH 18 0
BBX 18 19 0 0
BITMAP 
0000
0810
ffff
0810
0100
1ff8
0100
7ffe
0420
0810
1ff8
0000
3ffc
2244
2244
2244
ffff
0000
0000
ENDCHAR
STARTCHAR cbd2
ENCODING 52178 
SWIDTH 495 0
DWIDTH 18 0
BBX 18 19 0 0
BITMAP 
0000
0000
fefe
8282
fefe
8282
fefe
8002
8002
9ff2
8442
8442
9ff2
8442
8442
884a
9046
0000
0000
ENDCHAR
STARTCHAR cbd4
ENCODING 52180 
SWIDTH 495 0
DWIDTH 18 0
BBX 18 19 0 0
BITMAP 
0000
0100
0100
ffff
8201
8401
8ff9
3410
0260
0180
0e70
f00f
1ff8
1008
1008
1008
1ff8
0000
0000
ENDCHAR
STARTCHAR cbd5
ENCODING 52181 
SWIDTH 495 0
DWIDTH 18 0
BBX 18 19 0 0
BITMAP 
0000
1020
1020
1020
13ff
fc00
1000
10fc
1084
1284
1484
1884
1084
2084
4105
8205
0407
0000
0000
ENDCHAR
STARTCHAR cbd6
ENCODING 52182 
SWIDTH 495 0
DWIDTH 18 0
BBX 18 19 0 0
BITMAP 
0000
0000
ffff
0100
3ffc
2104
2104
3ffc
2104
2104
3ffc
0100
0a00
0400
0a00
1100
60fe
0000
0000
ENDCHAR
STARTCHAR cbd7
ENCODING 52183 
SWIDTH 495 0
DWIDTH 18 0
BBX 18 19 0 0
BITMAP 
0000
1000
11ff
9410
5410
10fe
1092
fe92
10fe
1092
3892
54fe
9010
11a0
1040
10a0
111f
0000
0000
ENDCHAR
STARTCHAR cbd8
ENCODING 52184 
SWIDTH 495 0
DWIDTH 18 0
BBX 18 19 0 0
BITMAP 
0000
0420
7ffe
0100
3ffc
0100
ffff
2244
4a52
0420
7ffe
0100
3ffc
0100
ffff
0440
783e
0000
0000
ENDCHAR
STARTCHAR cbd9
ENCODING 52185 
SWIDTH 495 0
DWIDTH 18 0
BBX 18 19 0 0
BITMAP 
0000
0010
fe1e
2810
28ff
fe91
aab8
aa92
aabf
aa92
aeaa
c28b
829a
feaa
828a
8319
fe28
0000
0000
ENDCHAR
STARTCHAR cbdb
ENCODING 52187 
SWIDTH 495 0
DWIDTH 18 0
BBX 18 19 0 0
BITMAP 
0000
0100
0100
0100
3ffc
0100
0100
0100
0100
ffff
0200
0410
0808
1004
2002
7ffe
0002
0000
0000
ENDCHAR
STARTCHAR cbdc
ENCODING 52188 
SWIDTH 495 0
DWIDTH 18 0
BBX 18 19 0 0
BITMAP 
0000
3ffe
2002
2002
3ffe
2040
2040
3fff
2040
2040
2040
2ffe
2802
2802
4802
8802
0ffe
0000
0000
ENDCHAR
STARTCHAR cbdd
ENCODING 52189 
SWIDTH 495 0
DWIDTH 18 0
BBX 18 19 0 0
BITMAP 
0000
0000
7ffe
4000
4000
4000
4000
7ffc
4004
4004
4004
7ffc
4000
4000
4000
4000
7ffe
0000
0000
ENDCHAR
STARTCHAR cbde
ENCODING 52190 
SWIDTH 495 0
DWIDTH 18 0
BBX 18 19 0 0
BITMAP 
0000
1000
11ff
1100
1100
fd00
1100
15fe
1902
1102
3102
51fe
9100
1100
1100
5100
31ff
0000
0000
ENDCHAR
STARTCHAR cbdf
ENCODING 52191 
SWIDTH 495 0
DWIDTH 18 0
BBX 18 19 0 0
BITMAP 
0000
1000
11ff
1101
1101
fdff
1108
1508
19ff
1108
3108
517f
9141
1141
1241
5441
307f
0000
0000
ENDCHAR
STARTCHAR cbe0
ENCODING 52192 
SWIDTH 495 0
DWIDTH 18 0
BBX 18 19 0 0
BITMAP 
0000
2020
203e
2020
23ff
fa21
22f8
2222
2a3e
3200
22ff
6252
a29b
222a
24ca
a81a
60e9
0000
0000
ENDCHAR
STARTCHAR cbe2
ENCODING 52194 
SWIDTH 495 0
DWIDTH 18 0
BBX 18 19 0 0
BITMAP 
0000
47ff
2200
03fc
8204
4a04
0bfc
1200
27ff
4000
0100
ffff
0540
0920
1110
2108
4104
0000
0000
ENDCHAR
STARTCHAR cbe3
ENCODING 52195 
SWIDTH 495 0
DWIDTH 18 0
BBX 18 19 0 0
BITMAP 
0000
1000
11ff
1080
1080
9280
92fe
9282
9082
1082
1082
10fe
1080
1080
2880
4480
81ff
0000
0000
ENDCHAR
STARTCHAR cbe1
ENCODING 52193 
SWIDTH 495 0
DWIDTH 18 0
BBX 18 19 0 0
BITMAP 
0000
1200
23de
4202
7bde
4042
7a5e
4242
ffff
1008
27e4
4082
8ff1
0080
7ffe
0080
0380
0000
0000
ENDCHAR
STARTCHAR cbe5
ENCODING 52197 
SWIDTH 495 0
DWIDTH 18 0
BBX 18 19 0 0
BITMAP 
0000
0000
fe7f
8240
8240
8240
8240
fe7f
1041
1041
5e41
507f
5040
5240
5440
5840
f07f
0000
0000
ENDCHAR
STARTCHAR cbe8
ENCODING 52200 
SWIDTH 495 0
DWIDTH 18 0
BBX 18 19 0 0
BITMAP 
0000
0020
803e
4020
27ff
0441
05f8
0442
e5ff
24a4
2535
2456
2494
2932
2051
5090
8fff
0000
0000
ENDCHAR
STARTCHAR cbe7
ENCODING 52199 
SWIDTH 495 0
DWIDTH 18 0
BBX 18 19 0 0
BITMAP 
0000
0100
0100
7ffe
0100
3ffc
2104
2104
3ffc
2104
2104
3ffc
0100
ffff
0100
0100
0100
0000
0000
ENDCHAR
STARTCHAR cbea
ENCODING 52202 
SWIDTH 495 0
DWIDTH 18 0
BBX 18 19 0 0
BITMAP 
0000
1000
28ff
4481
8281
00ff
7c88
1088
10ff
fe88
1088
10bf
92a1
54a1
10a1
fd21
003f
0000
0000
ENDCHAR
STARTCHAR cbeb
ENCODING 52203 
SWIDTH 495 0
DWIDTH 18 0
BBX 18 19 0 0
BITMAP 
0000
1040
1040
ff7f
1040
1080
fe00
827e
fe02
8204
fe08
1010
1020
fe40
1081
1081
10ff
0000
0000
ENDCHAR
STARTCHAR cbec
ENCODING 52204 
SWIDTH 495 0
DWIDTH 18 0
BBX 18 19 0 0
BITMAP 
0000
0410
0910
1110
3110
51ff
9110
1210
1410
1010
1010
17ff
1010
1010
1010
1010
1010
0000
0000
ENDCHAR
STARTCHAR cbed
ENCODING 52205 
SWIDTH 495 0
DWIDTH 18 0
BBX 18 19 0 0
BITMAP 
0000
0810
1010
2f7e
6112
a112
227f
2412
2812
2f7e
2110
217e
2910
257f
2210
2500
28ff
0000
0000
ENDCHAR
STARTCHAR cbee
ENCODING 52206 
SWIDTH 495 0
DWIDTH 18 0
BBX 18 19 0 0
BITMAP 
0000
0100
0100
0100
0100
7ffe
4102
4102
4102
4102
4102
4102
410a
4106
0100
0100
0100
0000
0000
ENDCHAR
STARTCHAR cbef
ENCODING 52207 
SWIDTH 495 0
DWIDTH 18 0
BBX 18 19 0 0
BITMAP 
0000
0020
f9fe
0822
1022
23ff
4022
8022
f9fe
0820
09fe
4820
2bff
1020
2820
4400
83ff
0000
0000
ENDCHAR
STARTCHAR cbf0
ENCODING 52208 
SWIDTH 495 0
DWIDTH 18 0
BBX 18 19 0 0
BITMAP 
0000
1200
213f
4080
8a00
113f
2084
6004
a044
2084
2114
220c
0080
1444
2422
4409
87f8
0000
0000
ENDCHAR
STARTCHAR cbf3
ENCODING 52211 
SWIDTH 495 0
DWIDTH 18 0
BBX 18 19 0 0
BITMAP 
0000
0080
00fe
0080
3fff
2101
2fe2
2108
21f8
2040
2040
2fff
2110
22a0
4040
80a0
1f1f
0000
0000
ENDCHAR
STARTCHAR cbf4
ENCODING 52212 
SWIDTH 495 0
DWIDTH 18 0
BBX 18 19 0 0
BITMAP 
0000
0100
ffff
8421
bffd
0420
1ff8
0420
7ffe
1008
2ff4
4812
8ff1
1080
10f8
2880
47fe
0000
0000
ENDCHAR
STARTCHAR cbf5
ENCODING 52213 
SWIDTH 495 0
DWIDTH 18 0
BBX 18 19 0 0
BITMAP 
0000
2008
5008
8bbe
008a
00bf
f90a
223e
2208
fbde
2048
207f
aa48
a948
2088
2140
fa3f
0000
0000
ENDCHAR
STARTCHAR cbf6
ENCODING 52214 
SWIDTH 495 0
DWIDTH 18 0
BBX 18 19 0 0
BITMAP 
0000
0100
ffff
8421
bffd
0420
3ffc
0420
ffff
1008
3ffc
5082
9ff9
1080
1ffe
4922
8916
0000
0000
ENDCHAR
STARTCHAR cbf7
ENCODING 52215 
SWIDTH 495 0
DWIDTH 18 0
BBX 18 19 0 0
BITMAP 
0000
0400
0800
1fff
2000
4000
8ff0
0010
0020
0040
0080
0100
0200
0400
0802
1002
1ffe
0000
0000
ENDCHAR
STARTCHAR cbf8
ENCODING 52216 
SWIDTH 495 0
DWIDTH 18 0
BBX 18 19 0 0
BITMAP 
0000
0a02
1202
23df
6452
a852
2292
213f
2202
2422
2020
27ff
20a8
2124
2222
2421
2020
0000
0000
ENDCHAR
STARTCHAR cbf9
ENCODING 52217 
SWIDTH 495 0
DWIDTH 18 0
BBX 18 19 0 0
BITMAP 
0000
0100
0100
ffff
0100
0380
0540
0920
1110
2108
4104
8102
0000
1448
2444
4442
8441
0000
0000
ENDCHAR
STARTCHAR cbfb
ENCODING 52219 
SWIDTH 495 0
DWIDTH 18 0
BBX 18 19 0 0
BITMAP 
0000
0420
0850
1088
3104
52fa
9401
1000
13de
1252
1252
13de
1104
1104
1104
128a
1451
0000
0000
ENDCHAR
STARTCHAR cbfc
ENCODING 52220 
SWIDTH 495 0
DWIDTH 18 0
BBX 18 19 0 0
BITMAP 
0000
0401
0a01
1109
2089
5f49
8029
0009
7bc9
4a49
4a49
7bc9
2081
2081
2081
5145
8a23
0000
0000
ENDCHAR
STARTCHAR cbfe
ENCODING 52222 
SWIDTH 495 0
DWIDTH 18 0
BBX 18 19 0 0
BITMAP 
0000
1010
1028
1044
1082
fd7d
1000
11ef
1129
3929
55ef
9000
1084
1084
1084
114a
1211
0000
0000
ENDCHAR
STARTCHAR cca1
ENCODING 52385 
SWIDTH 495 0
DWIDTH 18 0
BBX 18 19 0 0
BITMAP 
0000
0030
f848
8884
897a
8a01
f800
8bde
8a52
8a52
fbde
8888
8888
8888
8954
fa22
0441
0000
0000
ENDCHAR
STARTCHAR cca3
ENCODING 52387 
SWIDTH 495 0
DWIDTH 18 0
BBX 18 19 0 0
BITMAP 
0000
0010
fe28
9244
d682
ba01
927c
fe00
1000
10fe
7c02
1002
1004
fe08
0010
aa20
aa40
0000
0000
ENDCHAR
STARTCHAR cca4
ENCODING 52388 
SWIDTH 495 0
DWIDTH 18 0
BBX 18 19 0 0
BITMAP 
0000
0810
0810
0810
7f10
087f
0811
0811
ff91
0811
1011
2011
4211
4111
4121
7f45
0103
0000
0000
ENDCHAR
STARTCHAR cca5
ENCODING 52389 
SWIDTH 495 0
DWIDTH 18 0
BBX 18 19 0 0
BITMAP 
0000
2020
2020
2020
23fe
a820
a820
a820
a020
27ff
2040
2080
2104
2202
2401
27ff
2001
0000
0000
ENDCHAR
STARTCHAR cca7
ENCODING 52391 
SWIDTH 495 0
DWIDTH 18 0
BBX 18 19 0 0
BITMAP 
0000
05fe
0902
1102
31fe
5102
9102
11fe
1080
11ff
1301
1509
1111
1129
1145
11f1
1007
0000
0000
ENDCHAR
STARTCHAR cca8
ENCODING 52392 
SWIDTH 495 0
DWIDTH 18 0
BBX 18 19 0 0
BITMAP 
0000
0108
7e10
087e
0842
ff42
087e
0842
7e7e
4242
4242
7e7e
0000
1484
2442
4409
87f8
0000
0000
ENDCHAR
ENDFONT
